<?xml version="1.0" standalone="no"?>
<!DOCTYPE svg PUBLIC "-//W3C//DTD SVG 1.1//EN" "http://www.w3.org/Graphics/SVG/1.1/DTD/svg11.dtd" >
<svg>
<metadata>
Created by FontForge 20090914 at Fri Feb 24 01:36:46 2012
 By root
Copyright (c) Typographer Mediengestaltung, 2001. All rights reserved.
</metadata>
<defs>
<font id="Subway-Black" horiz-adv-x="899" >
  <font-face 
    font-family="Subway"
    font-weight="900"
    font-stretch="normal"
    units-per-em="1000"
    panose-1="2 0 10 3 2 0 0 2 0 3"
    ascent="800"
    descent="-200"
    x-height="462"
    cap-height="700"
    bbox="-171 -198 1415 915"
    underline-thickness="20"
    underline-position="-190"
    unicode-range="U+0005-U+E010"
  />
<missing-glyph horiz-adv-x="500" 
d="M63 0h375v810h-375v-810zM125 63v685h250v-685h-250z" />
    <glyph glyph-name=".notdef" horiz-adv-x="500" 
d="M63 0h375v810h-375v-810zM125 63v685h250v-685h-250z" />
    <glyph glyph-name="breve" horiz-adv-x="589" 
d="M479 721q0 18 -20 18l-72 -57q-41 -26 -93 -26q-77 0 -175 83q-20 0 -20 -18q0 -64 67 -118q64 -50 128 -50q66 0 125 51q60 52 60 117z" />
    <glyph glyph-name="dotaccent" horiz-adv-x="401" 
d="M331 631q0 64 -107 64q-154 0 -154 -83q0 -32 30 -50q25 -16 65 -16q54 0 102 17q64 22 64 68z" />
    <glyph glyph-name="ring" horiz-adv-x="447" 
d="M376 639q0 57 -51 84q-39 21 -102 21q-153 0 -153 -105t153 -105q63 0 102 21q51 27 51 84zM273 639q0 -58 -50 -58t-50 58t50 58t50 -58z" />
    <glyph glyph-name="hungarumlaut" unicode="&#xa;" horiz-adv-x="689" 
d="M618 653q0 31 -48 46q-33 10 -74 10q-84 0 -84 -30q0 -4 4 -12.5t4 -10.5q0 -3 -35 -35q-35 -30 -35 -48q0 -37 54 -37q56 0 128 31q86 38 86 86zM338 653q0 31 -48 46q-33 10 -74 10q-84 0 -84 -30q0 -4 4 -12.5t4 -10.5q0 -3 -35 -35q-35 -30 -35 -48q0 -37 54 -37
q56 0 128 31q86 38 86 86z" />
    <glyph glyph-name="ogonek" horiz-adv-x="413" 
d="M343 -119q0 29 -20 29q-8 0 -29 -10t-38 -10q-20 0 -35 12t-15 29q0 22 17.5 42t41.5 28h-101q-60 -40 -61 -41q-34 -28 -34 -61q0 -37 40.5 -62.5t106.5 -25.5q127 0 127 70z" />
    <glyph glyph-name="caron" horiz-adv-x="527" 
d="M456 684q0 42 -39 42q-16 0 -74 -29q-56 -28 -80 -28q-22 0 -78 28q-58 29 -76 29q-39 0 -39 -42q0 -33 79 -91q79 -57 114 -57q34 0 114 57q79 58 79 91z" />
    <glyph glyph-name="dotlessi" unicode="&#xd;" horiz-adv-x="351" 
d="M341 23q3 7 3 14q0 20 -15 31l-6 4l-6 2q-22 12 -22 45v282q0 27 -1 30q-9 46 -42 46q-8 0 -11 -1l-201 -51q-34 -12 -34 -39q0 -18 15 -30l7 -4l5 -3q21 -13 22 -34l1 -196l-1 -10q-1 -24 -22 -35l-5 -2q-21 -14 -21 -34q0 -13 10.5 -25.5t29.5 -12.5h257q26 0 37 23z
" />
    <glyph glyph-name="fraction" horiz-adv-x="140" 
d="M314 627q0 23 -47 23q-26 0 -39 -12q-6 -4 -22 -32l-232 -405l-39 -63.5l-39 -63.5q-67 -106 -67 -116q0 -25 59 -25q22 0 61 64l24 42l23 42l187 323l72 114q59 97 59 109z" />
    <glyph glyph-name="fi" horiz-adv-x="755" 
d="M420 605q10 16 10 36q0 28 -25 50q-26 23 -53 27q-25 4 -40.5 6t-22.5 2q-116 0 -170.5 -59.5t-54.5 -186.5v-18h-20q-35 0 -43 -41q-3 -25 8.5 -41t37.5 -16h17v-245l-1 -10q-1 -24 -22 -35l-5 -2q-22 -13 -22 -34q0 -38 40 -38h258q40 0 40 37q0 18 -16 31l-5 4l-5 2
q-19 10 -24 35v255l44 1q7 0 22 5q28 15 28 41q0 51 -52 51h-48v105l-4 22q0 7 -1 10q0 23 11 17q5 -2 6 -8l1 -4l1 -6l2 -4q8 -23 44 -23q15 0 33.5 5t30.5 29zM582 517q48 0 83 24q41 29 41 73q0 45 -40 75q-38 27 -84 27q-41 5 -85 -27q-48 -34 -46 -81q1 -39 37.5 -65
t93.5 -26zM745 24q3 7 3 14q0 20 -15 31l-6 4l-6 2q-22 12 -22 45v282q0 27 -1 30q-9 46 -42 46q-8 0 -11 -1l-201 -51q-34 -12 -34 -39q0 -18 15 -30l7 -4l5 -3q21 -13 22 -34l1 -196l-1 -10q-1 -24 -22 -35l-5 -2q-21 -14 -21 -34q0 -13 10.5 -25.5t29.5 -12.5h257
q26 0 37 23z" />
    <glyph glyph-name="fl" horiz-adv-x="763" 
d="M753 24q3 7 3 14q0 20 -15 31l-6 4l-6 2q-22 12 -22 45v527q0 76 -43 76q-8 0 -11 -1l-201 -51q-16 -6 -24 -14q-6 21 -29.5 39t-46.5 22q-25 4 -40.5 6t-22.5 2q-116 0 -170.5 -59.5t-54.5 -186.5v-18h-20q-35 0 -43 -41q-3 -25 8.5 -41t37.5 -16h17v-245l-1 -10
q-1 -24 -22 -35l-5 -2q-22 -13 -22 -34q0 -38 40 -38h258q40 0 40 37q0 18 -16 31l-5 4l-5 2q-19 10 -24 35v255l44 1q7 0 22 5q28 15 28 41q0 51 -52 51h-48v105l-4 22q0 7 -1 10q0 23 11 17q5 -2 6 -8l1 -4l1 -6l2 -4q8 -23 44 -23q15 0 33.5 5t30.5 29q1 2 2 3.5t2 3.5
q4 -7 9 -10l7 -4l5 -3q21 -13 22 -34l1 -441l-1 -10q-1 -24 -22 -35l-5 -2q-21 -14 -21 -34q0 -13 10.5 -25.5t29.5 -12.5h257q26 0 37 23z" />
    <glyph glyph-name="Lslash" horiz-adv-x="635" 
d="M470 384q9 10 -6 51q-13 40 -28 43q-14 3 -53 -11l-20 -7v121q5 29 25 38l5 3q23 14 23 36q0 8 -3 17q-12 25 -40 25h-281q-42 0 -42 -41q0 -26 23 -37l3 -2l3 -1q20 -11 24 -37v-217l-67 -25q-36 -12 -36 -33q0 -14 10 -38q17 -44 38 -44q9 0 27 6l28 11v-124
q-4 -26 -24 -37l-6 -3q-23 -11 -23 -37q0 -5 1 -12t5.5 -13.5t12.5 -11t23 -4.5h445l15 1q23 2 33 11t20 33l15 49q15 49 15 69q0 38 -43 48q-11 3 -19 0q-25 -4 -33 -20l-16 -25l-11 -15q-45 -62 -74 -62q-53 0 -64 7q-11 8 -11 35l-1 205l60 22q38 14 47 26z" />
    <glyph glyph-name="lslash" horiz-adv-x="473" 
d="M469 384q9 10 -6 51q-13 40 -28 43q-14 3 -53 -11l-22 -8v187q0 76 -43 76q-8 0 -11 -1l-201 -51q-34 -12 -34 -39q0 -18 15 -30l7 -4l5 -3q21 -13 22 -34l1 -188l-86 -32q-35 -12 -35 -33q0 -13 9 -38q17 -44 38 -44q9 0 27 6l47 17v-129l-1 -10q-1 -24 -22 -35l-5 -2
q-21 -14 -21 -34q0 -13 10.5 -25.5t29.5 -12.5h257q26 0 37 23q3 7 3 14q0 20 -15 31l-6 4l-6 2q-22 12 -22 45v216l62 23q38 14 47 26z" />
    <glyph glyph-name="Zcaron" horiz-adv-x="676" 
d="M650 633q0 64 -60 66l-459 1l-27 -1q-26 -2 -35 -18l-3 -6l-12 -95l-1 -10q0 -50 49 -50q36 0 53 27l10 16l4 6q25 31 55 34l20 2l14 1l19 2l18 1l27 1h41l14 1l-241 -333l-21 -30l-13 -19l-39 -58l-17.5 -26.5l-12.5 -19.5q-16 -25 -16 -57q0 -63 82 -67l421 -1l50 1
q49 1 57 39l16 85q1 1 1 10q0 42 -46 42q1 1 -17 1q-21 0 -43 -27l-11 -13l-4 -4q-24 -24 -61 -32q-19 -4 -71 -4l-61 1l-5 -1h-23q4 16 11 24l9 10l3 4l81 107.5l64 84.5l78 108q26 35 41.5 58.5l22.5 34.5q38 64 38 104zM555 873q0 42 -39 42q-16 0 -74 -29
q-56 -28 -80 -28q-22 0 -78 28q-58 29 -76 29q-39 0 -39 -42q0 -33 79 -91q79 -57 114 -57q34 0 114 57q79 58 79 91z" />
    <glyph glyph-name="zcaron" horiz-adv-x="542" 
d="M517 108q1 2 1 12q0 15 -11 26t-26 11q-28 0 -51 -35l-5 -8l-7 -9q-14 -22 -42 -23l-48 -3l-10 -1l-24 -1l12 16l2 4l4 5q23 36 31 46q11 16 25 33.5l30 37.5l33 40q45 54 60 77q27 40 27 80q-4 30 -18.5 38t-49.5 8h-353q-24 0 -31 -7q-14 -8 -17 -28l-12 -71
q-3 -8 6 -22q11 -18 33 -22q13 -3 21 0q17 5 23 15l2 5l16 24q12 18 23 24t35 7l19 1h17l12 1h13l-6 -6l-61 -79l-68.5 -82.5t-42.5 -48.5q-61 -76 -61 -105q0 -10 -1 -13q0 -48 47 -54l388 -1l15 2q24 4 30 18l5 10zM476 684q0 42 -39 42q-16 0 -74 -29q-56 -28 -80 -28
q-22 0 -78 28q-58 29 -76 29q-39 0 -39 -42q0 -33 79 -91q79 -57 114 -57q34 0 114 57q79 58 79 91z" />
    <glyph glyph-name="space" unicode=" " horiz-adv-x="360" 
 />
    <glyph glyph-name="exclam" unicode="!" horiz-adv-x="342" 
d="M318 605q9 37 9 57q0 30 -34 51.5t-113 21.5q-57 0 -85 -9q-34 -10 -43 -21q-17 -17 -17 -62l81 -366l3 -11q3 -13 6 -21t8 -12.5t12.5 -6.5t19.5 -3h16l15 2q29 5 34 14zM186 -12q46 0 83 23q41 27 41 72q0 35 -24 61q-37 38 -100 41q-44 2 -86 -27q-48 -31 -46 -82
q2 -39 38 -63.5t94 -24.5z" />
    <glyph glyph-name="quotedbl" unicode="&#x22;" horiz-adv-x="414" 
d="M386 700h-140l-21 -245h140zM190 700h-140l-22 -245h140z" />
    <glyph glyph-name="numbersign" unicode="#" horiz-adv-x="570" 
d="M542 504h-112l42 196h-70l-42 -196h-84l41 196h-70l-41 -196h-113l-14 -70h112l-35 -168h-113l-15 -70h112l-42 -196h70l42 196h85l-42 -196h70l42 196h111l15 70h-112l36 168h112zM345 434l-36 -168h-83l35 168h84z" />
    <glyph glyph-name="dollar" unicode="$" horiz-adv-x="738" 
d="M687 196q10 39 10 71q0 75 -36 114q-32 36 -106 56l-165 44v139q17 5 31 5q38 0 58 -17q39 -33 49 -59q21 -52 31 -59q16 -13 42 -13q49 0 49 66q0 10 -1 14l-2 22.5l-2 22.5q-5 33 -10 41q-4 9 -29 20q-12 5 -41 15q-110 35 -175 35v71h-35v-70h-14q-8 0 -21 -1t-17 -1
q-96 -14 -169 -68q-42 -30 -67 -78t-25 -99q0 -115 113 -177q57 -31 117 -43l81 -16v-148h-28q-76 0 -113 37q-7 5 -28 35q-20 31 -36 47q-24 24 -55 24t-49.5 -20.5t-18.5 -55.5q0 -74 106 -120q99 -41 177 -41q2 0 12 -1t15 -1h17v-89h35v89l37 6q107 16 177 71
q67 53 86 132zM355 492l-10 3l-7 2q-35 17 -35 56q0 33 34 52l11 6l7 2v-121zM423 210q27 -20 27 -53q0 -18 -13 -31l-5 -4l-5 -5l-16 -12l-23 -12v132l15 -5l7 -3l8 -4z" />
    <glyph glyph-name="percent" unicode="%" 
d="M787 668q5 8 5 12q0 17 -10 18q-20 6 -29 6q-4 0 -23 -3l-47.5 -7.5l-15.5 -2.5l-20 -15q-6 -6 -31 -15q-60 -20 -76 -20q-51 0 -162 34q-89 42 -150 42q-69 0 -125 -44q-74 -59 -74 -152q0 -60 36 -105q38 -44 83 -57q57 -16 97 -16q82 0 140 43q20 15 33.5 29t22 30
t12 34.5t3.5 42.5q0 26 -6 40l-5 12l17 -3q34 -6 58 -6q28 0 48 5.5t19 5.5l-465 -545q-5 -8 -5 -12q0 -17 22 -18q3 -1 19 -1q56 0 64 8l552 647zM871 167q0 92 -71 139q-62 41 -158 41q-82 0 -142 -51q-64 -54 -64 -135q0 -83 70 -132q62 -44 147 -44q87 0 149 46
q69 52 69 136zM294 535q0 -27 -0.5 -43.5t-1.5 -23.5q-8 -45 -35 -45q-49 0 -49 100v19q0 98 43 94q27 -3 36 -29q7 -18 7 -72zM693 170q0 -27 -0.5 -43.5t-1.5 -23.5q-8 -45 -35 -45q-48 0 -48 100v22q0 91 45 91q28 0 36 -39q4 -16 4 -62z" />
    <glyph glyph-name="ampersand" unicode="&#x26;" horiz-adv-x="858" 
d="M844 74q0 32 -20 41q-11 7 -21 3q-26 -9 -43 -9q-43 0 -80 33l-22 19l28 35q17 21 32.5 43t29.5 45l21 34q11 12 30 20q29 10 34 36q0 44 -28 44h-176l-23 1q-31 -7 -27 -44l2 -9q7 -15 24 -22q19 -7 19 -10q9 -8 9 -21q0 -34 -31 -69l-7 -6l-5 -5l-129 166l13 5l3 2
l59 23q88 49 88 144q0 58 -50 99q-65 53 -192 53h-6t-10 -1l-70 -6q-70 -6 -121 -60q-51 -53 -51 -123v-11q0 -7 3 -32q2 -14 11.5 -34.5t26.5 -46.5l14 -21l-12 -5l-9 -4l-24 -14q-82 -48 -108 -104q-11 -24 -13 -80q-2 -153 186 -182l52 -7q146 0 216 41l18 11l19 -11
q47 -28 82 -34q14 -2 37.5 -3t58.5 -1q43 0 85 16l20 8q57 22 57 53zM443 556q0 -18 -18 -43l-19 -19l-9 -8l-4 -4l-8 13l-3 4l-14 14q-14 16 -18 30l-3 10q-3 15 -3 26q0 53 46 53q54 0 54 -64q0 -9 -1 -12zM402 115l-5 -5l-6 -4q-22 -14 -55 -14q-55 0 -88 30t-33 85v13
q4 23 8.5 46t22.5 41z" />
    <glyph glyph-name="quotesingle" unicode="'" horiz-adv-x="218" 
d="M190 700h-140l-22 -245h140z" />
    <glyph glyph-name="parenleft" unicode="(" horiz-adv-x="393" 
d="M368 -85l-5 14q-14 27 -25 52t-19 48q-20 59 -39 148q-21 99 -21 149q0 25 7 70t21 111t33.5 120t42.5 98l5 15q4 11 4 15q-1 19 -16 28.5t-27 5.5q-8 0 -18.5 -1t-24.5 -3q-39 -6 -83 -57q-14 -15 -60 -84q-108 -159 -108 -317q0 -88 24 -158q10 -29 28.5 -64.5
t44.5 -78.5t50 -74t46 -51q38 -35 95 -35q27 0 35 4q14 8 14 30q0 6 -4 15z" />
    <glyph glyph-name="parenright" unicode=")" horiz-adv-x="393" 
d="M358 327q0 156 -109 317q-28 42 -49 69.5t-37 41.5q-35 34 -97 34q-14 3 -28 -5q-15 -10 -17 -30q0 -4 0.5 -7t1.5 -7l7 -15q16 -34 26.5 -58.5t16.5 -41.5q10 -28 20 -65t20 -84q21 -101 21 -150q0 -59 -27 -174q-25 -109 -77 -223l-9 -20q-7 -43 50 -43q55 0 93 35
q15 14 36.5 41t49.5 69q108 159 108 316z" />
    <glyph glyph-name="asterisk" unicode="*" horiz-adv-x="377" 
d="M354 501l-10 19q-12 16 -22 16q-22 0 -42 1.5t-37 5.5l-19 4l18 6q29 2 47.5 3.5t25.5 3.5q15 4 26.5 18t11.5 33q0 34 -32 43l-11 3q-3 1 -12 1q-30 0 -43 -16l-39 -49l-2 -2l-9 -10q31 25 31 69q0 9 -2 19q-6 43 -46 44q-18 1 -32 -13q-15 -29 -17 -40q0 -15 24 -63
l8 -16l-11 12l-39 49q-23 17 -39 17l-8 -1.5l-24 -4.5q-27 -5 -27 -42q0 -15 9 -30l5 -6q11 -11 17 -13q35 0 80 -9l6 -2l13 -4l-20 -4q-62 0 -72 -2q-12 -3 -25 -16q-17 -17 -15 -35q2 -50 54 -50q32 0 85 63l14 17l-6 -18q-31 -69 -31 -79v-6q2 -5 3 -20q3 -15 37 -19h19
q41 9 45 31q2 13 -7 33q-7 15 -13 30t-13 30l-2 5l-4 13l14 -17q28 -35 42 -45q20 -17 45 -17t38.5 15t13.5 33q0 10 -1 12z" />
    <glyph glyph-name="plus" unicode="+" horiz-adv-x="692" 
d="M565 262v164h-134v135h-168v-135h-136v-164h136v-135h168v135h134z" />
    <glyph glyph-name="comma" unicode="," horiz-adv-x="289" 
d="M258 10q17 29 17 61q0 79 -81 106q-26 8 -48 8h-14q-5 0 -10 -1q-43 -6 -72 -31q-33 -26 -35 -67q-1 -37 35 -63q31 -22 59 -19h16l-3 -5l-3 -5l-4 -7l-7 -9l-23 -27l-27 -27q-7 -7 -7 -17q0 -25 44 -25q8 2 20 7q34 14 59 33q50 30 84 88z" />
    <glyph glyph-name="hyphen" unicode="-" horiz-adv-x="369" 
d="M341 227q15 25 15 50q0 30 -18 51.5t-48 25.5l-22 3h-168l-14 -1q-63 -5 -67 -40q-2 -14 -3 -23.5t-1 -14.5q0 -49 31 -71q17 -17 42 -17h174q57 0 79 37z" />
    <glyph glyph-name="period" unicode="." horiz-adv-x="300" 
d="M158 -12q46 0 83 23q40 27 40 72q0 35 -24 61q-37 38 -100 41q-44 2 -85 -27q-48 -31 -46 -82q1 -39 37.5 -63.5t94.5 -24.5z" />
    <glyph glyph-name="slash" unicode="/" horiz-adv-x="403" 
d="M403 747q3 9 -1.5 14.5t-12.5 5.5l-21 -1h-17l-3 -1q-20 0 -27 -7t-16 -30l-293 -751l-12 -28q0 -12 2.5 -14.5t17.5 -4.5l23 -1h16q26 0 39 34l295 754z" />
    <glyph glyph-name="zero" unicode="0" horiz-adv-x="693" 
d="M672 348q0 155 -85 255q-90 109 -241 109t-241 -108q-84 -102 -84 -256q0 -155 84 -255q90 -106 241 -106t241 106q85 100 85 255zM426 280l-3 -87q-2 -61 -20 -87t-57 -26t-56.5 25t-19.5 88l-3 87v136l3 87q4 114 76 114q39 0 57 -25.5t20 -88.5l3 -87v-136z" />
    <glyph glyph-name="one" unicode="1" horiz-adv-x="528" 
d="M434 0q34 0 43 33q1 3 1 9q0 22 -24 36l-5 3q-33 11 -40 18q-7 8 -7 65v475q0 66 -88 69q-11 0 -27 -3q-5 -1 -14.5 -4t-23.5 -10q-45 -22 -109 -37l-53 -13q-56 -14 -56 -49q0 -15 8.5 -26.5t17.5 -13.5q8 -2 29 -2l10 1h11l11 -2q34 -6 34 -28v-359q0 -30 -11 -54
q-8 -17 -17 -20q-15 -1 -28 -8l-4 -2q-24 -12 -24 -37q0 -5 1 -12t5.5 -13.5t13.5 -11t24 -4.5h322z" />
    <glyph glyph-name="two" unicode="2" horiz-adv-x="664" 
d="M629 181q0 35 -47 35q-12 -1 -24 -8l-12 -8l-20 -14q-11 -8 -33 -13.5t-45 -5.5h-118l13 10l18 15l52 40l57 48q11 10 25.5 24.5l34.5 34.5q79 81 87 156q0 222 -321 222q-68 0 -131 -28q-73 -31 -99 -86q-23 -51 -23 -79q0 -21 7 -40t19.5 -33.5t29 -22.5t36.5 -8h20
q10 0 18 1q33 5 55.5 24.5t22.5 40.5q0 4 -10 25t-10 41q0 33 25 55q22 19 45 19q28 0 41 -25l4 -8l3 -7q8 -21 8 -43q0 -36 -16 -78q-26 -72 -129 -170l-35 -33q-98 -93 -119 -133q-10 -19 -12 -26q-11 -25 -11 -54q0 -49 78 -49h417q21 0 41 6q6 2 10 3.5t6.5 5t4.5 9
t5 16.5l28 109q4 15 4 32z" />
    <glyph glyph-name="three" unicode="3" horiz-adv-x="660" 
d="M621 224q-16 117 -142 150l-19 5q17 3 31 11q100 43 100 139q0 52 -39 105q-22 29 -63 47q-75 32 -175 32q-118 0 -189 -47q-30 -20 -49 -53t-19 -63q0 -50 27 -66q20 -13 73 -13h9q42 0 57 7q27 12 27 46q0 5 -1.5 11.5t-3.5 16.5l-7 26v9q7 40 46 40q33 -4 38 -51
l1 -13l1 -6q1 -4 1 -21q0 -15 -6 -52q-12 -77 -120 -77q-29 0 -41 -9.5t-12 -36.5q0 -30 35 -41q17 -3 18 -2q76 0 104 -16q33 -20 42 -71l2 -11l1 -4v-20q0 -43 -8 -72l-9 -22q-22 -43 -51 -43q-51 0 -58 45l-2 13l-1 12l-2 13l-1 10q-5 37 -12 47t-40 18l-26 3
q-110 0 -110 -78q0 -61 44 -96q22 -18 69 -35q79 -27 161 -27q27 0 58.5 2.5t67.5 7.5q59 8 104 38q52 35 71 84q20 52 20 82q0 6 -0.5 12.5t-1.5 13.5z" />
    <glyph glyph-name="four" unicode="4" horiz-adv-x="684" 
d="M645 202q1 3 1 12q0 32 -35 37l-8 1h-67l-1 368v13l-1 16q-1 18 -7.5 26t-29.5 18q-28 13 -110 10l-29 -1l-29 -3q-29 -3 -44 -24l-42 -66l-38 -60l-98 -152l-23 -40l-27.5 -49.5t-22.5 -44.5q-16 -32 -16 -60q0 -23 16 -30q11 -5 57 -10l194 -1l-2 -33q-2 -26 -11 -35
l-8 -5q-17 -3 -29 -9l-4 -2q-23 -11 -23 -37q0 -15 11 -28t32 -13h322q44 0 44 42q0 25 -23 36l-6 3q-8 2 -14.5 4l-12.5 4q-20 12 -20 40v37h68q21 0 32 21zM288 243h-162l17 32l15 24l39 67l72 114l19 34v-271z" />
    <glyph glyph-name="five" unicode="5" horiz-adv-x="648" 
d="M598 157q13 36 13 76q0 68 -41 121q-38 49 -105 75q-69 28 -148 28q-58 0 -110 -20l-7 -2l-7 -3l11 118l13 -2l5 -1l36 -3h112q68 0 102 8q64 17 89 60q14 25 15 28q8 22 8 34q0 36 -37 32l-92 -11q-6 -1 -11 -2l-10 -2h-148q-18 0 -41 2t-52 6l-43 6l-10 1h-8
q-27 0 -29 -26l-23 -315v-19q0 -36 48 -36q13 0 26 10l17 12l12 11l2 3q20 16 54 14l16 -1l5 -1q27 -5 44 -23q30 -31 34 -81l4 -37q0 -89 -33 -126q-19 -22 -45 -22q-43 0 -43 51q0 9 1 13q1 2 1 15q0 67 -82 74q-11 0 -16 1q-97 0 -97 -89q8 -72 76 -103q37 -18 62 -24
q73 -18 137 -18q10 0 31 2t54 6q68 8 127 52q60 44 83 108z" />
    <glyph glyph-name="six" unicode="6" horiz-adv-x="694" 
d="M661 200q3 22 3 38q0 90 -60 149q-42 40 -87 57q-39 13 -103 13q-56 0 -102 -24l10 34q15 52 52 92q12 13 28.5 25t34.5 21t36.5 14.5t35.5 5.5h50q37 0 48 8l11 8q13 12 13 28q0 26 -32 35q-35 14 -64 13q-2 0 -13 -0.5t-31 -1.5q-16 -1 -32 -1h-31q-27 0 -106 -22
q-121 -33 -210 -146q-87 -113 -87 -263q0 -141 88 -220q84 -75 226 -75q11 0 37 2t68 6q87 8 145 63q60 55 72 141zM408 235l-2 -43l-2 -29q-2 -18 -4 -25q-9 -54 -47 -54q-24 0 -39 25q-20 34 -16 100l1 15l1 31q2 37 10 61q4 10 6 15.5t3 7.5q21 34 44 34q13 0 22 -10
l10 -17q13 -29 13 -56v-55z" />
    <glyph glyph-name="seven" unicode="7" horiz-adv-x="587" 
d="M570 644q7 17 7 31q0 21 -40 24l-468 1q-25 -7 -33 -32l-8 -128q-2 -32 13 -42q9 -5 31 -8q16 0 37 23l11 12q14 16 31 14l243 -1l-25 -39l-5 -6q-138 -200 -188 -287q-93 -161 -90 -178q3 -20 43 -27q28 -4 77 -3q42 1 55.5 1.5t0.5 0.5h76q52 5 56 36l4 24l8 34
q11 51 23 100.5t23 100.5q15 61 30 109.5t29 85.5l42.5 108t16.5 46z" />
    <glyph glyph-name="eight" unicode="8" horiz-adv-x="692" 
d="M661 159q9 31 9 63q0 125 -140 191l16 6q35 13 63 46q29 38 29 80q0 51 -45 95q-19 17 -42.5 30t-52.5 23q-25 8 -50 12.5t-50 6.5q-10 1 -22 1h-28q-8 -1 -17 -1t-17 -1q-18 -1 -38.5 -4.5t-43.5 -8.5q-34 -8 -83 -30q-51 -21 -82 -65t-31 -93q0 -74 56 -127l40 -38
l5 -4l7 -5l-21 -9l-15 -8l-8 -4q-77 -38 -77 -131q0 -79 60 -128q52 -43 155 -65q11 -2 22 -3.5t22 -1.5q329 0 379 173zM441 528q1 -1 1 -10q0 -5 -3 -27l-2 -15l-1 -7l-3 -10l-4 -11l-12 6l-13 6q-22 12 -36.5 21l-22.5 14q-52 42 -52 75q0 21 16 36q22 22 53 22
q34 0 61 -40q13 -17 18 -60zM409 118q-19 -43 -65 -43q-19 0 -59 9q-29 6 -47 48q-14 34 -14 69q0 21 6 59l6 22l4 12l33 -20l8 -5l19 -9l30 -18l37 -25q49 -33 49 -69q0 -15 -7 -30z" />
    <glyph glyph-name="nine" unicode="9" horiz-adv-x="695" 
d="M655 316q12 55 12 102q0 180 -149 254q-84 41 -174 41q-88 0 -176 -36q-55 -23 -91 -65q-49 -56 -49 -151q0 -109 71 -166q64 -52 177 -52q57 0 104 24l-10 -34q-31 -108 -112 -138q-27 -11 -102 -18l-59 -6q-36 -9 -36 -37q0 -20 10 -27q13 -9 73 -17q23 -2 42.5 -3.5
t35.5 -1.5q126 0 260 77q65 38 112 110q44 66 61 144zM393 479q0 -51 -10 -90q-17 -62 -51 -62q-32 0 -42 36q-6 24 -6 108q0 144 54 144q37 0 49 -42q6 -21 6 -72v-22z" />
    <glyph glyph-name="colon" unicode=":" horiz-adv-x="304" 
d="M167 277q25 0 47.5 6.5t39.5 19.5t27 30.5t10 40.5q0 45 -40 75q-38 27 -84 27q-41 4 -85 -26q-48 -34 -47 -83q1 -39 37.5 -64.5t94.5 -25.5zM167 -12q49 0 83 22q41 27 41 73q0 35 -24 61q-37 38 -100 41q-44 2 -86 -27q-48 -31 -46 -82q2 -39 38 -63.5t94 -24.5z" />
    <glyph glyph-name="semicolon" unicode=";" horiz-adv-x="307" 
d="M167 277q25 0 47.5 6.5t39.5 19.5t27 30.5t10 40.5q0 45 -40 75q-38 27 -84 27q-41 4 -85 -26q-48 -34 -47 -83q1 -39 37.5 -64.5t94.5 -25.5zM277 10q18 31 18 62q0 53 -45 86q-39 30 -84 27q-11 0 -16 -1q-72 -8 -100 -52q-14 -17 -16 -46q-1 -37 35 -63q31 -22 59 -19
h17l-3 -5l-4 -5l-4 -7l-7 -9l-23 -27l-21 -22l-5 -5q-8 -8 -8 -17q0 -25 45 -25q11 2 41 18q15 8 25.5 14.5t17.5 11.5q54 43 78 84z" />
    <glyph glyph-name="less" unicode="&#x3c;" horiz-adv-x="630" 
d="M557 63v32q0 19 -9 30q-7 6 -29 17l-262 114l262 114q38 17 38 48v31q0 49 -20 49q-3 0 -38 -11l-409 -178q-17 -8 -17 -53t17 -53l409 -178q27 -11 38 -11q20 0 20 49z" />
    <glyph glyph-name="equal" unicode="=" horiz-adv-x="630" 
d="M557 354q0 40 -12 49q-11 9 -53 9h-370q-16 0 -21 -1q-28 -4 -28 -57q0 -37 10 -47.5t39 -10.5h370q42 0 53 9q12 9 12 49zM557 158q0 40 -12 49q-11 9 -53 9h-370q-16 0 -21 -1q-28 -4 -28 -57q0 -37 10 -47.5t39 -10.5h370q42 0 53 9q12 9 12 49z" />
    <glyph glyph-name="greater" unicode="&#x3e;" horiz-adv-x="630" 
d="M557 256q0 45 -17 53l-409 178q-27 11 -38 11q-20 0 -20 -49v-32q0 -20 8 -28.5t30 -18.5l262 -114l-262 -114q-38 -17 -38 -48v-31q0 -49 20 -49q11 0 38 11l409 178q17 8 17 53z" />
    <glyph glyph-name="question" unicode="?" horiz-adv-x="567" 
d="M543 566q-8 46 -43 84q-31 34 -61 50q-26 13 -75 23q-56 12 -82 12q-96 0 -174 -31q-108 -43 -100 -126q3 -35 21.5 -48.5t62.5 -16.5l15 -1l18 1q65 5 72 52l3 18q0 14 0.5 23.5t1.5 14.5q12 35 38 35q51 -8 47 -60l1 -15v-11q0 -21 -1 -26q-2 -18 -8 -34t-14 -30
q-20 -33 -34 -38l-5 -3l-10 -4q-21 -11 -35 -31l-2 -3l-1 -4l-2 -5l-1 -5v-6l-1 -9v-99l1 -6q8 -44 66 -44q61 0 69 54v22q0 25 45 43l20 8q75 31 118 66q53 44 53 114q0 16 -3 36zM247 -12q46 0 83 23q40 27 40 72q0 35 -23 61q-37 38 -100 41q-45 2 -86 -27
q-48 -31 -46 -82q1 -39 37.5 -63.5t94.5 -24.5z" />
    <glyph glyph-name="at" unicode="@" horiz-adv-x="778" 
d="M656 212q35 42 54 96t19 111q0 124 -82 209q-83 86 -205 86q-123 0 -230 -62q-77 -45 -119 -131q-38 -81 -38 -175v-20l4 -46.5t4 -42.5q11 -102 127 -180q107 -71 215 -71q175 0 270 119l23 29l-11 65q-38 -60 -89 -93q-95 -63 -188 -63q-75 0 -143 41q-68 40 -99 108
q-36 78 -36 150q0 120 69 204q49 60 88 79q31 15 111 24q9 1 15 1.5t10 0.5q105 0 173 -71q67 -70 67 -182q0 -15 -1 -18q-2 -25 -16 -65q-19 -51 -54 -88q-29 -30 -53 -30q-40 0 -37 42l3 42l11 77l35 198h-52l-7 -44q-18 55 -88 55q-80 1 -135 -84q-50 -75 -48 -152
q1 -24 2.5 -44t5.5 -36q10 -46 41 -75.5t77 -29.5q47 0 64 20q28 33 32 42l6 12l1 -12q2 -27 24.5 -45t54.5 -18q26 0 66 17q31 14 59 50zM472 463q0 -36 -4 -55l-9 -48q-6 -36 -15.5 -66t-22 -52.5t-28.5 -35t-35 -12.5q-41 0 -57 34q-12 25 -12 57q0 62 11 104
q15 57 43 94.5t70 37.5q25 0 42 -16t17 -42z" />
    <glyph glyph-name="A" unicode="A" horiz-adv-x="745" 
d="M763 25q3 7 3 16q0 22 -23 37l-3 2l-3 1q-16 7 -25 27l-7 15l-3 6l-12.5 33l-10.5 28l-38 107q-11 32 -22.5 62l-23.5 59l-25 61.5t-15 35.5q-53 124 -84 161l-9 9q-23 23 -65 23q-54 0 -76 -7q-35 -11 -60 -45q-45 -62 -94 -189l-127 -338l-2 -3l-8 -18q-9 -21 -22 -27
l-6 -3q-21 -11 -21 -37q0 -41 40 -41h155q43 0 43 41q0 23 -23 37l-5 3q-26 12 -26 43q0 19 18 70l7 20h223l8 -28q15 -53 15 -70q0 -21 -19 -31l-7 -4l-5 -3q-23 -14 -23 -36q0 -8 3 -17q12 -25 40 -25h298q30 0 40 25zM375 319h-151l7 25l8 24l7 19l9 23q25 64 47 107
q19 -36 24 -52l7 -21l12 -32l10 -26z" />
    <glyph glyph-name="B" unicode="B" horiz-adv-x="794" 
d="M759 197q0 69 -32.5 113.5t-109.5 77.5l-14 6l32 14q84 49 85 136q2 56 -50 104q-51 48 -126 51l-488 1q-42 0 -42 -41q0 -26 23 -37l3 -2l3 -1q22 -12 22 -27l2 -95q1 -27 1 -47v-34q1 -26 1.5 -37t0.5 -7l-3 -241q0 -38 -24 -50l-6 -3q-23 -11 -23 -37q0 -5 1 -12
t5.5 -13.5t12.5 -11t23 -4.5h413q182 0 242 79q48 63 48 118zM457 517q-5 -50 -45 -78l-13 -7l-8 -4l-20 -8q-36 -14 -49 -14v160l1 5q7 39 35 42l10 1l5 1h12q36 0 50 -15q24 -26 24 -58q0 -1 -0.5 -7.5t-1.5 -17.5zM489 216q-1 -30 -11.5 -51.5t-27 -35.5t-36.5 -21.5
t-40 -8.5q-30 0 -41.5 10t-11.5 40v154q61 8 119 24l4 -3l5 -4q32 -25 40 -75v-29z" />
    <glyph glyph-name="C" unicode="C" horiz-adv-x="780" 
d="M749 179q-14 36 -46 36q-23 0 -64 -41q-17 -17 -30 -27q-56 -43 -132 -43q-27 0 -52.5 9t-46.5 25.5t-36.5 38.5t-22.5 49q-20 71 -20 92v44q0 70 14 124q15 56 56 94q44 40 100 40q17 0 54 -8q13 -3 27 -11t27 -20t23 -26t16 -29l11 -30q6 -15 25 -25.5t38 -10.5
q42 0 48 33q3 10 3 26q0 8 -2 27.5t-6 49.5l-2 15l-15 23q-17 20 -94 50l-23 9q-60 23 -142 23q-30 0 -35 -1l-101 -15q-110 -17 -198 -124t-88 -220q0 -95 47 -178q49 -84 130 -131q97 -55 229 -60q145 -4 246 74q65 51 65 100q0 10 -3 18z" />
    <glyph glyph-name="D" unicode="D" horiz-adv-x="847" 
d="M808 287q2 11 2.5 20t1.5 17v33q0 136 -84 231q-44 50 -92 74q-26 13 -57.5 21.5t-69.5 12.5l-453 4q-42 0 -42 -41q0 -26 23 -37l3 -2l3 -1q16 -9 20.5 -20t2.5 -43l1 -428q0 -32 -24 -47l-6 -3q-23 -11 -23 -37q0 -5 1 -12t5.5 -13.5t12.5 -11t23 -4.5h310q29 0 50 0.5
t34 1.5q123 11 188 43q70 36 114.5 99.5t55.5 142.5zM545 355q3 -108 -51 -186q-50 -72 -120 -72l-7 -1h-4q-23 0 -35 26q-8 13 -8 112v119q0 37 3 111q3 73 3 111v10l1 4l3 9q8 14 26 14q80 0 138 -79q49 -65 50 -143z" />
    <glyph glyph-name="E" unicode="E" horiz-adv-x="705" 
d="M667 37q7 38 10.5 62.5t3.5 35.5q0 23 -10 33q-17 17 -53 17q-24 0 -40 -21l-9 -11l-9 -10q-27 -30 -62 -39q-21 -7 -74 -7q-49 0 -70 18q-18 16 -22 52v162h29l41 -1q23 -1 35 -1t14 -1q22 -5 41 -23l10 -10q17 -17 37 -17q31 0 39 14l9 18q1 1 1 20v57l1 50
q-8 38 -43 38q-22 0 -35 -11l-7 -9l-4 -5l-3 -5q-13 -22 -44 -22h-51l-26 1h-41v138q0 36 32 45l11 3l5 1h36l29 -1l14 -1q37 -3 63 -29q49 -52 73 -52q57 0 57 62q0 78 -18 95q-17 17 -96 17h-485q-42 0 -42 -41q0 -26 23 -37l3 -2l3 -1q19 -10 24 -38v-462q-4 -27 -24 -38
l-6 -3q-23 -11 -23 -37q0 -5 1 -12t5.5 -13.5t12.5 -11t23 -4.5h531q73 0 80 37z" />
    <glyph glyph-name="F" unicode="F" horiz-adv-x="612" 
d="M576 514q21 0 33 15.5t9 36.5l-7 47q-9 59 -29 73t-81 14h-445q-42 0 -42 -41q0 -26 23 -37l3 -2l3 -1q19 -10 24 -38v-462q-4 -27 -24 -38l-6 -3q-23 -11 -23 -37q0 -5 1 -12t5.5 -13.5t12.5 -11t23 -4.5h281q27 0 35 17q8 18 8 24q0 23 -23 37l-5 3q-21 10 -25 38v192
h74q17 0 27 -0.5t16.5 -2.5t10 -5.5t6.5 -9.5l4 -7l2 -3q15 -23 35 -23q6 -2 19 2q26 8 30 40l1 70q1 57 -6 73q-8 20 -42 20q-29 0 -41 -29l-2 -5l-3 -5q-8 -13 -10.5 -15t-13.5 -2h-107v159q5 33 24 40l7 2l8 2h15q74 0 100 -23l17 -15l16 -21l9 -11q22 -28 53 -28z" />
    <glyph glyph-name="G" unicode="G" horiz-adv-x="822" 
d="M787 131l-3 8l-1 4q-16 63 -16 117l2 19l6 31l5 20q3 12 3 20q0 38 -38 38h-183q-106 0 -130 -7q-33 -9 -33 -57q0 -46 58 -46q10 0 15 1h22q30 0 38 -33l1 -9l1 -7v-39q0 -85 -78 -85q-55 0 -99 56q-39 51 -46 109l-9 72v19q0 4 1 18.5t1 18.5q0 103 50 162
q47 56 127 56q42 0 71 -12q57 -24 76 -73l10 -26q13 -36 60 -36q35 0 44 56q1 8 1.5 28t0.5 53q0 26 -15 37q-21 18 -71 35l-29 10q-80 28 -199 28q-231 0 -337 -171q-50 -80 -55 -124q-2 -21 -3 -34.5t-2 -18.5v-18q0 -165 117 -267q69 -60 127 -78q32 -8 143 -19h24
q8 0 19 0.5t27 1.5q71 4 151 30q93 32 128 74l9 11q10 13 9 27z" />
    <glyph glyph-name="H" unicode="H" horiz-adv-x="831" 
d="M814 25q3 7 3 16q0 22 -23 37l-3 2l-3 1q-21 12 -24 38l-1 452l1 10q3 28 24 38l6 3q23 11 23 36q0 42 -43 42h-280q-44 0 -44 -41q0 -25 23 -37l3 -2l3 -1q22 -10 25 -38l1 -154h-178v154q5 29 25 38l5 3q23 14 23 36q0 8 -3 17q-12 25 -40 25h-281q-42 0 -42 -41
q0 -26 23 -37l3 -2l3 -1q19 -10 24 -38v-462q-4 -27 -24 -38l-6 -3q-23 -11 -23 -37q0 -5 1 -12t5.5 -13.5t12.5 -11t23 -4.5h281q27 0 35 17q8 18 8 24q0 23 -23 37l-5 3q-21 10 -25 38v210h178v-200l-1 -10q-3 -28 -25 -38l-6 -3q-23 -11 -23 -36q0 -16 11.5 -29t32.5 -13
h280q30 0 40 25z" />
    <glyph glyph-name="I" unicode="I" horiz-adv-x="394" 
d="M377 25q3 7 3 16q0 23 -23 37l-5 3q-21 10 -25 38v462q5 29 25 38l5 3q23 14 23 36q0 8 -3 17q-12 25 -40 25h-281q-42 0 -42 -41q0 -26 23 -37l3 -2l3 -1q19 -10 24 -38v-462q-4 -27 -24 -38l-6 -3q-23 -11 -23 -37q0 -5 1 -12t5.5 -13.5t12.5 -11t23 -4.5h281
q30 0 40 25z" />
    <glyph glyph-name="J" unicode="J" horiz-adv-x="620" 
d="M603 675q-10 25 -41 25h-280q-43 0 -43 -41q0 -26 23 -37l5 -3q22 -10 26 -38l1 -322v-95q0 -20 -3 -30q-4 -9 -7 -16.5t-7 -12.5q-10 -19 -36 -19q-19 0 -32.5 15t-13.5 29q0 3 2 9t4.5 12t5.5 11t6 7l5 3l8 4l3 3l5 4q23 18 23 51q0 38 -29 64q-35 30 -83 30
q-64 0 -104 -54q-36 -50 -36 -115q7 -77 54 -117q18 -16 38 -25.5t41 -15t43 -8.5l43 -6h58q269 0 269 205l1 379v10q5 29 25 38l5 3q24 13 24 37q0 8 -3 16z" />
    <glyph glyph-name="K" unicode="K" horiz-adv-x="806" 
d="M824 25q3 7 3 16q0 23 -23 37l-18 11q-11 9 -15 19l-5 8l-10 17q-8 14 -16 26.5l-15 22.5l-50.5 72t-28.5 38l-104 130l43 40.5t36 37.5l64 70l5 6l15 13l4 3l17 19l13 8l6 3q23 11 23 37q0 14 -10 27q-14 14 -34 14h-178q-43 0 -43 -41q0 -26 23 -37l3 -2l3 -1l5 -3
q18 -11 18 -24q0 -32 -107 -116q-35 -27 -65.5 -46.5t-56.5 -32.5v174l1 10q3 28 24 38l6 3q23 11 23 36q0 8 -3 17q-12 25 -40 25h-281q-42 0 -42 -41q0 -26 23 -37l3 -2l3 -1q18 -8 23 -32q1 -5 1 -41v-427q-4 -27 -24 -38l-6 -3q-23 -11 -23 -37q0 -5 1 -12t5.5 -13.5
t12.5 -11t23 -4.5h281q27 0 35 17q8 18 8 24q0 23 -23 37l-5 3q-21 10 -25 38l-1 173l25 11q45 -54 55 -75l39 -62q39 -50 39 -63q0 -12 -22 -22l-6 -3q-23 -11 -23 -37q0 -15 11 -28t32 -13h309q29 0 39 25z" />
    <glyph glyph-name="L" unicode="L" horiz-adv-x="598" 
d="M584 94q15 49 15 69q0 38 -43 48q-11 3 -19 0q-25 -4 -33 -20l-16 -25l-11 -15q-45 -62 -74 -62q-53 0 -64 7q-11 8 -11 35l-1 450q5 29 25 38l5 3q23 14 23 36q0 8 -3 17q-12 25 -40 25h-281q-42 0 -42 -41q0 -26 23 -37l3 -2l3 -1q20 -11 24 -37v-464q-4 -26 -24 -37
l-6 -3q-23 -11 -23 -37q0 -5 1 -12t5.5 -13.5t12.5 -11t23 -4.5h445l15 1q23 2 33 11t20 33z" />
    <glyph glyph-name="M" unicode="M" horiz-adv-x="941" 
d="M931 25q3 7 3 16q0 22 -23 37l-3 2l-3 1q-23 12 -24 48l-22 442v9q5 29 26 39l6 3q23 11 23 36q0 16 -11.5 29t-32.5 13h-218q-51 0 -64 -39l-108 -320l-106 311q-10 29 -23 38.5t-44 9.5h-236q-43 0 -43 -41q0 -26 23 -37l2 -2l3 -1q22 -10 25 -38l-14 -452
q-2 -38 -24 -48l-6 -3q-23 -11 -23 -37q0 -5 1 -12t5.5 -13.5t12.5 -11t23 -4.5h118q27 0 35 17q8 18 8 24q0 25 -24 37l-4 3q-22 11 -26 39l14 322l120 -298l6 -15q7 -18 18 -33q19 -21 25 -25q20 -16 50 -16q60 0 80 35l140 369l12 -330v-10q-4 -27 -24 -38l-6 -3
q-24 -12 -24 -37q0 -5 1 -12t5.5 -13.5t13.5 -11t24 -4.5h273q30 0 40 25z" />
    <glyph glyph-name="N" unicode="N" horiz-adv-x="730" 
d="M713 675q-10 25 -40 25h-130q-42 0 -42 -41q0 -26 23 -37l5 -3q22 -13 25 -38v-238l-57 74l-85.5 112l-53.5 72l-21 30l-21 31q-32 38 -58 38h-202q-42 0 -42 -41q0 -26 23 -37l3 -2l3 -1q19 -10 24 -38v-464q-5 -26 -24 -36l-6 -3q-23 -11 -23 -37q0 -41 42 -41h123
q43 0 43 41q0 23 -24 37l-5 3q-17 8 -23 27l-2 332l262 -353q50 -66 65 -77q22 -14 75 -14q45 0 65 12q9 6 17 16q10 13 10 48v499l1 10q3 28 24 38l6 3q23 11 23 36q0 9 -3 17z" />
    <glyph glyph-name="O" unicode="O" 
d="M787 140q77 101 77 209q0 107 -84 220q-61 81 -148 116q-76 29 -187 29q-93 0 -180 -35q-94 -39 -145 -109q-85 -115 -85 -220q0 -56 19 -106q31 -85 95 -153q71 -74 152 -88q55 -8 92.5 -12t59.5 -4q215 0 334 153zM584 325q0 -74 -15 -120q-40 -124 -120 -124
q-45 0 -75 39q-55 71 -59 205l-1 26l1 26q3 87 14 120q41 122 120 122q44 0 75 -40q60 -78 60 -202v-52z" />
    <glyph glyph-name="P" unicode="P" horiz-adv-x="715" 
d="M708 490q0 102 -69 158q-64 52 -169 52h-414q-42 0 -42 -41q0 -26 23 -37l3 -2l3 -1q19 -10 24 -38v-462q-4 -27 -24 -38l-6 -3q-23 -11 -23 -37q0 -5 1 -12t5.5 -13.5t12.5 -11t23 -4.5h281q27 0 35 17q8 18 8 24q0 23 -23 37l-5 3q-21 10 -25 38v142h16q117 16 164 30
q91 25 139 65q62 51 62 134zM442 502q-5 -82 -44 -105q-23 -14 -35.5 -21t-14.5 -8q-6 -1 -17 -6h-4l-7 -1l1 208v18q0 27 31 27q32 0 58 -25q34 -31 32 -87z" />
    <glyph glyph-name="Q" unicode="Q" horiz-adv-x="887" 
d="M852 351q0 160 -115 263t-291 103q-107 0 -200 -45q-98 -47 -152 -131q-59 -88 -59 -191q0 -83 44 -173q45 -92 126 -141q85 -53 192 -51l57 1l18 -17q52 -49 90 -68q33 -17 64 -22q61 -9 89 -9q66 0 93 20.5t27 65.5q0 58 -75 58q-5 0 -14.5 -1t-23.5 -3l-21 -3
q-21 -3 -37 -3q-36 0 -58 16q112 40 178 126q68 91 68 205zM581 288l-1 -26l-3 -35q-9 -104 -63 -126q-14 29 -18 64l1 27q2 59 -46 59q-69 0 -63 -84l1 -13l2 -12l12 -49q-71 27 -87 150q-4 29 -5.5 48.5t-2.5 29.5v38q0 123 21 179q30 80 111 80q70 0 100 -56
q13 -24 28 -79q13 -46 13 -165v-30z" />
    <glyph glyph-name="R" unicode="R" horiz-adv-x="790" 
d="M798 38q0 31 -32 43l-4 1l-6 3q-16 6 -26 28l-15 33l-7 14q-32 66 -55 107.5t-37 60.5l-5 7l-7 9l16 10q63 40 91 78t28 89q0 19 -9 60q-11 45 -53 76q-48 36 -129 41l-492 2q-42 0 -42 -41q0 -26 23 -37l3 -2l3 -1q19 -10 24 -38v-462q-4 -27 -24 -38l-6 -3
q-23 -11 -23 -37q0 -5 1 -12t5.5 -13.5t12.5 -11t23 -4.5h281q27 0 35 17q8 18 8 24q0 23 -23 37l-5 3q-21 10 -25 38v169q8 -1 16 -0.5t16 2.5l9 2l19 -37l44 -94q27 -45 27 -58q0 -12 -21 -22l-6 -3q-24 -12 -24 -36q0 -42 44 -42l306 1q41 0 41 37zM469 534q0 -2 1 -12.5
t1 -15.5q0 -29 -8 -48q-25 -73 -121 -73h-21v169l3 16q10 30 43 40l17 2q15 0 26 -4q47 -11 59 -74z" />
    <glyph glyph-name="S" unicode="S" horiz-adv-x="720" 
d="M681 196q10 37 10 71q0 72 -30 110.5t-99 55.5q-2 1 -5.5 2t-8.5 2l-148 43l-6 2l-15 3l-20 5q-67 16 -67 66q0 32 27 51.5t78 19.5q65 0 88 -27q33 -39 38 -55q15 -43 30.5 -55.5t40.5 -12.5q49 0 49 70v13q0 4 -1 13.5t-3 25.5t-4 26t-6 17t-11 11t-17 9q-20 8 -44 16
t-53 15q-36 9 -60 13.5t-36 5.5q-5 1 -18 1.5t-33 0.5q-136 0 -224 -66q-98 -72 -98 -180q0 -103 88 -163q39 -26 74 -39q10 -4 20 -7t20 -7q7 -2 13.5 -3t14.5 -2l105 -20q74 -14 68 -70q0 -32 -50 -58l-12 -6q-27 -9 -62 -9q-73 0 -109 36q-9 7 -14 16l-31 42.5t-19 23.5
q-24 24 -55 24t-49.5 -20.5t-18.5 -55.5q0 -72 100 -117q43 -19 74 -27q79 -18 149 -18q115 0 207 48q106 57 133 160z" />
    <glyph glyph-name="T" unicode="T" horiz-adv-x="666" 
d="M655 620l-11 49l-3 8q-14 23 -37 23h-542q-23 0 -37 -23l-4 -9l-10 -48q-11 -55 -11 -58q0 -20 16 -36t42 -12q31 4 52 44q7 13 14 21.5t15.5 14.5t20 9t28.5 6h16v-480l-1 -10q-3 -28 -24 -38l-6 -3q-23 -11 -23 -36q0 -10 4 -17q7 -25 39 -25h280q44 0 44 41
q0 25 -23 37l-3 2l-3 1q-21 10 -24 38l-1 490h17q34 -5 49 -15t27 -35q19 -40 52 -45q24 -4 43 13q15 15 15 34q0 5 -3 19.5z" />
    <glyph glyph-name="U" unicode="U" horiz-adv-x="758" 
d="M734 675q-10 25 -40 25h-134q-43 0 -43 -41q0 -26 23 -37l2 -2l3 -1q22 -11 23 -30l3 -30l6 -106l3 -64q1 -20 1.5 -60.5t0.5 -103.5q0 -18 -1 -20q-3 -55 -22 -77q-34 -43 -115 -43q-36 0 -70 22q-30 21 -44 44q-23 40 -23 98q0 9 0.5 27t1.5 44l5 114q2 57 3.5 93
t2.5 53q6 29 28 39l6 3q23 11 23 37q0 41 -44 41h-269q-43 0 -43 -41q0 -27 24 -37l3 -2l3 -1q16 -9 21 -22t3 -47l-7 -120l-5 -112q-8 -164 57 -243q58 -69 141 -77l81 -7.5t24 -2.5h57q165 0 218 80q55 85 55 253q0 15 -0.5 30.5t-1.5 31.5l-10 152q-1 9 -1 16v15
q0 39 26 53l5 3q23 14 23 37q0 8 -3 16z" />
    <glyph glyph-name="V" unicode="V" horiz-adv-x="728" 
d="M747 675q-10 25 -40 25h-138q-43 0 -43 -41q0 -23 23 -37l5 -3q21 -9 26 -39q2 -15 -19 -119q-33 -163 -119 -290q-29 54 -54 108t-46 111l-31 84l-14.5 41.5t-11.5 38.5q-4 13 -4 26q0 27 24 39l6 3q23 11 23 36q0 42 -43 42h-270q-40 0 -40 -41q0 -27 21 -37l3 -2l3 -1
q17 -10 22 -27l42 -141l10 -31.5l10 -31.5q21 -65 48 -129t59 -129q46 -92 86 -118q15 -9 53 -12q20 -2 36 -3t29 -1q34 0 49 6q18 7 34 34l20 33q46 91 69 144q28 63 49 121.5t37 115.5l15 54l10 44l6 23l1 5l6 16q5 17 22 27l5 3q24 13 24 37q0 8 -3 16z" />
    <glyph glyph-name="W" unicode="W" horiz-adv-x="1042" 
d="M1038 675q-10 25 -40 25h-129q-43 0 -43 -41q0 -26 23 -37l3 -2l3 -1q22 -10 22 -33q0 -5 -3 -30l-11 -92q-17 -134 -79 -256l-4 11l-12 26q-11 26 -18.5 45.5l-11.5 30.5q-7 20 -15 51t-17 76q-18 88 -18 126q0 34 24 45l5 3q23 14 23 36q0 8 -3 17q-12 25 -40 25h-264
q-44 0 -44 -41q0 -25 23 -37l3 -2l3 -1q15 -8 19 -17.5t6 -39.5l6 -98q3 -49 -34 -184l-11 -41l-3 -15l-5 -16l-7 29l-21 71l-12 42l-35 144l-5.5 25.5l-4.5 20.5q-6 27 -6 45q0 23 23 34l5 3q24 13 24 36q0 16 -11.5 29t-32.5 13h-270q-43 0 -43 -41q0 -26 23 -37l3 -2
l3 -1q17 -9 23 -27l55 -242l26 -107l13.5 -50.5t13.5 -47.5q32 -100 77 -130q28 -19 91 -19q48 0 74.5 19t45.5 64l7 17l7 19q8 21 12 33l5 15l14 53l10 41l4 22l19 -63l34 -95l16 -40q21 -52 65 -72q6 -2 62 -12h30q66 0 86 33l12 20q25 43 54 114q23 59 44 135t38 170
l17 90l5 23l2 10q5 18 22 27l6 3q23 11 23 36q0 10 -4 17z" />
    <glyph glyph-name="X" unicode="X" horiz-adv-x="762" 
d="M773 25q3 7 3 16q0 23 -23 37l-5 3q-8 2 -13 8q-1 1 -14 19l-39 56l-31 43l-79 106.5t-55 68.5l48 64l47 68l36 49l17 25l4 4l13 19l5 2l10 6l4 3l11 7l3 3q9 9 9 26q0 42 -42 42h-160q-43 0 -43 -41q0 -26 23 -37l5 -3q23 -14 23 -26q0 -9 -4 -16l-6 -12l-17 -30
l-10 -16l-18 -24l-17 -24l-5 -7l-20 31l-13 17l-15 21l-9 14l-12 18q-17 26 -17 32q0 8 16 18l6 4l6 3q23 11 23 36q0 16 -11.5 29t-32.5 13h-311q-44 0 -44 -41q0 -25 24 -37l6 -3q16 -10 25 -27l7 -10l8 -14q28 -49 61 -97t71 -96l28 -35l-57 -62l-43.5 -55.5t-25.5 -32.5
l-45 -57l-20 -25q-16 -21 -29 -27l-6 -3q-23 -11 -23 -37q0 -41 43 -41h178q43 0 43 41q0 22 -23 37l-3 2l-3 1q-22 13 -22 29q0 11 8 30l29 41l23 31l39 50l22 -30l7 -9l34 -49l8 -10l12 -16l9 -13q10 -13 10 -26q0 -18 -22 -28l-5 -3q-23 -14 -23 -36q0 -42 42 -42h327
q30 0 40 25z" />
    <glyph glyph-name="Y" unicode="Y" horiz-adv-x="707" 
d="M731 675q-10 25 -40 25h-141q-43 0 -43 -41q0 -27 24 -37l5 -3q22 -11 23 -27q1 -10 -22 -57l-40 -77q-7 -14 -24 -36.5l-43 -54.5q-37 43 -61 88l-48 90q-9 16 -15 41l-1 6q0 14 16 23l7 4l4 3q24 12 24 37q0 41 -43 41h-298q-17 0 -29 -11.5t-12 -29.5q0 -26 23 -37
l4 -3q18 -17 24 -27l13 -20l14 -31l13 -26q37 -75 87 -142l46 -60t27 -32v-153l-1 -9q-3 -29 -25 -38l-5 -3q-23 -14 -23 -36q0 -16 11 -29t32 -13h280q44 0 44 41q0 25 -24 37l-3 2l-3 1q-19 10 -24 38v162l33.5 42l25.5 33q61 85 102 162l37 70l2 4q9 17 18 23l5 4l6 3
q22 10 22 36q0 10 -4 17z" />
    <glyph glyph-name="Z" unicode="Z" horiz-adv-x="676" 
d="M650 633q0 64 -60 66l-459 1l-27 -1q-26 -2 -35 -18l-3 -6l-12 -95l-1 -10q0 -50 49 -50q36 0 53 27l10 16l4 6q25 31 55 34l20 2l14 1l19 2l18 1l27 1h41l14 1l-241 -333l-21 -30l-13 -19l-39 -58l-17.5 -26.5l-12.5 -19.5q-16 -25 -16 -57q0 -63 82 -67l421 -1l50 1
q49 1 57 39l16 85q1 1 1 10q0 42 -46 42q1 1 -17 1q-21 0 -43 -27l-11 -13l-4 -4q-24 -24 -61 -32q-19 -4 -71 -4l-61 1l-5 -1h-23q4 16 11 24l9 10l3 4l81 107.5l64 84.5l78 108q26 35 41.5 58.5l22.5 34.5q38 64 38 104z" />
    <glyph glyph-name="bracketleft" unicode="[" horiz-adv-x="380" 
d="M358 730q0 39 -4 46q-7 13 -37 13h-141q44 0 -53 3q-27 0 -40 -10t-13 -42v-841q2 -7 7 -16q3 -6 6 -9t8.5 -4.5t13.5 -1.5h24h201q19 0 27 18v48q-4 10 -19 14l-6 1h-48l1 731v29h35q38 0 38 21z" />
    <glyph glyph-name="backslash" unicode="\" horiz-adv-x="396" 
d="M302 109l-6 353v105l-4 22q0 7 -1 10q0 23 11 17q5 -2 6 -8l1 -4l1 -6l2 -4q8 -23 44 -23q15 0 33.5 5t30.5 29q10 16 10 36q0 28 -25 50q-26 23 -53 27q-25 4 -40.5 6t-22.5 2q-116 0 -170.5 -59.5t-54.5 -186.5v-361l-1 -10q-1 -24 -22 -35l-5 -2q-22 -13 -22 -34
q0 -38 40 -38h258q40 0 40 37q0 18 -16 31l-5 4l-5 2q-19 10 -24 35z" />
    <glyph glyph-name="bracketright" unicode="]" horiz-adv-x="380" 
d="M310 -83v840q-2 7 -5 11.5t-5 8.5q-8 12 -104 12h-145q-7 0 -19 -3q-11 -8 -9 -15v-23l-1 -25q3 -9 20 -14l7 -1h47l-1 -730v-30h-36q-37 0 -37 -22q0 -40 6 -49t35 -9h140q82 0 95 5q12 4 12 44z" />
    <glyph glyph-name="asciicircum" unicode="^" horiz-adv-x="630" 
d="M557 186q0 3 -11 38l-178 409q-8 17 -53 17t-53 -17l-178 -409q-11 -27 -11 -38q0 -20 49 -20h32q19 0 30 9q6 6 17 29l114 262l114 -262q17 -38 48 -38h31q49 0 49 20z" />
    <glyph glyph-name="underscore" unicode="_" horiz-adv-x="500" 
d="M525 -91q0 16 -1.5 25t-7 13.5t-15.5 5.5t-26 1h-462q-23 0 -29.5 -9t-6.5 -36t6.5 -36t29.5 -9h462q34 0 42 5t8 40z" />
    <glyph glyph-name="grave" unicode="`" horiz-adv-x="408" 
d="M338 573q0 23 -48 58q-47 35 -47 48t-24.5 21.5t-59.5 8.5q-89 0 -89 -56q0 -37 87 -79q81 -38 127 -38q54 0 54 37z" />
    <glyph glyph-name="a" unicode="a" horiz-adv-x="621" 
d="M605 23q2 8 2 13q0 21 -15 32l-6 4l-6 2q-23 12 -24 54q1 -11 1 5v60v113q0 101 -84 142q-39 19 -71 23q-20 3 -43 4t-48 0l-68 -3l-26 -3q-35 -4 -61.5 -9.5t-43.5 -12.5q-57 -23 -57 -73t48 -60l15 -3q5 -1 10.5 -1.5t10.5 -0.5q41 0 70 30l12 13l21 21l8 7q14 8 26 8
q38 0 47 -46l2 -25l-1 -10l-56 -4l-22 -2l-34 -4q-20 -2 -39 -6.5t-39 -10.5q-121 -37 -121 -141q0 -66 40 -99q67 -53 133 -53q56 0 92 13l4 2l16 9q27 16 35 25l3 -6l6 -9l4 -5l2 -3q13 -13 40 -13h180q26 0 37 23zM325 145l-1 -4l-1 -8q-6 -15 -16 -25q-17 -19 -33 -20
q-52 -7 -52 51q0 48 28 67q11 8 18.5 12l9.5 5l43 8h4v-86z" />
    <glyph glyph-name="b" unicode="b" horiz-adv-x="694" 
d="M649 167q12 42 12 80q0 101 -67 165t-169 64q-57 0 -105 -20l-14 -6l-6 -3l-5 -2v201q0 27 -1 30q-9 46 -42 46q-8 0 -11 -1l-201 -51q-34 -12 -34 -39q0 -18 15 -30l7 -4l5 -3q19 -12 22 -35l1 -371q0 -125 96 -170q64 -30 209 -30q103 0 177 40q86 48 111 139zM418 241
q-1 -40 -2 -62.5t-2 -27.5q-8 -34 -15 -47q-17 -26 -48 -27q-21 -1 -35 13q-18 20 -21 71l-2 39q-2 41 -1 74.5t5 59.5q8 47 51 47q21 0 39 -22.5t23 -50.5q4 -25 6 -41.5t2 -25.5z" />
    <glyph glyph-name="c" unicode="c" horiz-adv-x="572" 
d="M548 110q0 46 -44 46q-9 0 -27 -8l-37 -26l-6 -4q-5 -3 -7.5 -5t-4.5 -3q-23 -16 -58 -16q-37 0 -65 23t-32 59l-5 47q0 17 1 32.5t3 29.5l2 14l4 17q6 27 15 40q21 26 41 26q19 0 46 -36l6 -8l8 -10q30 -37 72 -37l5.5 0.5l16.5 1.5l19 4q41 15 41 58t-47 72
q-79 49 -183 49q-167 0 -244 -101q-47 -62 -47 -154q0 -117 79 -178q74 -56 192 -56q84 0 157 29q45 18 72 44.5t27 49.5z" />
    <glyph glyph-name="d" unicode="d" horiz-adv-x="692" 
d="M646 0q39 0 39 38q0 18 -14 30l-7 4l-5 2q-23 15 -23 45v527q0 33 -10 57q-7 19 -32 19q-8 0 -11 -1l-202 -51q-33 -8 -33 -39q0 -20 16 -30l5 -4l3 -2l3 -1q19 -11 23 -34v-118q-39 30 -109 31q-98 3 -177 -76q-80 -80 -77 -174q3 -87 50 -148q67 -85 185 -85
q73 0 132 42l11 8l8 7l4 -9l2 -5l5 -14q10 -15 34 -18zM404 265q0 -75 -7 -103q-18 -77 -55 -77q-26 0 -44 28q-14 31 -17 90l-1 20v21q0 29 4 53.5t7 35.5q20 50 54 50q59 0 59 -118z" />
    <glyph glyph-name="e" unicode="e" horiz-adv-x="602" 
d="M573 320q0 78 -110 128q-68 31 -138 31q-103 0 -209 -73q-97 -66 -97 -187q0 -113 94 -177q82 -54 200 -54q49 0 117 16q82 19 104 46q39 48 39 75t-33 32q-22 0 -36 -8q-92 -62 -141 -62q-89 0 -89 73v14q0 2 103 14q109 14 122 21q74 42 74 111zM364 348q0 -48 -28 -70
q-24 -17 -74 -26q-1 7 -1.5 14t-0.5 15q0 35 9 64q13 40 56 40q39 0 39 -37z" />
    <glyph glyph-name="f" unicode="f" horiz-adv-x="396" 
d="M420 605q10 16 10 36q0 28 -25 50q-26 23 -53 27q-25 4 -40.5 6t-22.5 2q-116 0 -170.5 -59.5t-54.5 -186.5v-18h-20q-35 0 -43 -41q-3 -25 8.5 -41t37.5 -16h17v-245l-1 -10q-1 -24 -22 -35l-5 -2q-22 -13 -22 -34q0 -38 40 -38h258q40 0 40 37q0 18 -16 31l-5 4l-5 2
q-19 10 -24 35v255l44 1q7 0 22 5q28 15 28 41q0 51 -52 51h-48v105l-4 22q0 7 -1 10q0 23 11 17q5 -2 6 -8l1 -4l1 -6l2 -4q8 -23 44 -23q15 0 33.5 5t30.5 29z" />
    <glyph glyph-name="g" unicode="g" horiz-adv-x="666" 
d="M646 395q7 10 7 24q0 46 -75 48l-80 1q-58 2 -77 3q-89 3 -121 3q-14 0 -71 -6t-113 -46q-61 -43 -73 -95q-7 -28 -10 -49.5t-3 -36.5q0 -103 75 -161q67 -52 175 -52q60 0 91 7q23 0 37.5 -16.5t14.5 -37.5q0 -59 -86 -61q-43 -1 -61 13q-9 8 -6 20q10 13 10 23
q0 30 -99 30q-40 0 -67 -7q-76 -22 -76 -78q0 -34 28 -55q64 -49 189 -49q159 0 229 16q153 34 153 139q0 61 -33 78q-58 31 -80 33q96 46 96 164q0 14 -1 26.5t-3 23.5t-9 29t-20 41h12q33 4 47 28zM390 249q0 -64 -5 -89q-12 -55 -55 -55q-41 0 -55 53q-6 25 -6 88v24
q0 124 58 124q43 0 57 -54q6 -27 6 -91z" />
    <glyph glyph-name="h" unicode="h" horiz-adv-x="680" 
d="M633 0q40 0 40 38q0 18 -15 30l-7 4l-4 2q-8 4 -12.5 8.5t-7 12t-3.5 19.5t-1 32v142q0 91 -52.5 140.5t-149.5 49.5q-66 0 -117 -36l-10 -7v211q0 32 -1 37q-1 10 -11 23q-12 16 -31 16q-7 0 -10 -1l-201 -51q-34 -12 -34 -39q0 -18 15 -30l7 -4l5 -3q21 -13 22 -34
l1 -441l-1 -10q-1 -24 -22 -35l-5 -2q-21 -14 -21 -34q0 -9 7 -22q9 -16 22 -16h258q40 0 40 37q0 26 -22 35l-5 2q-12 7 -12 45v196l1 12q5 50 39 50q50 0 50 -46v-232q0 -18 -13 -25l-5 -2q-21 -14 -21 -34q0 -13 10.5 -25.5t29.5 -12.5h247z" />
    <glyph glyph-name="i" unicode="i" horiz-adv-x="351" 
d="M178 516q48 0 83 24q41 29 41 73q0 45 -40 75q-38 27 -84 27q-41 5 -85 -27q-48 -34 -46 -81q1 -39 37.5 -65t93.5 -26zM341 23q3 7 3 14q0 20 -15 31l-6 4l-6 2q-22 12 -22 45v282q0 27 -1 30q-9 46 -42 46q-8 0 -11 -1l-201 -51q-34 -12 -34 -39q0 -18 15 -30l7 -4
l5 -3q21 -13 22 -34l1 -196l-1 -10q-1 -24 -22 -35l-5 -2q-21 -14 -21 -34q0 -13 10.5 -25.5t29.5 -12.5h257q26 0 37 23z" />
    <glyph glyph-name="j" unicode="j" horiz-adv-x="346" 
d="M178 516q48 0 83 24q41 29 41 73q0 45 -40 75q-38 27 -84 27q-41 5 -85 -27q-48 -34 -46 -81q1 -39 37.5 -65t93.5 -26zM297 -54v455q0 77 -41 77q-3 0 -13 -2l-201 -51q-34 -12 -34 -39q0 -18 15 -30l7 -4l5 -3q23 -14 23 -52v-351l1 -6l2 -16l-1 -9q-2 -11 -7 -12
q-16 -1 -16 22q-4 46 -72 46l-15 -2q-43 -10 -43 -57q0 -67 84 -89q51 -14 91 -14q66 0 126 23q89 35 89 114z" />
    <glyph glyph-name="k" unicode="k" horiz-adv-x="663" 
d="M637 0q40 0 40 38q0 20 -16 30l-6 4l-5 2q-12 7 -28 25l-7 8l-6 8l-29 35q-72 106 -114 150l19 14l7 6l40 27l13 12l6 5l8 4l16 12l11 8l5 3q22 10 22 32q0 39 -40 39h-172q-30 0 -37 -24q-3 -6 -3 -13q0 -21 15 -31l6 -3l3 -2l3 -1q18 -11 18 -22q-6 -18 -54 -46
q-11 -7 -25.5 -12.5t-31.5 -10.5v349q0 27 -1 30q-9 46 -42 46q-8 0 -11 -1l-201 -51q-34 -12 -34 -39q0 -18 15 -30l7 -4l5 -3q21 -13 22 -34l1 -424q0 -49 -13 -53l-8 -5q-29 -18 -29 -38q0 -40 41 -40h244q15 0 25.5 11t10.5 26q0 22 -22 35l-5 2q-4 4 -4 18l-1 7v9
l-1 11v82q0 23 11 18l4 -5l1 -3l8 -11l24 -39l6 -7l15 -24q19 -29 19 -43q0 -7 -10 -13l-5 -2q-21 -12 -21 -33q0 -39 40 -39h251z" />
    <glyph glyph-name="l" unicode="l" horiz-adv-x="351" 
d="M341 23q3 7 3 14q0 20 -15 31l-6 4l-6 2q-22 12 -22 45v527q0 76 -43 76q-8 0 -11 -1l-201 -51q-34 -12 -34 -39q0 -18 15 -30l7 -4l5 -3q21 -13 22 -34l1 -441l-1 -10q-1 -24 -22 -35l-5 -2q-21 -14 -21 -34q0 -13 10.5 -25.5t29.5 -12.5h257q26 0 37 23z" />
    <glyph glyph-name="m" unicode="m" horiz-adv-x="966" 
d="M920 0q40 0 40 38q0 18 -15 30l-7 4l-5 2q-23 15 -23 45v209q0 65 -53 107t-139 42q-85 0 -141 -59l-15 -16q-12 35 -46 51q-44 21 -102 21q-70 0 -120 -59l-11 -13l-1 24v6l-1 5l-3 9q-10 31 -38 31q-8 0 -11 -1l-189 -51q-34 -9 -34 -39q0 -18 15 -30l7 -4l5 -3
q21 -13 22 -34l1 -208l-3 -8q-4 -19 -20 -25l-5 -2q-21 -14 -21 -34q0 -13 10.5 -25.5t29.5 -12.5h241q40 0 40 37q0 15 -9 26l-3 2l-9 7l-4 2l-13 10l-1 15l-1 22v86q0 38 0.5 63t1.5 37q4 51 41 51q16 0 30 -15l6 -11q6 -11 6 -22v-191l-1 -20q-1 -21 -11 -25l-5 -2
q-22 -13 -22 -34q0 -13 10.5 -25.5t29.5 -12.5h219q40 0 40 38q0 17 -16 30l-5 4l-5 2q-10 5 -11 9l-2 222l2 13q6 40 41 40q15 0 26.5 -9.5t12.5 -21.5l4 -91v-85l-1 -24v-28l-1 -16q-3 -4 -11 -9l-7 -2q-21 -11 -21 -34q0 -38 40 -38h241z" />
    <glyph glyph-name="n" unicode="n" horiz-adv-x="682" 
d="M636 0q40 0 40 38q0 18 -15 30l-7 4l-5 2q-23 15 -23 45v51l1 12v79q0 109 -42.5 161t-136.5 52q-123 0 -173 -71v29l-1 5q-7 40 -40 40q-8 0 -11 -1l-181 -51q-33 -9 -33 -38q0 -21 15 -31l6 -4l5 -3q21 -13 22 -34l1 -196l-1 -7q-5 -31 -24 -38l-5 -2q-21 -14 -21 -34
q0 -13 10.5 -25.5t29.5 -12.5h255q36 0 36 37q0 23 -21 35l-5 2q-11 4 -12 6.5t-2 18.5l-1 199q0 69 50 69q33 0 40 -40l2 -12v-28l2 -35v-67l-1 -38l-1 -28v-10l-1 -10l-1 -16q-1 -3 -14 -9l-4 -2q-21 -11 -21 -34q0 -13 10.5 -25.5t29.5 -12.5h248z" />
    <glyph glyph-name="o" unicode="o" horiz-adv-x="624" 
d="M601 232q0 101 -63 164q-80 80 -227 80q-14 0 -93 -9q-87 -10 -142 -79q-55 -67 -55 -156q0 -85 50 -153q52 -72 137 -81l63.5 -7.5t22.5 -2.5h17q69 7 104 9q82 9 136 82q50 68 50 153zM385 264q0 -39 -1.5 -67.5t-3.5 -45.5q-12 -83 -69 -83q-29 0 -46 23
q-28 40 -28 141q0 95 24 133q22 28 50 28q30 0 46 -22q28 -38 28 -107z" />
    <glyph glyph-name="p" unicode="p" horiz-adv-x="690" 
d="M655 244q0 107 -70 167q-42 36 -82 51q-2 1 -48 12h-26q-80 0 -120 -52l-14 -18v20l-2 13l-3 10q-14 30 -38 30q-8 0 -11 -1l-198 -51q-34 -9 -34 -39q0 -20 15 -30l6 -4l3 -1l3 -2q6 -3 9.5 -5t5 -6t2.5 -11t3 -19v-362l-1 -10q-1 -24 -22 -35l-5 -2q-21 -14 -21 -34
q0 -13 10.5 -25.5t29.5 -12.5h260q39 0 39 38q0 18 -14 30l-6 4l-6 2q-23 12 -23 45v344q0 45 11 62t36 20q35 0 52 -44l4 -11l3 -10q11 -39 11 -56l2 -14v-13l1 -15v-12l-1 -14q-3 -43 -13 -61.5t-31 -23.5q-14 -4 -20.5 -6l-6.5 -2q-27 -15 -27 -41q7 -68 69 -60
q19 0 22 1q42 0 146 36q78 28 88 103q12 90 12 98v17z" />
    <glyph glyph-name="q" unicode="q" horiz-adv-x="675" 
d="M629 -173q40 0 40 38q0 20 -16 30l-6 4l-5 2q-23 15 -23 45v480q0 31 -28 46q-11 4 -28 4q-2 0 -8 -0.5t-14 -1.5q-33 -5 -81 -44l-11 -9l-15 10q-63 42 -152 42q-37 0 -132 -29q-126 -39 -126 -234q0 -69 38 -131q42 -68 106 -80q60 -12 86 -12q8 1 15 1t15 1
q37 4 84 24l7 3l7 4v-84q-4 -24 -23 -35l-5 -2q-22 -13 -22 -34q0 -38 40 -38h257zM387 194q0 -64 -21 -92q-15 -20 -38 -20q-22 0 -39 20q-5 7 -8.5 14.5t-6 17t-4 24t-1.5 36.5l1 100q1 90 58 90q59 0 59 -113v-77z" />
    <glyph glyph-name="r" unicode="r" horiz-adv-x="479" 
d="M474 392q0 87 -99 87q-31 0 -51 -11q-13 -8 -37 -35l-16 -19l-7 -9v17q0 56 -41 56q-1 0 -3.5 -0.5l-7.5 -1.5l-172 -51q-34 -10 -34 -39q0 -18 15 -30l7 -4l5 -3q21 -13 22 -34l1 -196l-1 -10q-1 -24 -22 -35l-5 -2q-21 -14 -21 -34q0 -13 10.5 -25.5t29.5 -12.5h257
q40 0 40 38q0 19 -15 30l-6 4l-5 2q-23 12 -23 45v125q0 40 10 53q7 8 27 10l35 -6q2 0 9.5 -1t11.5 -1q58 0 81 59q5 22 5 34z" />
    <glyph glyph-name="s" unicode="s" horiz-adv-x="562" 
d="M510 378q-5 45 -20 59q-20 19 -81 29q-24 4 -46 6t-42 2q-78 0 -125 -11q-63 -13 -110 -56q-44 -38 -45 -102q-1 -52 42 -94q34 -34 71 -40l72 -21l24 -8q30 -14 30 -36q0 -17 -22 -27q-18 -8 -33 -8q-49 0 -77 37l-23 29l-2 2q-12 16 -43 16q-24 0 -40 -15t-16 -39
q0 -55 64 -83q22 -10 68 -18q60 -12 129 -12l37 4q44 4 88 21q118 46 118 144q0 31 -15.5 60t-36.5 43q-17 11 -28.5 17.5t-18.5 8.5l-76 23l-10 4l-14 5l-9 4l-8 3l-12 6q-21 10 -21 27q0 34 67 34q37 0 58 -24q7 -7 26 -43q12 -24 28 -24q13 0 16 1q38 0 38 54q0 1 -0.5 6
t-1.5 16z" />
    <glyph glyph-name="t" unicode="t" horiz-adv-x="392" 
d="M404 43q0 45 -31 49l-13 2q-38 -2 -51 9q-7 5 -13 29v232h61q29 0 38.5 11t9.5 40q0 47 -52 47h-56v108q0 31 -36 37q-3 1 -60 1q-41 -4 -55 -47q-19 -62 -35 -75l-5 -4l-7 -4q-22 -13 -61 -17q-43 -4 -43 -51q0 -19 11 -32.5t24 -13.5h34v-282q0 -44 42 -71
q24 -11 36 -11h201q61 0 61 43z" />
    <glyph glyph-name="u" unicode="u" horiz-adv-x="679" 
d="M632 0q40 0 40 38q0 20 -16 30l-6 4l-4 2q-24 12 -24 45v282q0 34 -9 57q-7 19 -32 19q-8 0 -11 -1l-203 -51q-32 -14 -32 -39q0 -20 15 -30l9 -6l3 -1q18 -10 22 -34v-130l-2 -38l-1 -6l-2 -8l-2 -7q-7 -25 -37 -28q-6 0 -8 -1q-31 0 -35 27l4 277q1 31 -9 57
q-7 19 -33 19q-8 0 -11 -1l-201 -51q-34 -12 -34 -39q0 -18 15 -30l7 -4l5 -3q18 -10 23 -35l-7 -186q-2 -60 45.5 -98t131.5 -38h14q7 0 12 1l55 7q40 4 82 46l9 9l1 -6q4 -21 16.5 -35t27.5 -14h182z" />
    <glyph glyph-name="v" unicode="v" horiz-adv-x="564" 
d="M575 438q-11 24 -37 24h-125q-40 0 -40 -37q0 -21 16 -31l6 -3l5 -3q22 -13 22 -35q0 -16 -7 -43l-16 -63l-7 -22l-16 -49t-10 -27l-3 -7l-7 -11l-8 13l-5 11q-44 97 -55 155l-6 34l-6 28q2 10 13 17l3 2q21 10 21 33q0 38 -40 38h-257q-12 0 -20 -14t-8 -25
q0 -19 13 -29l7 -3l5 -3q15 -10 26 -34l6 -21t7 -21l8 -25q14 -42 31.5 -85.5t39.5 -91.5q40 -84 60 -102q25 -21 88 -19l32 1q48 2 73 21q24 19 58 102l35 84q22 51 35 100l19 67q8 17 20 24l5 3q22 10 22 33q0 6 -3 14z" />
    <glyph glyph-name="w" unicode="w" horiz-adv-x="874" 
d="M881 423q0 39 -40 39h-117q-40 0 -40 -38q0 -20 15 -30l7 -3l2 -2l3 -1q20 -11 20 -28q0 -7 -3 -20l-7 -32q-11 -51 -23.5 -90.5t-26.5 -68.5l-13 -27l-10 29q-29 84 -33 107l-13 69l-4 17l-1 3l-1.5 10.5l-0.5 3.5q0 16 20 27l6 3q21 10 21 32q0 39 -40 39h-229
q-40 0 -40 -38q0 -20 15 -30l6 -3l3 -2l3 -1q6 -3 9.5 -5.5t5.5 -6.5t3.5 -11.5t3.5 -19.5l1 -6l1 -15l8 -65q0 -89 -36 -137q-26 26 -36 47q-8 17 -13.5 34t-9.5 36l-14 78l-5 24l-1 6q-5 26 20 41l5 3q22 10 22 33q0 38 -40 38h-251q-38 0 -38 -38q0 -20 13 -30l7 -3l4 -3
q18 -11 21 -22q5 -20 8.5 -38.5t7.5 -35.5l14 -60q5 -21 9.5 -35t6.5 -22l20 -53t25 -59q26 -60 71 -71l12 -3l9 -2l51 -3l31 1q35 1 58 12q27 13 52 65q3 6 16 34l6 21l32 -69q17 -38 51 -50t59 -12q56 0 91 13q34 11 56 57q4 8 12 27t19 50l26 71l26 84l10 30l12 39
q9 24 24 31l4 3q22 10 22 32z" />
    <glyph glyph-name="x" unicode="x" horiz-adv-x="593" 
d="M597 23q3 7 3 14q0 18 -16 31l-6 4l-5 2l-22 17l-58 78l-23 29l-15 20l-7 9l-10 12l30.5 35.5t21.5 25.5l30 33l19 25l4 6q16 17 28 24l6 3q21 10 21 32q0 8 -4 15q-8 24 -36 24h-121q-30 0 -37 -24q-3 -6 -3 -13q0 -19 15 -31l12 -6q15 -10 10 -24l-3 -9q-8 -14 -15 -24
t-14 -18l-11 -15l-37 44l-7 8l-4 4q-7 7 -7 13t16 18l4 3l6 3q21 10 21 33q0 38 -40 38h-303q-40 0 -40 -38q0 -20 16 -30l10 -6q13 -8 26.5 -22t29.5 -34l60 -75l3 -4l7 -8l9 -11l-19 -25l-52 -63l-34 -45l-2 -2q-11 -10 -22 -16l-13 -9l-4 -2q-20 -14 -20 -34
q0 -38 38 -38h131q40 0 40 38q0 18 -15 30l-7 4l-4 2q-16 7 -16 16t12 26l18 24l14 20l13 16l8 -12l10 -13l10 -15l6 -8l16 -23q5 -8 5 -15q0 -12 -10 -16l-4 -2q-22 -10 -22 -34q0 -13 10.5 -25.5t29.5 -12.5h282q26 0 37 23z" />
    <glyph glyph-name="y" unicode="y" horiz-adv-x="586" 
d="M597 438q-11 24 -37 24h-139q-42 0 -42 -39q0 -21 23 -32l6 -3q25 -13 25 -55q0 -53 -21 -137l-11 -43l-12 -34l-3 -10l-3 -6l-6 -13q-3 -5 -10 -5q-4 0 -12 5q-17 15 -27 42q-9 23 -18 50.5t-17 60.5q-21 83 -17 110q5 27 23 35l5 3q22 10 22 33q0 38 -40 38h-262
q-36 0 -36 -38q0 -17 10 -24l2 -2l8 -7l15 -11q4 -4 9 -16l6 -17l15 -51l23 -103q19 -85 59 -140q35 -48 109 -53l16 -1l33 -1h25q-5 -21 -28 -47q-23 -27 -42 -27q-12 0 -37 18q-26 18 -49 18q-14 0 -27 -3l-13 -3q-43 -16 -43 -60q0 -39 37 -60q30 -18 71 -18q60 0 125 40
q103 61 165 203q19 44 42 119q16 55 24 111l7 54l1 14l1 7q1 15 22 24l4 3q22 10 22 33q0 6 -3 14z" />
    <glyph glyph-name="z" unicode="z" horiz-adv-x="542" 
d="M517 108q1 2 1 12q0 15 -11 26t-26 11q-28 0 -51 -35l-5 -8l-7 -9q-14 -22 -42 -23l-48 -3l-10 -1l-24 -1l12 16l2 4l4 5q23 36 31 46q11 16 25 33.5l30 37.5l33 40q45 54 60 77q27 40 27 80q-4 30 -18.5 38t-49.5 8h-353q-24 0 -31 -7q-14 -8 -17 -28l-12 -71
q-3 -8 6 -22q11 -18 33 -22q13 -3 21 0q17 5 23 15l2 5l16 24q12 18 23 24t35 7l19 1h17l12 1h13l-6 -6l-61 -79l-68.5 -82.5t-42.5 -48.5q-61 -76 -61 -105q0 -10 -1 -13q0 -48 47 -54l388 -1l15 2q24 4 30 18l5 10z" />
    <glyph glyph-name="braceleft" unicode="{" horiz-adv-x="357" 
d="M329 -117v84h-13q-54 0 -54 45v247q0 27 -17 51t-44 34l-26 6l26 6q61 25 61 85v247q0 47 54 47h13v84h-139q-97 0 -97 -98v-301q0 -30 -19 -50t-46 -20q28 0 46.5 -19.5t18.5 -50.5v-299q0 -46 26 -72t71 -26h139z" />
    <glyph glyph-name="bar" unicode="|" horiz-adv-x="496" 
d="M307 34v616q0 42 -9 53q-9 12 -50 12q-42 0 -51 -11q-8 -11 -8 -54v-616q0 -16 1 -21q5 -26 58 -26q37 0 48 8t11 39z" />
    <glyph glyph-name="braceright" unicode="}" horiz-adv-x="357" 
d="M329 350q-28 0 -47 20t-19 50v301q0 45 -25.5 71.5t-70.5 26.5h-139v-84h13q54 0 54 -47v-247q0 -29 17 -52q22 -31 70 -39q-11 -2 -19.5 -5l-14.5 -5q-20 -7 -36.5 -31t-16.5 -50v-247q0 -45 -54 -45h-13v-84h139q96 0 96 98v299q0 29 19.5 49.5t46.5 20.5z" />
    <glyph glyph-name="asciitilde" unicode="~" horiz-adv-x="630" 
d="M557 284q0 41 -26 55q-17 10 -62 10q-50 0 -50 -50q0 -17 -12 -17q-15 0 -100 33q-83 34 -121 34q-47 0 -80 -36q-33 -35 -33 -83q0 -41 26 -55q17 -10 62 -10q50 0 50 50q0 17 12 17l93 -34q88 -33 128 -33q47 0 80 35q33 36 33 84z" />
    <glyph glyph-name="quotesinglbase" unicode="&#x201a;" horiz-adv-x="289" 
d="M258 4q17 28 17 61q0 79 -81 106q-26 8 -48 8h-14q-5 0 -10 -1q-43 -6 -72 -31q-33 -28 -35 -67q-1 -37 35 -63q31 -21 59 -18h16l-3 -7l-3 -5l-4 -7l-7 -9l-23 -27l-27 -27q-7 -7 -7 -17q0 -25 44 -25q53 18 100 57q37 31 63 72z" />
    <glyph glyph-name="florin" unicode="&#x192;" horiz-adv-x="611" 
d="M97 447v-90h131l-44 -350q-11 -78 -18 -94q-13 -25 -39 -25q-15 0 -25 16q38 11 38 51q0 27 -18.5 43.5t-45.5 16.5q-35 0 -55.5 -25t-20.5 -60q0 -33 17 -62q39 -63 134 -63q147 0 200 153q18 52 42 236l22 163h134v90h-123l26 219q6 52 42 52q12 0 20 -9
q-36 -17 -36 -52q0 -27 19.5 -44.5t46.5 -17.5q31 0 50.5 22.5t19.5 53.5q0 33 -19 62q-41 66 -134 66q-67 0 -116 -35q-57 -41 -82 -146q-2 -11 -8.5 -53.5l-17.5 -117.5h-140z" />
    <glyph glyph-name="quotedblbase" unicode="&#x201e;" horiz-adv-x="570" 
d="M476 -68q80 68 80 133q0 79 -81 106q-26 8 -48 8h-14q-5 0 -10 -1q-41 -6 -72 -31q-35 -29 -35 -67t34 -63q30 -21 60 -18h16l-3 -7l-2 -5l-5 -7l-7 -9l-23 -27l-27 -27q-7 -7 -7 -17q0 -25 44 -25q53 18 100 57zM258 4q17 28 17 61q0 79 -81 106q-26 8 -48 8h-14
q-5 0 -10 -1q-43 -6 -72 -31q-33 -28 -35 -67q-1 -37 35 -63q31 -21 59 -18h16l-3 -7l-3 -5l-4 -7l-7 -9l-23 -27l-27 -27q-7 -7 -7 -17q0 -25 44 -25q53 18 100 57q37 31 63 72z" />
    <glyph glyph-name="ellipsis" unicode="&#x2026;" horiz-adv-x="900" 
d="M758 -12q46 0 83 23q40 27 40 72q0 35 -24 61q-37 38 -100 41q-44 2 -85 -27q-48 -31 -46 -82q1 -39 37.5 -63.5t94.5 -24.5zM458 -12q46 0 83 23q40 27 40 72q0 35 -24 61q-37 38 -100 41q-44 2 -85 -27q-48 -31 -46 -82q1 -39 37.5 -63.5t94.5 -24.5zM158 -12
q46 0 83 23q40 27 40 72q0 35 -24 61q-37 38 -100 41q-44 2 -85 -27q-48 -31 -46 -82q1 -39 37.5 -63.5t94.5 -24.5z" />
    <glyph glyph-name="dagger" unicode="&#x2020;" horiz-adv-x="500" 
d="M210 373v-20q0 -34 -4 -80t-12 -106q-13 -94 -19 -152t-6 -82q0 -106 82 -106t82 106q0 26 -5 75t-15 122q-21 159 -21 223v20l65.5 -19.5l46.5 -14.5q13 -3 24 -3q31 0 52 21t21 52q0 33 -22.5 54t-56.5 21q-20 0 -32 -4l-96 -34q10 53 18.5 91.5t16.5 64.5q3 18 3 34
q0 38 -21.5 61.5t-59.5 23.5q-39 0 -60 -23.5t-21 -62.5q0 -24 17 -87q19 -71 21 -102l-50 17l-37 12.5t-15 5.5q-14 3 -28 3q-33 0 -55 -21.5t-22 -53.5t21.5 -52.5t53.5 -20.5q22 0 67 15q31 11 47.5 16t19.5 6z" />
    <glyph glyph-name="daggerdbl" unicode="&#x2021;" horiz-adv-x="500" 
d="M170 273q45 -77 45 -140q-14 3 -32 7.5t-40 11.5q-62 18 -80 18q-29 0 -46 -21t-17 -51t19 -50.5t49 -20.5q11 0 23 3q42 11 73 20t51 16q-5 -33 -24 -93q-17 -57 -17 -77q0 -34 22 -51.5t57 -17.5q32 0 54 18.5t22 50.5q0 11 -3 28q-2 6 -5.5 18t-8.5 31
q-10 29 -16 52.5t-9 40.5l34 -8.5t38 -11.5q57 -19 77 -19q29 0 48.5 21t19.5 50t-18 50.5t-47 21.5q-5 0 -10.5 -0.5t-12.5 -1.5l-75 -19.5t-54 -15.5q1 41 12 73q4 11 12.5 28t21.5 39q-44 76 -46 141q14 -3 32.5 -7.5t40.5 -11.5q60 -19 79 -19q28 0 48 23q17 20 17 50
t-20 50.5t-49 20.5q-27 0 -74 -16q-32 -11 -50.5 -16.5t-23.5 -7.5q6 36 25 95q17 57 17 77q0 69 -79 69q-33 0 -54.5 -18.5t-21.5 -50.5q0 -20 17 -77q20 -62 24 -95q-16 4 -33.5 9t-37.5 12q-56 19 -77 19q-29 0 -48 -20.5t-19 -50.5q0 -29 17 -51t46 -22q10 0 24 3
l75 19.5t53 15.5q0 -65 -45 -141z" />
    <glyph glyph-name="circumflex" unicode="&#x2c6;" horiz-adv-x="527" 
d="M456 577q0 31 -80 90q-79 58 -113 58q-36 0 -113 -56q-80 -59 -80 -92q0 -42 39 -42q20 0 76 28q58 29 78 29q18 0 76 -29q56 -28 78 -28q39 0 39 42z" />
    <glyph glyph-name="perthousand" unicode="&#x2030;" horiz-adv-x="1206" 
d="M787 668q5 8 5 12q0 17 -10 18q-20 6 -29 6q-4 0 -23 -3l-47.5 -7.5l-15.5 -2.5l-20 -15q-6 -6 -31 -15q-60 -20 -76 -20q-51 0 -162 34q-89 42 -150 42q-69 0 -125 -44q-74 -59 -74 -152q0 -60 36 -105q38 -44 83 -57q57 -16 97 -16q82 0 140 43q20 15 33.5 29t22 30
t12 34.5t3.5 42.5q0 26 -6 40l-5 12l17 -3q34 -6 58 -6q28 0 48 5.5t19 5.5l-465 -545q-5 -8 -5 -12q0 -17 22 -18q3 -1 19 -1q56 0 64 8l552 647zM294 535q0 -27 -0.5 -43.5t-1.5 -23.5q-8 -45 -35 -45q-49 0 -49 100v19q0 98 43 94q27 -3 36 -29q7 -18 7 -72zM805 167
q0 85 -49 132.5t-134 47.5q-72 0 -120 -58q-45 -54 -45 -128q0 -76 49 -126q50 -50 125 -50t125 53q49 52 49 129zM663 170v-43q0 -16 -1 -22q-6 -47 -29 -47q-38 0 -38 100v22q0 91 36 91q32 0 32 -101zM1176 167q0 85 -49 132.5t-134 47.5q-72 0 -120 -58
q-45 -54 -45 -128q0 -76 49 -126q50 -50 124 -50q75 0 125 53t50 129zM1033 170v-43q0 -16 -1 -22q-5 -47 -28 -47q-39 0 -39 100v22q0 91 36 91q32 0 32 -101z" />
    <glyph glyph-name="Scaron" unicode="&#x160;" horiz-adv-x="720" 
d="M681 196q10 37 10 71q0 72 -30 110.5t-99 55.5q-2 1 -5.5 2t-8.5 2l-148 43l-6 2l-15 3l-20 5q-67 16 -67 66q0 32 27 51.5t78 19.5q65 0 88 -27q33 -39 38 -55q15 -43 30.5 -55.5t40.5 -12.5q49 0 49 70v13q0 4 -1 13.5t-3 25.5t-4 26t-6 17t-11 11t-17 9q-20 8 -44 16
t-53 15q-36 9 -60 13.5t-36 5.5q-5 1 -18 1.5t-33 0.5q-136 0 -224 -66q-98 -72 -98 -180q0 -103 88 -163q39 -26 74 -39q10 -4 20 -7t20 -7q7 -2 13.5 -3t14.5 -2l105 -20q74 -14 68 -70q0 -32 -50 -58l-12 -6q-27 -9 -62 -9q-73 0 -109 36q-9 7 -14 16l-31 42.5t-19 23.5
q-24 24 -55 24t-49.5 -20.5t-18.5 -55.5q0 -72 100 -117q44 -19 74 -27q79 -18 149 -18q115 0 207 48q106 57 133 160zM575 873q0 42 -39 42q-16 0 -74 -29q-56 -28 -80 -28q-22 0 -78 28q-58 29 -76 29q-39 0 -39 -42q0 -33 79 -91q79 -57 114 -57q34 0 114 57q79 58 79 91
z" />
    <glyph glyph-name="guilsinglleft" unicode="&#x2039;" horiz-adv-x="241" 
d="M132 443l-88 -178l89 -181l67 32l-39 149l42 141z" />
    <glyph glyph-name="OE" unicode="&#x152;" horiz-adv-x="1221" 
d="M1185 37q7 38 10.5 62.5t3.5 35.5q0 23 -10 33q-17 17 -53 17q-24 0 -40 -21l-9 -11l-9 -10q-27 -30 -62 -39q-21 -7 -74 -7q-49 0 -70 18q-18 16 -22 52v162h29l41 -1q23 -1 35 -1t14 -1q22 -5 41 -23l10 -10q17 -17 37 -17q31 0 39 14l9 18q1 1 1 20v57l1 50
q-8 38 -43 38q-22 0 -35 -11l-7 -9l-4 -5l-3 -5q-13 -22 -44 -22h-51l-26 1h-41v138q0 36 32 45l11 3l5 1h36l29 -1l14 -1q37 -3 63 -29q49 -52 73 -52q57 0 57 62q0 78 -18 95q-17 17 -96 17h-490l-36 7q-34 7 -88 7q-93 0 -180 -35q-94 -39 -145 -109q-85 -115 -85 -220
q0 -56 19 -106q33 -89 97 -154q72 -75 155 -88q97 -15 145 -15q64 0 123 13h531q73 0 80 37zM584 325q0 -74 -15 -120q-40 -124 -120 -124q-45 0 -75 39q-55 71 -59 205l-1 26l1 26q3 87 14 120q41 122 120 122q44 0 75 -40q60 -78 60 -202v-52z" />
    <glyph glyph-name="quoteleft" unicode="&#x2018;" horiz-adv-x="289" 
d="M144 409q46 0 86 26q44 29 44 73q0 59 -60 77l-34 6h-10l-7 -1l4 7l3 6l4 7l8 8l15 18t8 9l22 22l3 5q8 14 8 18q0 24 -45 24q-53 -15 -106 -61q-72 -61 -73 -130q-2 -53 45 -87q42 -31 85 -27z" />
    <glyph glyph-name="quoteright" unicode="&#x2019;" horiz-adv-x="289" 
d="M258 539q17 28 17 61q0 79 -81 106q-26 8 -48 8h-14q-5 0 -10 -1q-43 -6 -72 -31q-33 -28 -35 -67q-1 -37 35 -63q31 -22 59 -19h16l-3 -7l-3 -5l-4 -7l-7 -9l-23 -27l-27 -27q-7 -7 -7 -17q0 -25 44 -25q53 18 100 57q19 16 34.5 34.5t28.5 38.5z" />
    <glyph glyph-name="quotedblleft" unicode="&#x201c;" horiz-adv-x="570" 
d="M425 409q46 0 86 26q44 29 44 73q0 59 -60 77l-34 6h-10l-7 -1l4 7l3 6l5 7l7 8l9.5 12t13.5 15l21 22l4 5q8 11 8 18q0 26 -44 24q-14 0 -60 -27q-21 -13 -47 -34q-34 -30 -49 -55q-23 -41 -24 -75q-2 -53 45 -87q42 -31 85 -27zM144 409q46 0 86 26q44 29 44 73
q0 59 -60 77l-34 6h-10l-7 -1l4 7l3 6l4 7l8 8l15 18t8 9l22 22l3 5q8 14 8 18q0 24 -45 24q-53 -15 -106 -61q-72 -61 -73 -130q-2 -53 45 -87q42 -31 85 -27z" />
    <glyph glyph-name="quotedblright" unicode="&#x201d;" horiz-adv-x="570" 
d="M476 466q80 68 80 134q0 79 -81 106q-26 8 -48 8h-14q-5 0 -10 -1q-41 -6 -72 -31q-35 -29 -35 -67t34 -63q29 -22 60 -19h16l-3 -7l-2 -5l-5 -7l-7 -9l-23 -27l-27 -27q-7 -7 -7 -17q0 -25 44 -25q53 18 100 57zM258 539q17 28 17 61q0 79 -81 106q-26 8 -48 8h-14
q-5 0 -10 -1q-43 -6 -72 -31q-33 -28 -35 -67q-1 -37 35 -63q31 -22 59 -19h16l-3 -7l-3 -5l-4 -7l-7 -9l-23 -27l-27 -27q-7 -7 -7 -17q0 -25 44 -25q53 18 100 57q19 16 34.5 34.5t28.5 38.5z" />
    <glyph glyph-name="bullet" unicode="&#x2022;" horiz-adv-x="336" 
d="M308 350q0 58 -41 99t-99 41t-99 -41t-41 -99t41 -99t99 -41t99 41t41 99z" />
    <glyph glyph-name="endash" unicode="&#x2013;" horiz-adv-x="400" 
d="M400 200v159h-400v-159h400z" />
    <glyph glyph-name="emdash" unicode="&#x2014;" horiz-adv-x="800" 
d="M800 200v159h-800v-159h800z" />
    <glyph glyph-name="tilde" unicode="&#x2dc;" horiz-adv-x="609" 
d="M519 648q0 55 -73 55q-20 0 -34 -12t-14 -33q0 -14 -12 -14l-47 20l-48 20q-51 19 -93 19q-45 0 -73.5 -29.5t-28.5 -72.5q0 -35 28 -47q19 -8 58 -8q48 0 48 43q0 14 12 14q3 0 61 -29q57 -28 107 -28q22 0 42 8t35 22t23.5 32.5t8.5 39.5z" />
    <glyph glyph-name="trademark" unicode="&#x2122;" horiz-adv-x="865" 
d="M831 285v17q-48 0 -48 28v282q0 17 12 22q7 3 35 3v17h-109l-122 -280l-128 280h-111v-17h14q37 0 37 -34v-273q0 -28 -49 -28v-17h125v17q-50 0 -50 28v253l140 -298h18l130 314v-269q0 -28 -49 -28v-17h155zM332 560l-3 94h-309l-3 -94l18 -1q0 71 75 73l36 1v-303
q0 -28 -50 -28v-17h156v17q-49 0 -49 28v303l36 -1q75 -2 75 -73z" />
    <glyph glyph-name="scaron" unicode="&#x161;" horiz-adv-x="562" 
d="M510 378q-5 45 -20 59q-20 19 -81 29q-24 4 -46 6t-42 2q-78 0 -125 -11q-63 -13 -110 -56q-44 -38 -45 -102q-1 -52 42 -94q34 -34 71 -40l72 -21l24 -8q30 -14 30 -36q0 -17 -22 -27q-18 -8 -33 -8q-49 0 -77 37l-23 29l-2 2q-12 16 -43 16q-24 0 -40 -15t-16 -39
q0 -55 64 -83q22 -10 68 -18q60 -12 129 -12l37 4q44 4 88 21q118 46 118 144q0 31 -15.5 60t-36.5 43q-17 11 -28.5 17.5t-18.5 8.5l-76 23l-10 4l-14 5l-9 4l-8 3l-12 6q-21 10 -21 27q0 34 67 34q37 0 58 -24q7 -7 26 -43q12 -24 28 -24q13 0 16 1q38 0 38 54q0 1 -0.5 6
t-1.5 16zM476 684q0 42 -39 42q-16 0 -74 -29q-56 -28 -80 -28q-22 0 -78 28q-58 29 -76 29q-39 0 -39 -42q0 -33 79 -91q79 -57 114 -57q34 0 114 57q79 58 79 91z" />
    <glyph glyph-name="guilsinglright" unicode="&#x203a;" horiz-adv-x="241" 
d="M115 84l88 179l-90 180l-67 -31l39 -149l-41 -141z" />
    <glyph glyph-name="oe" unicode="&#x153;" horiz-adv-x="970" 
d="M938 320q0 78 -110 128q-68 31 -138 31q-83 0 -183 -57q-78 54 -196 54q-14 0 -93 -9q-87 -10 -142 -79q-55 -67 -55 -156q0 -85 50 -153q52 -72 137 -81l63.5 -7.5t22.5 -2.5h17q4 1 25 1q83 0 158 42q76 -43 184 -43q49 0 117 16q82 19 104 46q39 48 39 75t-33 32
q-22 0 -36 -8q-92 -62 -141 -62q-89 0 -89 73v14q0 2 103 14q109 14 122 21q74 42 74 111zM729 348q0 -48 -28 -70q-24 -17 -74 -26q-1 7 -1.5 14t-0.5 15q0 35 9 64q13 40 56 40q39 0 39 -37zM385 201q0 -39 -7 -64q-18 -69 -67 -69q-29 0 -46 23q-28 40 -28 141
q0 95 24 133q22 28 50 28q30 0 46 -22q28 -38 28 -107v-63z" />
    <glyph glyph-name="Ydieresis" unicode="&#x178;" horiz-adv-x="707" 
d="M731 675q-10 25 -40 25h-141q-43 0 -43 -41q0 -27 24 -37l5 -3q22 -11 23 -27q1 -10 -22 -57l-40 -77q-7 -14 -24 -36.5l-43 -54.5q-37 43 -61 88l-48 91q-8 18 -15 40l-1 6q0 14 16 23l7 4l4 3q24 12 24 37q0 41 -43 41h-298q-17 0 -29 -11.5t-12 -29.5q0 -26 23 -37
l4 -3q18 -17 24 -27l13 -20l14 -31l13 -26q37 -75 87 -142l46 -60t27 -32v-153l-1 -9q-3 -29 -25 -38l-5 -3q-23 -14 -23 -36q0 -16 11 -29t32 -13h280q44 0 44 41q0 25 -24 37l-3 2l-3 1q-19 10 -24 38v162l33.5 42l25.5 33q61 85 102 162l37 70l2 4q9 17 18 23l5 4l6 3
q22 10 22 36q0 10 -4 17zM581 811q0 64 -67 64q-119 0 -119 -83q0 -66 80 -66q106 0 106 85zM346 811q0 64 -92 64q-114 0 -114 -83q0 -66 75 -66q50 0 85 18q46 22 46 67z" />
    <glyph glyph-name="exclamdown" unicode="&#xa1;" horiz-adv-x="342" 
d="M298 459q-2 39 -38 64.5t-94 25.5q-48 0 -83 -25q-41 -29 -41 -73q0 -46 40 -74q34 -26 84 -27q44 -2 86 27q48 31 46 82zM317 -106l-81 364l-3 11q-3 13 -6 21t-8 12.5t-12.5 6t-19.5 3.5h-16l-15 -2q-29 -5 -34 -14l-88 -364q-9 -38 -9 -57q0 -30 34 -51.5t113 -21.5
q56 0 85 9q34 10 43 21q17 17 17 62z" />
    <glyph glyph-name="cent" unicode="&#xa2;" horiz-adv-x="583" 
d="M559 110q0 17 -16 30t-34 13q-7 0 -20 -5l-44 -30q-48 -33 -68 -33q-10 0 -10 10v276q7 -2 9 -8q2 -4 4 -7.5t4 -6.5l6 -8q30 -50 81 -50q5 0 28 3q22 3 38 20t16 40q0 47 -44 73q-12 7 -24 12.5t-25 10.5q-48 17 -50 17l-40 5v57h-35v-51l-40 -2q-49 -2 -62 -6
q-23 -6 -77 -32q-57 -28 -89 -82q-35 -59 -35 -137q0 -101 67 -162q68 -62 195 -70l35 -2v-66h35v68l24 6q82 19 128 52q43 31 43 65zM331 105l-8 6q-15 11 -25 21.5t-15.5 23t-8 29t-2.5 38.5v29q0 5 1.5 14t3.5 23q7 45 38 83q3 1 8.5 3t7.5 3v-273z" />
    <glyph glyph-name="sterling" unicode="&#xa3;" horiz-adv-x="704" 
d="M689 179l-7 13q-17 17 -30 17q-15 0 -31 -13l-57 -38q-32 -21 -69 -21q-85 0 -156 50q13 21 16 43q6 37 3 79l-1 16h48q39 0 62 13q35 20 35 70q0 52 -43 52q-20 0 -27 -7q-33 -24 -58 -24h-33l-6 23q-12 46 -12 94q0 36 15 66q19 36 52 36q34 0 51 -36q13 -28 12 -37
q-7 -25 -7 -38q0 -52 46 -52q30 0 68 34l12 14l24 35q17 26 17 49q0 29 -33 58q-32 28 -87 48q-54 19 -99 19q-10 0 -13 -1q-107 0 -177 -65q-69 -65 -69 -174q0 -37 13 -75h-53q-30 0 -50 -17q-34 -28 -34 -83q0 -54 43 -54q18 0 37 19l22 22q13 9 23 9h33l4 -11l3 -12
q8 -34 8 -54q0 -10 -1 -15l-12 2q-4 1 -22 1q-49 0 -87 -26q-54 -36 -54 -100q0 -48 34.5 -78t89.5 -30q42 0 81 27q20 14 35.5 27t28.5 26q8 -5 14 -9.5l10 -7.5q95 -70 186 -70q56 0 94 27q53 39 68 59l20 26l11 15l4 6q12 18 12 29t-7 24zM185 150l-1 -10l-1 -7l-3 -16
l-4 -17l-2 -18q0 -13 -28 -13q-15 -2 -31 7q-21 10 -18 33q0 8 4 17t10.5 17t16.5 13.5t22 5.5q14 0 25 -6z" />
    <glyph glyph-name="currency" unicode="&#xa4;" horiz-adv-x="630" 
d="M562 305q0 70 -38 129q32 32 32 42q0 19 -26 45q-26 27 -46 27q-10 0 -19 -9l-23 -23q-56 36 -129 36q-68 0 -126 -36q-32 32 -42 32q-19 0 -46 -27q-26 -26 -26 -45q0 -12 32 -42q-37 -58 -37 -130q0 -62 37 -127q-32 -32 -32 -42q0 -18 26 -46q26 -26 46 -26
q10 0 42 32q55 -37 131 -37q68 0 124 37q32 -32 42 -32q19 0 45 26q27 27 27 46q0 7 -32 42q38 56 38 128zM438 305q0 -51 -36 -87t-87 -36q-26 0 -48.5 9.5t-39 26t-26 39t-9.5 48.5q0 51 36 87t87 36q52 0 87 -38q36 -38 36 -85z" />
    <glyph glyph-name="yen" unicode="&#xa5;" horiz-adv-x="707" 
d="M731 675q-10 25 -40 25h-141q-43 0 -43 -41q0 -27 24 -37l5 -3q22 -11 23 -27q1 -10 -22 -57l-40 -77q-7 -13 -21 -32l-34 -45h-24q-22 26 -38.5 51.5t-27.5 48.5l-31.5 69t-14.5 36l-1 6q0 14 16 23l7 4l4 3q24 12 24 37q0 41 -43 41h-298q-17 0 -29 -11.5t-12 -29.5
q0 -26 23 -37l4 -3q18 -17 24 -27l13 -20l14 -31l13 -26q14 -27 34 -60.5t48 -73.5q-30 0 -40 -7q-13 -10 -13 -40q0 -33 12 -40q7 -6 42 -6h71l6 -7v-57h-77q-32 0 -40 -7q-14 -9 -14 -39q0 -17 2 -26t8 -14t16.5 -6t27.5 -1h17l60 -3l-1 -9q-3 -29 -25 -38l-5 -3
q-23 -14 -23 -36q0 -16 11 -29t32 -13h280q44 0 44 41q0 25 -24 37l-3 2l-3 1q-19 10 -24 38v12h91q30 0 40.5 8t10.5 39q0 36 -19 43q-8 3 -52 3h-71v57l6 7h65q44 0 52 3q19 7 19 43q0 37 -16 44q-6 3 -50 3l31 46q14 20 27 43l27 48l37 70l2 4q9 17 18 23l5 4l6 3
q22 10 22 36q0 10 -4 17z" />
    <glyph glyph-name="brokenbar" unicode="&#xa6;" horiz-adv-x="392" 
d="M140 667v-369l145 -1v369zM140 153v-319h145v319h-145z" />
    <glyph glyph-name="section" unicode="&#xa7;" horiz-adv-x="758" 
d="M689 403q0 99 -67 133q-2 1 -44.5 15l-125.5 40q-126 40 -126 69q0 21 31 33q24 9 49 9q53 0 86 -41q34 -40 61 -40q30 0 64 17q39 19 39 47q0 65 -108 97q-72 22 -157 22q-117 0 -195 -36q-107 -48 -107 -151q0 -88 81 -133l-13 -15l-19 -22l-19 -21t-13 -16
q-28 -43 -28 -99q0 -97 71 -135q7 -4 176 -61q137 -47 137 -70q0 -43 -96 -43q-46 0 -77 24q-3 2 -13.5 14t-29.5 32q-23 24 -45 24q-38 0 -68 -10q-44 -14 -44 -41q0 -83 120 -120q83 -26 186 -26q116 0 193 41q97 51 97 157q0 91 -92 139l66 72q30 43 30 95zM479 351
q0 -12 -17 -41q-16 -28 -27 -28q-5 0 -23 5l-72 32q-32 10 -43 18q-14 11 -14 31q0 17 9 40q10 27 24 27q53 0 107 -20q56 -21 56 -64z" />
    <glyph glyph-name="dieresis" unicode="&#xa8;" horiz-adv-x="706" 
d="M551 631q0 64 -67 64q-119 0 -119 -83q0 -66 80 -66q106 0 106 85zM316 631q0 64 -92 64q-114 0 -114 -83q0 -66 75 -66q50 0 85 18q46 22 46 67z" />
    <glyph glyph-name="copyright" unicode="&#xa9;" horiz-adv-x="768" 
d="M720 321q0 139 -98 237t-237 98q-141 0 -238 -97t-97 -238t97 -238q97 -96 238 -96q142 0 238 96q97 96 97 238zM682 321q0 -124 -87 -211q-86 -86 -210 -86q-123 0 -211 86q-86 88 -86 211t87 209q87 87 210 87t210 -87q87 -86 87 -209zM535 196l-11 18l-12 -10
q-33 -29 -61 -36q-23 -6 -71 -6q-56 0 -87 49q-27 40 -27 101q0 68 37 120q34 48 94 48q24 0 59 -15q21 -10 37 -37q16 -25 20 -49h20l-4 125h-19q-3 -16 -23 -16q-2 0 -6.5 0.5t-10.5 1.5q-47 16 -85 16q-58 0 -113 -40q-69 -50 -69 -153q0 -55 28 -105q31 -57 80 -70
q48 -13 80 -13q47 0 81 19q13 7 28.5 20t34.5 32z" />
    <glyph glyph-name="ordfeminine" unicode="&#xaa;" horiz-adv-x="373" 
d="M363 431q6 15 -8 27l-3 2l-4 1q-12 7 -13 27q-1 4 -1 45v68q0 35 -13 54q-35 55 -134 47l-15 -1h-14l-12 -1l-16 -2q-58 -7 -80 -22q-17 -12 -17 -35q0 -28 29 -36l9 -1q2 -1 13 -1q24 0 41 17l11 11l7 8l2 2l5 4q8 7 22 4q17 -4 22 -27l1 -15l-1 -6h-7l-39 -3l-21 -3
q-14 -2 -25.5 -4.5t-21.5 -5.5q-72 -23 -72 -84q0 -41 24 -60q42 -33 80 -33q37 0 57 10l10 6q16 10 21 15l2 -4l3 -5l4 -5q11 -8 24 -8h108q14 0 22 14zM195 521l-1 -19v-5q-8 -26 -30 -27q-36 -5 -30 41q4 35 49 43l12 2v-35z" />
    <glyph glyph-name="guillemotleft" unicode="&#xab;" horiz-adv-x="371" 
d="M123 443l-88 -178l89 -181l67 32l-40 149l42 141zM264 443l-88 -178l89 -181l67 32l-39 149l41 141z" />
    <glyph glyph-name="logicalnot" unicode="&#xac;" horiz-adv-x="403" 
d="M400 -51l-305 779q-5 13 -8.5 20.5t-8 11t-10.5 4.5t-16 1l-3 1h-17l-21 1q-8 0 -11 -6t0 -16l302 -782q13 -34 39 -34h11l28 1q16 1 18 4t2 15z" />
    <glyph glyph-name="registered" unicode="&#xae;" horiz-adv-x="768" 
d="M719 316q0 139 -98 237t-237 98q-141 0 -238 -97t-97 -238t97 -237t238 -96q139 0 237 96q98 98 98 237zM681 316q0 -124 -87 -211q-86 -86 -210 -86q-122 0 -210 86q-87 87 -87 210q0 122 86 210q87 87 210 87t210 -87q88 -85 88 -209zM580 147v17q-24 0 -35 14
l-116 150q42 2 69 28t29 69q2 42 -33.5 66.5t-102.5 24.5h-163v-17q15 0 24 -0.5t13 -3.5t5 -9t1 -16v-280q0 -26 -47 -26v-17h155v17q-46 0 -46 28v127h26l129 -172h92zM461 430q1 -2 1 -12q0 -49 -37 -62q-42 -15 -76 -15h-16l-1 135q0 9 6.5 15t14.5 5l51 -4
q53 -5 57 -62z" />
    <glyph glyph-name="macron" unicode="&#xaf;" horiz-adv-x="614" 
d="M544 660q0 22 -26 22q-21 -3 -89 -3h-163q-66 0 -114 6q-32 0 -48 -27q-34 -53 -34 -89q0 -21 26 -21q18 3 89 3h163q66 0 114 -6q28 0 45 23q7 7 24 48q13 29 13 44z" />
    <glyph glyph-name="acute" unicode="&#xb4;" horiz-adv-x="408" 
d="M338 653q0 56 -89 56q-84 0 -84 -30q0 -18 -48 -49q-47 -32 -47 -57q0 -37 54 -37q44 0 126 38q88 43 88 79z" />
    <glyph glyph-name="mu" unicode="&#xb5;" horiz-adv-x="679" 
d="M632 0q40 0 40 38q0 20 -16 30l-6 4l-4 2q-24 12 -24 45v282q0 34 -9 57q-7 19 -32 19q-8 0 -11 -1l-203 -51q-32 -14 -32 -39q0 -20 15 -30l9 -6l3 -1q18 -10 22 -34v-130l-2 -38l-1 -6l-2 -8l-2 -7q-7 -25 -37 -28q-6 0 -8 -1q-31 0 -35 27l4 277q1 31 -9 57
q-7 19 -33 19q-8 0 -11 -1l-201 -51q-34 -12 -34 -39q0 -18 15 -30l7 -4l5 -3q18 -10 23 -35l8 -189q1 -35 0 -81q-1 -32 -1 -50v-21q0 -62 29 -106q33 -50 92 -50q29 0 52 11.5t38.5 31.5t23 47t5.5 59l-2 34q55 13 88 46l9 9l1 -6q4 -21 16.5 -35t27.5 -14h182z" />
    <glyph glyph-name="paragraph" unicode="&#xb6;" horiz-adv-x="556" 
d="M310 -196v784h70v-784h116v784h55v128h-291q-80 0 -107 -6q-47 -11 -80 -35q-73 -54 -73 -161q0 -91 50 -142t141 -58v-510h119z" />
    <glyph glyph-name="periodcentered" unicode="&#xb7;" horiz-adv-x="300" 
d="M158 256q50 0 86 27q37 28 37 70q0 35 -24 61q-37 38 -100 41q-44 2 -85 -27q-48 -31 -46 -82q1 -39 37.5 -64.5t94.5 -25.5z" />
    <glyph glyph-name="periodcentered" unicode="&#x2219;" horiz-adv-x="300" 
d="M158 256q50 0 86 27q37 28 37 70q0 35 -24 61q-37 38 -100 41q-44 2 -85 -27q-48 -31 -46 -82q1 -39 37.5 -64.5t94.5 -25.5z" />
    <glyph glyph-name="cedilla" unicode="&#xb8;" horiz-adv-x="338" 
d="M268 -119q0 17 -14 34l-26 26l-63 59h-78l43 -61q7 -10 7 -17q0 -6 -34 -16q-33 -12 -33 -35q0 -21 22 -34q26 -17 70 -17q38 0 67 13q39 16 39 48z" />
    <glyph glyph-name="ordmasculine" unicode="&#xba;" horiz-adv-x="374" 
d="M361 556q0 62 -37 99q-47 47 -137 47h-5q-2 0 -7 -1q-98 -8 -122 -24q-40 -27 -40 -121q0 -62 37 -99q49 -49 137 -49q92 0 129 26q45 31 45 122zM231 575q0 -47 -3 -68q-7 -49 -41 -49q-27 4 -37 28q-8 21 -8 70q0 41 5 59q9 33 40 37q16 0 27 -14q17 -23 17 -63z" />
    <glyph glyph-name="guillemotright" unicode="&#xbb;" horiz-adv-x="371" 
d="M107 443l-71 -37l42 -141l-39 -149l66 -32l90 181zM248 443l-71 -37l42 -141l-39 -149l67 -32l89 181z" />
    <glyph glyph-name="questiondown" unicode="&#xbf;" horiz-adv-x="567" 
d="M445 460q-1 39 -37.5 64.5t-94.5 25.5q-48 0 -83 -25q-40 -28 -40 -73t37 -73q36 -27 86 -28q44 -2 86 27q48 31 46 82zM552 -40q-3 34 -21 47t-63 16l-15 1l-18 -1q-58 -3 -72 -50l-3 -18q0 -31 -3 -38q-9 -35 -37 -35q-51 8 -47 60l-1 15v11q0 28 7 52q16 63 50 74l5 3
l10 4q21 11 35 31l2 3l1 4l2 5l1 5v6l1 9v99l-1 6q-8 44 -66 44q-62 0 -69 -54v-22q0 -25 -45 -43l-20 -8q-75 -31 -118 -66q-53 -44 -53 -114q0 -8 1.5 -19.5l3.5 -27.5q4 -31 38 -69q33 -37 64 -52q22 -10 54.5 -18.5t77.5 -15.5q4 -1 25 -1q96 0 174 31q108 43 100 126z
" />
    <glyph glyph-name="Agrave" unicode="&#xc0;" horiz-adv-x="745" 
d="M763 25q3 7 3 16q0 22 -23 37l-3 2l-3 1q-16 7 -25 27l-7 15l-3 6l-12.5 33l-10.5 28l-38 107q-11 32 -22.5 62l-23.5 59l-25 61.5t-15 35.5q-53 124 -84 161l-9 9q-23 23 -65 23q-54 0 -76 -7q-35 -11 -60 -45q-45 -62 -94 -189l-127 -338l-2 -3l-8 -18q-9 -21 -22 -27
l-6 -3q-21 -11 -21 -37q0 -41 40 -41h155q43 0 43 41q0 23 -23 37l-5 3q-26 12 -26 43q0 19 18 70l7 20h223l8 -28q15 -53 15 -70q0 -21 -19 -31l-7 -4l-5 -3q-23 -14 -23 -36q0 -8 3 -17q12 -25 40 -25h298q30 0 40 25zM375 319h-151l7 25l8 24l7 19l9 23q25 64 47 107
q19 -36 24 -52l7 -21l12 -32l10 -26zM499 762q0 23 -48 58q-47 35 -47 48t-24.5 21.5t-59.5 8.5q-89 0 -89 -56q0 -37 87 -79q81 -38 127 -38q54 0 54 37z" />
    <glyph glyph-name="Aacute" unicode="&#xc1;" horiz-adv-x="745" 
d="M763 25q3 7 3 16q0 22 -23 37l-3 2l-3 1q-16 7 -25 27l-7 15l-3 6l-12.5 33l-10.5 28l-38 107q-11 32 -22.5 62l-23.5 59l-25 61.5t-15 35.5q-53 124 -84 161l-9 9q-23 23 -65 23q-54 0 -76 -7q-35 -11 -60 -45q-45 -62 -94 -189l-127 -338l-2 -3l-8 -18q-9 -21 -22 -27
l-6 -3q-21 -11 -21 -37q0 -41 40 -41h155q43 0 43 41q0 23 -23 37l-5 3q-26 12 -26 43q0 19 18 70l7 20h223l8 -28q15 -53 15 -70q0 -21 -19 -31l-7 -4l-5 -3q-23 -14 -23 -36q0 -8 3 -17q12 -25 40 -25h298q30 0 40 25zM375 319h-151l7 25l8 24l7 19l9 23q25 64 47 107
q19 -36 24 -52l7 -21l12 -32l10 -26zM502 842q0 56 -89 56q-84 0 -84 -30q0 -18 -48 -49q-47 -32 -47 -57q0 -37 54 -37q44 0 126 38q88 43 88 79z" />
    <glyph glyph-name="Acircumflex" unicode="&#xc2;" horiz-adv-x="745" 
d="M763 25q3 7 3 16q0 22 -23 37l-3 2l-3 1q-16 7 -25 27l-7 15l-3 6l-12.5 33l-10.5 28l-38 107q-11 32 -22.5 62l-23.5 59l-25 61.5t-15 35.5q-53 124 -84 161l-9 9q-23 23 -65 23q-54 0 -76 -7q-35 -11 -60 -45q-45 -62 -94 -189l-127 -338l-2 -3l-8 -18q-9 -21 -22 -27
l-6 -3q-21 -11 -21 -37q0 -41 40 -41h155q43 0 43 41q0 23 -23 37l-5 3q-26 12 -26 43q0 19 18 70l7 20h223l8 -28q15 -53 15 -70q0 -21 -19 -31l-7 -4l-5 -3q-23 -14 -23 -36q0 -8 3 -17q12 -25 40 -25h298q30 0 40 25zM375 319h-151l7 25l8 24l7 19l9 23q25 64 47 107
q19 -36 24 -52l7 -21l12 -32l10 -26zM566 767q0 31 -80 90q-79 58 -113 58q-36 0 -113 -56q-80 -59 -80 -92q0 -42 39 -42q20 0 76 28q58 29 78 29q18 0 76 -29q56 -28 78 -28q39 0 39 42z" />
    <glyph glyph-name="Atilde" unicode="&#xc3;" horiz-adv-x="745" 
d="M763 25q3 7 3 16q0 22 -23 37l-3 2l-3 1q-16 7 -25 27l-7 15l-3 6l-12.5 33l-10.5 28l-38 107q-11 32 -22.5 62l-23.5 59l-25 61.5t-15 35.5q-53 124 -84 161l-9 9q-23 23 -65 23q-54 0 -76 -7q-35 -11 -60 -45q-45 -62 -94 -189l-127 -338l-2 -3l-8 -18q-9 -21 -22 -27
l-6 -3q-21 -11 -21 -37q0 -41 40 -41h155q43 0 43 41q0 23 -23 37l-5 3q-26 12 -26 43q0 19 18 70l7 20h223l8 -28q15 -53 15 -70q0 -21 -19 -31l-7 -4l-5 -3q-23 -14 -23 -36q0 -8 3 -17q12 -25 40 -25h298q30 0 40 25zM375 319h-151l7 25l8 24l7 19l9 23q25 64 47 107
q19 -36 24 -52l7 -21l12 -32l10 -26zM586 828q0 55 -73 55q-20 0 -34 -12t-14 -33q0 -14 -12 -14l-47 20l-48 20q-51 19 -93 19q-45 0 -73.5 -29.5t-28.5 -72.5q0 -35 28 -47q19 -8 58 -8q48 0 48 43q0 14 12 14q3 0 61 -29q57 -28 107 -28q22 0 42 8t35 22t23.5 32.5
t8.5 39.5z" />
    <glyph glyph-name="Adieresis" unicode="&#xc4;" horiz-adv-x="745" 
d="M763 25q3 7 3 16q0 22 -23 37l-3 2l-3 1q-16 7 -25 27l-7 15l-3 6l-12.5 33l-10.5 28l-38 107q-11 32 -22.5 62l-23.5 59l-25 61.5t-15 35.5q-53 124 -84 161l-9 9q-23 23 -65 23q-54 0 -76 -7q-35 -11 -60 -45q-45 -62 -94 -189l-127 -338l-2 -3l-8 -18q-9 -21 -22 -27
l-6 -3q-21 -11 -21 -37q0 -41 40 -41h155q43 0 43 41q0 23 -23 37l-5 3q-26 12 -26 43q0 19 18 70l7 20h223l8 -28q15 -53 15 -70q0 -21 -19 -31l-7 -4l-5 -3q-23 -14 -23 -36q0 -8 3 -17q12 -25 40 -25h298q30 0 40 25zM375 319h-151l7 25l8 24l7 19l9 23q25 64 47 107
q19 -36 24 -52l7 -21l12 -32l10 -26zM581 811q0 64 -67 64q-119 0 -119 -83q0 -66 80 -66q106 0 106 85zM346 811q0 64 -92 64q-114 0 -114 -83q0 -66 75 -66q50 0 85 18q46 22 46 67z" />
    <glyph glyph-name="Aring" unicode="&#xc5;" horiz-adv-x="745" 
d="M763 25q3 7 3 16q0 22 -23 37l-3 2l-3 1q-16 7 -25 27l-7 15l-3 6l-12.5 33l-10.5 28l-38 107q-11 32 -22.5 62l-23.5 59l-25 61.5t-15 35.5q-53 124 -84 161l-2 2l-7 6q50 27 50 83q0 57 -51 84q-39 21 -102 21q-153 0 -153 -105q0 -69 69 -93q-53 -59 -108 -207
l-127 -338l-2 -3l-8 -18q-9 -21 -22 -27l-6 -3q-21 -11 -21 -37q0 -41 40 -41h155q43 0 43 41q0 23 -23 37l-5 3q-26 12 -26 43q0 19 18 70l7 20h223l8 -28q15 -53 15 -70q0 -21 -19 -31l-7 -4l-5 -3q-23 -14 -23 -36q0 -8 3 -17q12 -25 40 -25h298q30 0 40 25zM409 767
q0 -58 -50 -58t-50 58t50 58t50 -58zM375 319h-151l7 25l8 24l7 19l9 23q25 64 47 107q19 -36 24 -52l7 -21l12 -32l10 -26z" />
    <glyph glyph-name="AE" unicode="&#xc6;" horiz-adv-x="1091" 
d="M1047 37q7 38 10.5 62.5t3.5 35.5q0 23 -10 33q-17 17 -53 17q-24 0 -40 -21l-9 -11l-9 -10q-27 -30 -62 -39q-21 -7 -74 -7q-49 0 -70 18q-18 16 -22 52v162h29l41 -1q23 -1 35 -1t14 -1q22 -5 41 -23l10 -10q17 -17 37 -17q31 0 39 14l9 18q1 1 1 20v57l1 50
q-8 38 -43 38q-22 0 -35 -11l-7 -9l-4 -5l-3 -5q-13 -22 -44 -22h-51l-26 1h-41v138q0 36 32 45l11 3l5 1h36l29 -1l14 -1q37 -3 63 -29q49 -52 73 -52q57 0 57 62q0 78 -18 95q-17 17 -96 17h-485q-42 0 -42 -41q0 -24 21 -36q-56 -53 -123 -156l-217 -338l-3 -3l-13 -18
q-14 -19 -29 -27l-7 -3q-36 -16 -32 -53q3 -25 30 -25h155q26 0 43 20q13 14 13 31q0 18 -15 27l-4 3q-17 9 -17 26q0 22 39 87l12 20h200v-95q-4 -27 -24 -38l-6 -3q-23 -11 -23 -37q0 -5 1 -12t5.5 -13.5t12.5 -11t23 -4.5h531q73 0 80 37zM447 319h-138l14 25l27 43
l15 23q22 36 33 51l24 31l19 25l6 -7v-191z" />
    <glyph glyph-name="Ccedilla" unicode="&#xc7;" horiz-adv-x="780" 
d="M749 179q-14 36 -46 36q-23 0 -64 -41q-17 -17 -30 -27q-56 -43 -132 -43q-27 0 -52.5 9t-46.5 25.5t-36.5 38.5t-22.5 49q-20 71 -20 92v44q0 70 14 124q15 56 56 94q44 40 100 40q17 0 54 -8q13 -3 27 -11t27 -20t23 -26t16 -29l11 -30q6 -15 25 -25.5t38 -10.5
q42 0 48 33q3 10 3 26q0 8 -2 27.5t-6 49.5l-2 15l-15 23q-17 20 -94 50l-23 9q-60 23 -142 23q-30 0 -35 -1l-101 -15q-110 -17 -198 -124t-88 -220q0 -95 47 -178q49 -84 130 -131q42 -23 81.5 -37t78.5 -18l29 -3l34 -50q7 -10 7 -17q0 -6 -34 -16q-33 -12 -33 -35
q0 -21 22 -34q26 -17 70 -17q38 0 67 13q39 16 39 48q0 17 -14 34l-26 26l-50 48q123 10 204 72q65 50 65 100q0 10 -3 18z" />
    <glyph glyph-name="Egrave" unicode="&#xc8;" horiz-adv-x="705" 
d="M667 37q7 38 10.5 62.5t3.5 35.5q0 23 -10 33q-17 17 -53 17q-24 0 -40 -21l-9 -11l-9 -10q-27 -30 -62 -39q-21 -7 -74 -7q-49 0 -70 18q-18 16 -22 52v162h29l41 -1q23 -1 35 -1t14 -1q22 -5 41 -23l10 -10q17 -17 37 -17q31 0 39 14l9 18q1 1 1 20v57l1 50
q-8 38 -43 38q-22 0 -35 -11l-7 -9l-4 -5l-3 -5q-13 -22 -44 -22h-51l-26 1h-41v138q0 36 32 45l11 3l5 1h36l29 -1l14 -1q37 -3 63 -29q49 -52 73 -52q57 0 57 62q0 78 -18 95q-17 17 -96 17h-485q-42 0 -42 -41q0 -26 23 -37l3 -2l3 -1q19 -10 24 -38v-462q-4 -27 -24 -38
l-6 -3q-23 -11 -23 -37q0 -5 1 -12t5.5 -13.5t12.5 -11t23 -4.5h531q73 0 80 37zM475 762q0 23 -48 58q-47 35 -47 48t-24.5 21.5t-59.5 8.5q-89 0 -89 -56q0 -37 87 -79q81 -38 127 -38q54 0 54 37z" />
    <glyph glyph-name="Eacute" unicode="&#xc9;" horiz-adv-x="705" 
d="M667 37q7 38 10.5 62.5t3.5 35.5q0 23 -10 33q-17 17 -53 17q-24 0 -40 -21l-9 -11l-9 -10q-27 -30 -62 -39q-21 -7 -74 -7q-49 0 -70 18q-18 16 -22 52v162h29l41 -1q23 -1 35 -1t14 -1q22 -5 41 -23l10 -10q17 -17 37 -17q31 0 39 14l9 18q1 1 1 20v57l1 50
q-8 38 -43 38q-22 0 -35 -11l-7 -9l-4 -5l-3 -5q-13 -22 -44 -22h-51l-26 1h-41v138q0 36 32 45l11 3l5 1h36l29 -1l14 -1q37 -3 63 -29q49 -52 73 -52q57 0 57 62q0 78 -18 95q-17 17 -96 17h-485q-42 0 -42 -41q0 -26 23 -37l3 -2l3 -1q19 -10 24 -38v-462q-4 -27 -24 -38
l-6 -3q-23 -11 -23 -37q0 -5 1 -12t5.5 -13.5t12.5 -11t23 -4.5h531q73 0 80 37zM502 842q0 56 -89 56q-84 0 -84 -30q0 -18 -48 -49q-47 -32 -47 -57q0 -37 54 -37q44 0 126 38q88 43 88 79z" />
    <glyph glyph-name="Ecircumflex" unicode="&#xca;" horiz-adv-x="705" 
d="M667 37q7 38 10.5 62.5t3.5 35.5q0 23 -10 33q-17 17 -53 17q-24 0 -40 -21l-9 -11l-9 -10q-27 -30 -62 -39q-21 -7 -74 -7q-49 0 -70 18q-18 16 -22 52v162h29l41 -1q23 -1 35 -1t14 -1q22 -5 41 -23l10 -10q17 -17 37 -17q31 0 39 14l9 18q1 1 1 20v57l1 50
q-8 38 -43 38q-22 0 -35 -11l-7 -9l-4 -5l-3 -5q-13 -22 -44 -22h-51l-26 1h-41v138q0 36 32 45l11 3l5 1h36l29 -1l14 -1q37 -3 63 -29q49 -52 73 -52q57 0 57 62q0 78 -18 95q-17 17 -96 17h-485q-42 0 -42 -41q0 -26 23 -37l3 -2l3 -1q19 -10 24 -38v-462q-4 -27 -24 -38
l-6 -3q-23 -11 -23 -37q0 -5 1 -12t5.5 -13.5t12.5 -11t23 -4.5h531q73 0 80 37zM531 767q0 31 -80 90q-79 58 -113 58q-36 0 -113 -56q-80 -59 -80 -92q0 -42 39 -42q20 0 76 28q58 29 78 29q18 0 76 -29q56 -28 78 -28q39 0 39 42z" />
    <glyph glyph-name="Edieresis" unicode="&#xcb;" horiz-adv-x="705" 
d="M667 37q7 38 10.5 62.5t3.5 35.5q0 23 -10 33q-17 17 -53 17q-24 0 -40 -21l-9 -11l-9 -10q-27 -30 -62 -39q-21 -7 -74 -7q-49 0 -70 18q-18 16 -22 52v162h29l41 -1q23 -1 35 -1t14 -1q22 -5 41 -23l10 -10q17 -17 37 -17q31 0 39 14l9 18q1 1 1 20v57l1 50
q-8 38 -43 38q-22 0 -35 -11l-7 -9l-4 -5l-3 -5q-13 -22 -44 -22h-51l-26 1h-41v138q0 36 32 45l11 3l5 1h36l29 -1l14 -1q37 -3 63 -29q49 -52 73 -52q57 0 57 62q0 78 -18 95q-17 17 -96 17h-485q-42 0 -42 -41q0 -26 23 -37l3 -2l3 -1q19 -10 24 -38v-462q-4 -27 -24 -38
l-6 -3q-23 -11 -23 -37q0 -5 1 -12t5.5 -13.5t12.5 -11t23 -4.5h531q73 0 80 37zM569 811q0 64 -67 64q-119 0 -119 -83q0 -66 80 -66q106 0 106 85zM334 811q0 64 -92 64q-114 0 -114 -83q0 -66 75 -66q50 0 85 18q46 22 46 67z" />
    <glyph glyph-name="Igrave" unicode="&#xcc;" horiz-adv-x="394" 
d="M377 25q3 7 3 16q0 23 -23 37l-5 3q-21 10 -25 38v462q5 29 25 38l5 3q23 14 23 36q0 8 -3 17q-12 25 -40 25h-281q-42 0 -42 -41q0 -26 23 -37l3 -2l3 -1q19 -10 24 -38v-462q-4 -27 -24 -38l-6 -3q-23 -11 -23 -37q0 -5 1 -12t5.5 -13.5t12.5 -11t23 -4.5h281
q30 0 40 25zM328 762q0 23 -48 58q-47 35 -47 48t-24.5 21.5t-59.5 8.5q-89 0 -89 -56q0 -37 87 -79q81 -38 127 -38q54 0 54 37z" />
    <glyph glyph-name="Iacute" unicode="&#xcd;" horiz-adv-x="394" 
d="M377 25q3 7 3 16q0 23 -23 37l-5 3q-21 10 -25 38v462q5 29 25 38l5 3q23 14 23 36q0 8 -3 17q-12 25 -40 25h-281q-42 0 -42 -41q0 -26 23 -37l3 -2l3 -1q19 -10 24 -38v-462q-4 -27 -24 -38l-6 -3q-23 -11 -23 -37q0 -5 1 -12t5.5 -13.5t12.5 -11t23 -4.5h281
q30 0 40 25zM331 842q0 56 -89 56q-84 0 -84 -30q0 -18 -48 -49q-47 -32 -47 -57q0 -37 54 -37q44 0 126 38q88 43 88 79z" />
    <glyph glyph-name="Icircumflex" unicode="&#xce;" horiz-adv-x="394" 
d="M377 25q3 7 3 16q0 23 -23 37l-5 3q-21 10 -25 38v462q5 29 25 38l5 3q23 14 23 36q0 8 -3 17q-12 25 -40 25h-281q-42 0 -42 -41q0 -26 23 -37l3 -2l3 -1q19 -10 24 -38v-462q-4 -27 -24 -38l-6 -3q-23 -11 -23 -37q0 -5 1 -12t5.5 -13.5t12.5 -11t23 -4.5h281
q30 0 40 25zM389 767q0 31 -80 90q-79 58 -113 58q-36 0 -113 -56q-80 -59 -80 -92q0 -42 39 -42q20 0 76 28q58 29 78 29q18 0 76 -29q56 -28 78 -28q39 0 39 42z" />
    <glyph glyph-name="Idieresis" unicode="&#xcf;" horiz-adv-x="394" 
d="M377 25q3 7 3 16q0 23 -23 37l-5 3q-21 10 -25 38v462q5 29 25 38l5 3q23 14 23 36q0 8 -3 17q-12 25 -40 25h-281q-42 0 -42 -41q0 -26 23 -37l3 -2l3 -1q19 -10 24 -38v-462q-4 -27 -24 -38l-6 -3q-23 -11 -23 -37q0 -5 1 -12t5.5 -13.5t12.5 -11t23 -4.5h281
q30 0 40 25zM413 811q0 64 -67 64q-119 0 -119 -83q0 -66 80 -66q106 0 106 85zM178 811q0 64 -92 64q-113 0 -113 -83q0 -66 74 -66q50 0 85 18q46 22 46 67z" />
    <glyph glyph-name="Eth" unicode="&#xd0;" horiz-adv-x="847" 
d="M67 298v-170q0 -32 -24 -47l-6 -3q-23 -11 -23 -37q0 -5 1 -12t5.5 -13.5t12.5 -11t23 -4.5h310q29 0 50 0.5t34 1.5q123 11 188 43q70 36 114.5 99.5t55.5 142.5q2 11 2.5 20t1.5 17v33q0 136 -84 231q-44 50 -92 74q-26 13 -57.5 21.5t-69.5 12.5l-453 4q-42 0 -42 -41
q0 -26 23 -37l3 -2l3 -1q16 -9 20.5 -20t2.5 -43l-1 -19l2 -123h-3q-16 0 -21 -1q-28 -4 -28 -57q0 -37 10 -47.5t39 -10.5h3zM499 356q0 40 -12 49q-11 9 -53 9h-112l1 36q3 76 3 125v10l1 4l3 9q8 14 26 14q80 0 138 -79q49 -65 50 -143l1 -35q3 -108 -51 -186
q-50 -72 -120 -72l-7 -1h-4q-23 0 -35 26q-8 13 -8 112v64h114q42 0 53 9q12 9 12 49z" />
    <glyph glyph-name="Ntilde" unicode="&#xd1;" horiz-adv-x="730" 
d="M713 675q-10 25 -40 25h-130q-42 0 -42 -41q0 -26 23 -37l5 -3q22 -13 25 -38v-238l-57 74l-85.5 112l-53.5 72l-21 30l-21 31q-32 38 -58 38h-202q-42 0 -42 -41q0 -26 23 -37l3 -2l3 -1q19 -10 24 -38v-464q-5 -26 -24 -36l-6 -3q-23 -11 -23 -37q0 -41 42 -41h123
q43 0 43 41q0 23 -24 37l-5 3q-17 8 -23 27l-2 332l262 -353q50 -66 65 -77q22 -14 75 -14q45 0 65 12q9 6 17 16q10 13 10 48v499l1 10q3 28 24 38l6 3q23 12 23 36q0 9 -3 17zM583 828q0 55 -73 55q-20 0 -34 -12t-14 -33q0 -14 -12 -14l-47 20l-48 20q-51 19 -93 19
q-45 0 -73.5 -29.5t-28.5 -72.5q0 -35 28 -47q19 -8 58 -8q48 0 48 43q0 14 12 14q3 0 61 -29q57 -28 107 -28q22 0 42 8t35 22t23.5 32.5t8.5 39.5z" />
    <glyph glyph-name="Ograve" unicode="&#xd2;" 
d="M787 140q77 101 77 209q0 107 -84 220q-61 81 -148 116q-76 29 -187 29q-93 0 -180 -35q-94 -39 -145 -109q-85 -115 -85 -220q0 -56 19 -106q31 -85 95 -153q71 -74 152 -88q55 -8 92.5 -12t59.5 -4q215 0 334 153zM584 325q0 -74 -15 -120q-40 -124 -120 -124
q-45 0 -75 39q-55 71 -59 205l-1 26l1 26q3 87 14 120q41 122 120 122q44 0 75 -40q60 -78 60 -202v-52zM580 762q0 23 -48 58q-47 35 -47 48t-24.5 21.5t-59.5 8.5q-89 0 -89 -56q0 -37 87 -79q81 -38 127 -38q54 0 54 37z" />
    <glyph glyph-name="Oacute" unicode="&#xd3;" 
d="M787 140q77 101 77 209q0 107 -84 220q-61 81 -148 116q-76 29 -187 29q-93 0 -180 -35q-94 -39 -145 -109q-85 -115 -85 -220q0 -56 19 -106q31 -85 95 -153q71 -74 152 -88q55 -8 92.5 -12t59.5 -4q215 0 334 153zM584 325q0 -74 -15 -120q-40 -124 -120 -124
q-45 0 -75 39q-55 71 -59 205l-1 26l1 26q3 87 14 120q41 122 120 122q44 0 75 -40q60 -78 60 -202v-52zM577 842q0 56 -89 56q-84 0 -84 -30q0 -18 -48 -49q-47 -32 -47 -57q0 -37 54 -37q44 0 126 38q88 43 88 79z" />
    <glyph glyph-name="Ocircumflex" unicode="&#xd4;" 
d="M787 140q77 101 77 209q0 107 -84 220q-61 81 -148 116q-76 29 -187 29q-93 0 -180 -35q-94 -39 -145 -109q-85 -115 -85 -220q0 -56 19 -106q31 -85 95 -153q71 -74 152 -88q55 -8 92.5 -12t59.5 -4q215 0 334 153zM584 325q0 -74 -15 -120q-40 -124 -120 -124
q-45 0 -75 39q-55 71 -59 205l-1 26l1 26q3 87 14 120q41 122 120 122q44 0 75 -40q60 -78 60 -202v-52zM644 767q0 31 -80 90q-79 58 -113 58q-36 0 -113 -56q-80 -59 -80 -92q0 -42 39 -42q20 0 76 28q58 29 78 29q18 0 76 -29q56 -28 78 -28q39 0 39 42z" />
    <glyph glyph-name="Otilde" unicode="&#xd5;" 
d="M787 140q77 101 77 209q0 107 -84 220q-61 81 -148 116q-76 29 -187 29q-93 0 -180 -35q-94 -39 -145 -109q-85 -115 -85 -220q0 -56 19 -106q31 -85 95 -153q71 -74 152 -88q55 -8 92.5 -12t59.5 -4q215 0 334 153zM584 325q0 -74 -15 -120q-40 -124 -120 -124
q-45 0 -75 39q-55 71 -59 205l-1 26l1 26q3 87 14 120q41 122 120 122q44 0 75 -40q60 -78 60 -202v-52zM658 828q0 55 -73 55q-20 0 -34 -12t-14 -33q0 -14 -12 -14l-47 20l-48 20q-51 19 -93 19q-45 0 -73.5 -29.5t-28.5 -72.5q0 -35 28 -47q19 -8 58 -8q48 0 48 43
q0 14 12 14q3 0 61 -29q57 -28 107 -28q22 0 42 8t35 22t23.5 32.5t8.5 39.5z" />
    <glyph glyph-name="Odieresis" unicode="&#xd6;" 
d="M787 140q77 101 77 209q0 107 -84 220q-61 81 -148 116q-76 29 -187 29q-93 0 -180 -35q-94 -39 -145 -109q-85 -115 -85 -220q0 -56 19 -106q31 -85 95 -153q71 -74 152 -88q55 -8 92.5 -12t59.5 -4q215 0 334 153zM584 325q0 -74 -15 -120q-40 -124 -120 -124
q-45 0 -75 39q-55 71 -59 205l-1 26l1 26q3 87 14 120q41 122 120 122q44 0 75 -40q60 -78 60 -202v-52zM668 811q0 64 -67 64q-119 0 -119 -83q0 -66 80 -66q106 0 106 85zM433 811q0 64 -92 64q-114 0 -114 -83q0 -66 75 -66q50 0 85 18q46 22 46 67z" />
    <glyph glyph-name="multiply" unicode="&#xd7;" horiz-adv-x="834" 
d="M341 306l-201 -202l75 -75l202 201l201 -201l75 75l-201 202l201 201l-75 75l-201 -201l-202 201l-75 -75z" />
    <glyph glyph-name="Oslash" unicode="&#xd8;" 
d="M787 140q77 101 77 209q0 94 -52 176q-51 83 -134 131l40 61l19 30q3 4 3 9q0 13 -11 11l-24 -1h-17l-3 -1q-9 0 -15.5 -1t-12 -5t-11 -11.5t-13.5 -19.5l-26 -40q-67 26 -162 26q-93 0 -180 -35q-94 -39 -145 -109q-85 -115 -85 -220q0 -78 44 -160q43 -81 118 -131
l-55 -82l-18 -28q-3 -8 -3 -11q0 -6 17 -8l23 -1h16q26 0 48 34l39 58q46 -19 91 -25q55 -9 98 -9q215 0 334 153zM531 571l-208 -319q-2 14 -4 23.5l-3 14.5q-1 11 -1 19v16l-1 26l1 26q3 87 14 120q41 122 120 122q48 0 77 -41zM584 325q0 -74 -15 -120
q-40 -124 -120 -124q-44 0 -62 23q-11 14 -19.5 26.5t-15.5 24.5l217 333q15 -62 15 -111v-52z" />
    <glyph glyph-name="Ugrave" unicode="&#xd9;" horiz-adv-x="758" 
d="M734 675q-10 25 -40 25h-134q-43 0 -43 -41q0 -26 23 -37l2 -2l3 -1q22 -11 23 -30l3 -30l6 -106l3 -64q1 -20 1.5 -60.5t0.5 -103.5q0 -18 -1 -20q-3 -55 -22 -77q-34 -43 -115 -43q-36 0 -70 22q-30 21 -44 44q-23 40 -23 98q0 9 0.5 27t1.5 44l5 114q2 57 3.5 93
t2.5 53q6 29 28 39l6 3q23 11 23 37q0 41 -44 41h-269q-43 0 -43 -41q0 -27 24 -37l3 -2l3 -1q16 -9 21 -22t3 -47l-7 -120l-5 -112q-8 -164 57 -243q58 -69 141 -77l81 -7.5t24 -2.5h57q165 0 218 80q55 85 55 253q0 15 -0.5 30.5t-1.5 31.5l-10 152q-1 9 -1 16v15
q0 39 26 53l5 3q23 14 23 37q0 8 -3 16zM514 762q0 23 -48 58q-47 35 -47 48t-24.5 21.5t-59.5 8.5q-89 0 -89 -56q0 -37 87 -79q81 -38 127 -38q54 0 54 37z" />
    <glyph glyph-name="Uacute" unicode="&#xda;" horiz-adv-x="758" 
d="M734 675q-10 25 -40 25h-134q-43 0 -43 -41q0 -26 23 -37l2 -2l3 -1q22 -11 23 -30l3 -30l6 -106l3 -64q1 -20 1.5 -60.5t0.5 -103.5q0 -18 -1 -20q-3 -55 -22 -77q-34 -43 -115 -43q-36 0 -70 22q-30 21 -44 44q-23 40 -23 98q0 9 0.5 27t1.5 44l5 114q2 57 3.5 93
t2.5 53q6 29 28 39l6 3q23 11 23 37q0 41 -44 41h-269q-43 0 -43 -41q0 -27 24 -37l3 -2l3 -1q16 -9 21 -22t3 -47l-7 -120l-5 -112q-8 -164 57 -243q58 -69 141 -77l81 -7.5t24 -2.5h57q165 0 218 80q55 85 55 253q0 15 -0.5 30.5t-1.5 31.5l-10 152q-1 9 -1 16v15
q0 39 26 53l5 3q23 14 23 37q0 8 -3 16zM520 842q0 56 -89 56q-84 0 -84 -30q0 -18 -48 -49q-47 -32 -47 -57q0 -37 54 -37q44 0 126 38q88 43 88 79z" />
    <glyph glyph-name="Ucircumflex" unicode="&#xdb;" horiz-adv-x="758" 
d="M734 675q-10 25 -40 25h-134q-43 0 -43 -41q0 -26 23 -37l2 -2l3 -1q22 -11 23 -30l3 -30l6 -106l3 -64q1 -20 1.5 -60.5t0.5 -103.5q0 -18 -1 -20q-3 -55 -22 -77q-34 -43 -115 -43q-36 0 -70 22q-30 21 -44 44q-23 40 -23 98q0 9 0.5 27t1.5 44l5 114q2 57 3.5 93
t2.5 53q6 29 28 39l6 3q23 11 23 37q0 41 -44 41h-269q-43 0 -43 -41q0 -27 24 -37l3 -2l3 -1q16 -9 21 -22t3 -47l-7 -120l-5 -112q-8 -164 57 -243q58 -69 141 -77l81 -7.5t24 -2.5h57q165 0 218 80q55 85 55 253q0 15 -0.5 30.5t-1.5 31.5l-10 152q-1 9 -1 16v15
q0 39 26 53l5 3q23 14 23 37q0 8 -3 16zM575 767q0 31 -80 90q-79 58 -113 58q-36 0 -113 -56q-80 -59 -80 -92q0 -42 39 -42q20 0 76 28q58 29 78 29q18 0 76 -29q56 -28 78 -28q39 0 39 42z" />
    <glyph glyph-name="Udieresis" unicode="&#xdc;" horiz-adv-x="758" 
d="M734 675q-10 25 -40 25h-134q-43 0 -43 -41q0 -26 23 -37l2 -2l3 -1q22 -11 23 -30l3 -30l6 -106l3 -64q1 -20 1.5 -60.5t0.5 -103.5q0 -18 -1 -20q-3 -55 -22 -77q-34 -43 -115 -43q-36 0 -70 22q-30 21 -44 44q-23 40 -23 98q0 9 0.5 27t1.5 44l5 114q2 57 3.5 93
t2.5 53q6 29 28 39l6 3q23 11 23 37q0 41 -44 41h-269q-43 0 -43 -41q0 -27 24 -37l3 -2l3 -1q16 -9 21 -22t3 -47l-7 -120l-5 -112q-8 -164 57 -243q58 -69 141 -77l81 -7.5t24 -2.5h57q165 0 218 80q55 85 55 253q0 15 -0.5 30.5t-1.5 31.5l-10 152q-1 9 -1 16v15
q0 39 26 53l5 3q23 14 23 37q0 8 -3 16zM599 811q0 64 -67 64q-119 0 -119 -83q0 -66 80 -66q106 0 106 85zM364 811q0 64 -92 64q-114 0 -114 -83q0 -66 75 -66q50 0 85 18q46 22 46 67z" />
    <glyph glyph-name="Yacute" unicode="&#xdd;" horiz-adv-x="707" 
d="M731 675q-10 25 -40 25h-141q-43 0 -43 -41q0 -27 24 -37l5 -3q22 -11 23 -27q1 -10 -22 -57l-40 -77q-7 -14 -24 -36.5l-43 -54.5q-37 43 -61.5 88l-47.5 91q-8 18 -15 40l-1 6q0 14 16 23l7 4l4 3q24 12 24 37q0 41 -43 41h-298q-17 0 -29 -11.5t-12 -29.5
q0 -26 23 -37l4 -3q18 -17 24 -27l13 -20l14 -31l13 -26q37 -75 87 -142l46 -60t27 -32v-153l-1 -9q-3 -29 -25 -38l-5 -3q-23 -14 -23 -36q0 -16 11 -29t32 -13h280q44 0 44 41q0 25 -24 37l-3 2l-3 1q-19 10 -24 38v162l33.5 42l25.5 33q61 85 102 162l37 70l2 4
q9 17 18 23l5 4l6 3q22 10 22 36q0 10 -4 17zM550 842q0 56 -89 56q-84 0 -84 -30q0 -18 -48 -49q-47 -32 -47 -57q0 -37 54 -37q44 0 126 38q88 43 88 79z" />
    <glyph glyph-name="Thorn" unicode="&#xde;" horiz-adv-x="754" 
d="M753 418q0 101 -69 146q-54 36 -169 41l-202 7l-7 48l-18 18l-232 -1q-42 0 -42 -41q0 -22 26 -39q27 -17 27 -39v-439q0 -23 -27 -39q-26 -17 -26 -39q0 -41 42 -41h281q43 0 43 41q0 21 -27 38q-26 18 -26 40l1 76h21q46 1 71 1t29 1q120 17 229 78q75 42 75 143z
M487 434q0 -67 -25 -92q-24 -26 -91 -39q-13 -2 -22.5 -4t-16.5 -3l-11 -1l1 161q0 32 3 43q6 26 28 26q50 0 88 -22q46 -25 46 -69z" />
    <glyph glyph-name="germandbls" unicode="&#xdf;" horiz-adv-x="774" 
d="M749 210q0 99 -69 159q-62 54 -164 69q72 12 102 36.5t30 74.5q0 94 -74.5 135.5t-230.5 41.5q-123 0 -198 -60q-81 -66 -81 -186v-361l-1 -10q-1 -24 -22 -35l-5 -2q-22 -13 -22 -34q0 -38 40 -38h242v567q0 89 73 89q96 0 96 -95q0 -56 -29 -79q-22 -18 -85 -24v-51
q98 -12 133 -44q39 -36 39 -132q0 -42 -9 -78q-12 -55 -40 -55q-30 0 -41 10t-11 38q0 45 -53 45q-16 0 -30.5 -18t-14.5 -39q0 -146 210 -146q8 0 18 2q61 8 89 21q13 7 26.5 16.5t27.5 20.5q54 45 54 162z" />
    <glyph glyph-name="agrave" unicode="&#xe0;" horiz-adv-x="621" 
d="M605 23q2 8 2 13q0 21 -15 32l-6 4l-6 2q-23 12 -24 54q1 -11 1 5v60v113q0 101 -84 142q-39 19 -71 23q-20 3 -43 4t-48 0l-68 -3l-26 -3q-35 -4 -61.5 -9.5t-43.5 -12.5q-57 -23 -57 -73t48 -60l15 -3q5 -1 10.5 -1.5t10.5 -0.5q41 0 70 30l12 13l21 21l8 7q14 8 26 8
q38 0 47 -46l2 -25l-1 -10l-56 -4l-22 -2l-34 -4q-20 -2 -39 -6.5t-39 -10.5q-121 -37 -121 -141q0 -66 40 -99q67 -53 133 -53q56 0 92 13l4 2l16 9q27 16 35 25l3 -6l6 -9l4 -5l2 -3q13 -13 40 -13h180q26 0 37 23zM325 145l-1 -4l-1 -8q-6 -15 -16 -25q-17 -19 -33 -20
q-52 -7 -52 51q0 48 28 67q11 8 18.5 12l9.5 5l43 8h4v-86zM418 573q0 23 -48 58q-47 35 -47 48t-24.5 21.5t-59.5 8.5q-89 0 -89 -56q0 -37 87 -79q81 -38 127 -38q54 0 54 37z" />
    <glyph glyph-name="aacute" unicode="&#xe1;" horiz-adv-x="621" 
d="M605 23q2 8 2 13q0 21 -15 32l-6 4l-6 2q-23 12 -24 54q1 -11 1 5v60v113q0 101 -84 142q-39 19 -71 23q-20 3 -43 4t-48 0l-68 -3l-26 -3q-35 -4 -61.5 -9.5t-43.5 -12.5q-57 -23 -57 -73t48 -60l15 -3q5 -1 10.5 -1.5t10.5 -0.5q41 0 70 30l12 13l21 21l8 7q14 8 26 8
q38 0 47 -46l2 -25l-1 -10l-56 -4l-22 -2l-34 -4q-20 -2 -39 -6.5t-39 -10.5q-121 -37 -121 -141q0 -66 40 -99q67 -53 133 -53q56 0 92 13l4 2l16 9q27 16 35 25l3 -6l6 -9l4 -5l2 -3q13 -13 40 -13h180q26 0 37 23zM325 145l-1 -4l-1 -8q-6 -15 -16 -25q-17 -19 -33 -20
q-52 -7 -52 51q0 48 28 67q11 8 18.5 12l9.5 5l43 8h4v-86zM433 653q0 56 -89 56q-84 0 -84 -30q0 -18 -48 -49q-47 -32 -47 -57q0 -37 54 -37q44 0 126 38q88 43 88 79z" />
    <glyph glyph-name="acircumflex" unicode="&#xe2;" horiz-adv-x="621" 
d="M605 23q2 8 2 13q0 21 -15 32l-6 4l-6 2q-23 12 -24 54q1 -11 1 5v60v113q0 101 -84 142q-39 19 -71 23q-20 3 -43 4t-48 0l-68 -3l-26 -3q-35 -4 -61.5 -9.5t-43.5 -12.5q-57 -23 -57 -73t48 -60l15 -3q5 -1 10.5 -1.5t10.5 -0.5q41 0 70 30l12 13l21 21l8 7q14 8 26 8
q38 0 47 -46l2 -25l-1 -10l-56 -4l-22 -2l-34 -4q-20 -2 -39 -6.5t-39 -10.5q-121 -37 -121 -141q0 -66 40 -99q67 -53 133 -53q56 0 92 13l4 2l16 9q27 16 35 25l3 -6l6 -9l4 -5l2 -3q13 -13 40 -13h180q26 0 37 23zM325 145l-1 -4l-1 -8q-6 -15 -16 -25q-17 -19 -33 -20
q-52 -7 -52 51q0 48 28 67q11 8 18.5 12l9.5 5l43 8h4v-86zM491 577q0 31 -80 90q-79 58 -113 58q-36 0 -113 -56q-80 -59 -80 -92q0 -42 39 -42q20 0 76 28q58 29 78 29q18 0 76 -29q56 -28 78 -28q39 0 39 42z" />
    <glyph glyph-name="atilde" unicode="&#xe3;" horiz-adv-x="621" 
d="M605 23q2 8 2 13q0 21 -15 32l-6 4l-6 2q-23 12 -24 54q1 -11 1 5v60v113q0 101 -84 142q-39 19 -71 23q-20 3 -43 4t-48 0l-68 -3l-26 -3q-35 -4 -61.5 -9.5t-43.5 -12.5q-57 -23 -57 -73t48 -60l15 -3q5 -1 10.5 -1.5t10.5 -0.5q41 0 70 30l12 13l21 21l8 7q14 8 26 8
q38 0 47 -46l2 -25l-1 -10l-56 -4l-22 -2l-34 -4q-20 -2 -39 -6.5t-39 -10.5q-121 -37 -121 -141q0 -66 40 -99q67 -53 133 -53q56 0 92 13l4 2l16 9q27 16 35 25l3 -6l6 -9l4 -5l2 -3q13 -13 40 -13h180q26 0 37 23zM325 145l-1 -4l-1 -8q-6 -15 -16 -25q-17 -19 -33 -20
q-52 -7 -52 51q0 48 28 67q11 8 18.5 12l9.5 5l43 8h4v-86zM514 648q0 55 -73 55q-20 0 -34 -12t-14 -33q0 -14 -12 -14l-47 20l-48 20q-51 19 -93 19q-45 0 -73.5 -29.5t-28.5 -72.5q0 -35 28 -47q19 -8 58 -8q48 0 48 43q0 14 12 14q3 0 61 -29q57 -28 107 -28q22 0 42 8
t35 22t23.5 32.5t8.5 39.5z" />
    <glyph glyph-name="adieresis" unicode="&#xe4;" horiz-adv-x="621" 
d="M605 23q2 8 2 13q0 21 -15 32l-6 4l-6 2q-23 12 -24 54q1 -11 1 5v60v113q0 101 -84 142q-39 19 -71 23q-20 3 -43 4t-48 0l-68 -3l-26 -3q-35 -4 -61.5 -9.5t-43.5 -12.5q-57 -23 -57 -73t48 -60l15 -3q5 -1 10.5 -1.5t10.5 -0.5q41 0 70 30l12 13l21 21l8 7q14 8 26 8
q38 0 47 -46l2 -25l-1 -10l-56 -4l-22 -2l-34 -4q-20 -2 -39 -6.5t-39 -10.5q-121 -37 -121 -141q0 -66 40 -99q67 -53 133 -53q56 0 92 13l4 2l16 9q27 16 35 25l3 -6l6 -9l4 -5l2 -3q13 -13 40 -13h180q26 0 37 23zM325 145l-1 -4l-1 -8q-6 -15 -16 -25q-17 -19 -33 -20
q-52 -7 -52 51q0 48 28 67q11 8 18.5 12l9.5 5l43 8h4v-86zM521 631q0 64 -67 64q-119 0 -119 -83q0 -66 80 -66q106 0 106 85zM286 631q0 64 -92 64q-114 0 -114 -83q0 -66 75 -66q50 0 85 18q46 22 46 67z" />
    <glyph glyph-name="aring" unicode="&#xe5;" horiz-adv-x="621" 
d="M605 23q2 8 2 13q0 21 -15 32l-6 4l-6 2q-23 12 -24 54q1 -11 1 5v60v113q0 101 -84 142q-39 19 -71 23q-20 3 -43 4t-48 0l-68 -3l-26 -3q-35 -4 -61.5 -9.5t-43.5 -12.5q-57 -23 -57 -73t48 -60l15 -3q5 -1 10.5 -1.5t10.5 -0.5q41 0 70 30l12 13l21 21l8 7q14 8 26 8
q38 0 47 -46l2 -25l-1 -10l-56 -4l-22 -2l-34 -4q-20 -2 -39 -6.5t-39 -10.5q-121 -37 -121 -141q0 -66 40 -99q67 -53 133 -53q56 0 92 13l4 2l16 9q27 16 35 25l3 -6l6 -9l4 -5l2 -3q13 -13 40 -13h180q26 0 37 23zM325 145l-1 -4l-1 -8q-6 -15 -16 -25q-17 -19 -33 -20
q-52 -7 -52 51q0 48 28 67q11 8 18.5 12l9.5 5l43 8h4v-86zM456 639q0 57 -51 84q-39 21 -102 21q-153 0 -153 -105t153 -105q63 0 102 21q51 27 51 84zM353 639q0 -58 -50 -58t-50 58t50 58t50 -58z" />
    <glyph glyph-name="ae" unicode="&#xe6;" horiz-adv-x="907" 
d="M879 320q0 78 -110 128q-68 31 -138 31q-53 0 -146 -38l-26 14q-10 5 -24 9.5t-33 6.5q-20 3 -43 4t-48 0l-68 -3l-26 -3q-35 -4 -61.5 -9.5t-43.5 -12.5q-57 -23 -57 -73t48 -60l15 -3q5 -1 10.5 -1.5t10.5 -0.5q41 0 70 30l12 13l21 21l8 7q14 8 26 8q38 0 47 -46
l2 -25l-1 -10l-56 -4l-22 -2l-34 -4q-20 -2 -39 -6.5t-39 -10.5q-121 -37 -121 -141q0 -66 40 -99q67 -53 133 -53q56 0 92 13l4 2l16 9l20 13t15 12l51 36q82 -84 235 -84q49 0 117 16q82 19 104 46q39 48 39 75t-33 32q-22 0 -36 -8q-92 -62 -141 -62q-89 0 -89 73v14
q0 2 103 14q109 14 122 21q74 42 74 111zM670 348q0 -48 -28 -70q-24 -17 -74 -26q-1 7 -1.5 14t-0.5 15q0 35 9 64q13 40 56 40q39 0 39 -37zM325 145l-1 -4l-1 -8q-6 -15 -16 -25q-17 -19 -33 -20q-52 -7 -52 51q0 48 28 67q11 8 18.5 12l9.5 5l43 8h4v-86z" />
    <glyph glyph-name="ccedilla" unicode="&#xe7;" horiz-adv-x="572" 
d="M548 110q0 46 -44 46q-9 0 -27 -8l-37 -26l-6 -4q-5 -3 -7.5 -5t-4.5 -3q-23 -16 -58 -16q-37 0 -65 23t-32 59l-5 47q0 17 1 32.5t3 29.5l2 14l4 17q6 27 15 40q21 26 41 26q19 0 46 -36l6 -8l8 -10q30 -37 72 -37l5.5 0.5l16.5 1.5l19 4q41 15 41 58t-47 72
q-79 49 -183 49q-167 0 -244 -101q-47 -62 -47 -154q0 -99 61 -159.5t173 -71.5l35 -51q7 -10 7 -17q0 -6 -34 -16q-33 -12 -33 -35q0 -21 22 -34q26 -17 70 -17q38 0 67 13q39 16 39 48q0 17 -14 34l-26 26l-49 47q50 6 103 26q106 43 106 96z" />
    <glyph glyph-name="egrave" unicode="&#xe8;" horiz-adv-x="602" 
d="M573 320q0 78 -110 128q-68 31 -138 31q-103 0 -209 -73q-97 -66 -97 -187q0 -113 94 -177q82 -54 200 -54q49 0 117 16q82 19 104 46q39 48 39 75t-33 32q-22 0 -36 -8q-92 -62 -141 -62q-89 0 -89 73v14q0 2 103 14q109 14 122 21q74 42 74 111zM364 348q0 -48 -28 -70
q-24 -17 -74 -26q-1 7 -1.5 14t-0.5 15q0 35 9 64q13 40 56 40q39 0 39 -37zM408 573q0 23 -48 58q-47 35 -47 48t-24.5 21.5t-59.5 8.5q-89 0 -89 -56q0 -37 87 -79q81 -38 127 -38q54 0 54 37z" />
    <glyph glyph-name="eacute" unicode="&#xe9;" horiz-adv-x="602" 
d="M573 320q0 78 -110 128q-68 31 -138 31q-103 0 -209 -73q-97 -66 -97 -187q0 -113 94 -177q82 -54 200 -54q49 0 117 16q82 19 104 46q39 48 39 75t-33 32q-22 0 -36 -8q-92 -62 -141 -62q-89 0 -89 73v14q0 2 103 14q109 14 122 21q74 42 74 111zM364 348q0 -48 -28 -70
q-24 -17 -74 -26q-1 7 -1.5 14t-0.5 15q0 35 9 64q13 40 56 40q39 0 39 -37zM438 653q0 56 -89 56q-84 0 -84 -30q0 -18 -48 -49q-47 -32 -47 -57q0 -37 54 -37q44 0 126 38q88 43 88 79z" />
    <glyph glyph-name="ecircumflex" unicode="&#xea;" horiz-adv-x="602" 
d="M573 320q0 78 -110 128q-68 31 -138 31q-103 0 -209 -73q-97 -66 -97 -187q0 -113 94 -177q82 -54 200 -54q49 0 117 16q82 19 104 46q39 48 39 75t-33 32q-22 0 -36 -8q-92 -62 -141 -62q-89 0 -89 73v14q0 2 103 14q109 14 122 21q74 42 74 111zM364 348q0 -48 -28 -70
q-24 -17 -74 -26q-1 7 -1.5 14t-0.5 15q0 35 9 64q13 40 56 40q39 0 39 -37zM501 577q0 31 -80 90q-79 58 -113 58q-36 0 -113 -56q-80 -59 -80 -92q0 -42 39 -42q20 0 76 28q58 29 78 29q18 0 76 -29q56 -28 78 -28q39 0 39 42z" />
    <glyph glyph-name="edieresis" unicode="&#xeb;" horiz-adv-x="602" 
d="M573 320q0 78 -110 128q-68 31 -138 31q-103 0 -209 -73q-97 -66 -97 -187q0 -113 94 -177q82 -54 200 -54q49 0 117 16q82 19 104 46q39 48 39 75t-33 32q-22 0 -36 -8q-92 -62 -141 -62q-89 0 -89 73v14q0 2 103 14q109 14 122 21q74 42 74 111zM364 348q0 -48 -28 -70
q-24 -17 -74 -26q-1 7 -1.5 14t-0.5 15q0 35 9 64q13 40 56 40q39 0 39 -37zM511 631q0 64 -67 64q-119 0 -119 -83q0 -66 80 -66q106 0 106 85zM276 631q0 64 -92 64q-114 0 -114 -83q0 -66 75 -66q50 0 85 18q46 22 46 67z" />
    <glyph glyph-name="igrave" unicode="&#xec;" horiz-adv-x="351" 
d="M341 23q3 7 3 14q0 20 -15 31l-6 4l-6 2q-22 12 -22 45v282q0 27 -1 30q-9 46 -42 46q-8 0 -11 -1l-201 -51q-34 -12 -34 -39q0 -18 15 -30l7 -4l5 -3q21 -13 22 -34l1 -196l-1 -10q-1 -24 -22 -35l-5 -2q-21 -14 -21 -34q0 -13 10.5 -25.5t29.5 -12.5h257q26 0 37 23z
M298 573q0 23 -48 58q-47 35 -47 48t-24.5 21.5t-59.5 8.5q-89 0 -89 -56q0 -37 87 -79q81 -38 127 -38q54 0 54 37z" />
    <glyph glyph-name="iacute" unicode="&#xed;" horiz-adv-x="351" 
d="M341 23q3 7 3 14q0 20 -15 31l-6 4l-6 2q-22 12 -22 45v282q0 27 -1 30q-9 46 -42 46q-8 0 -11 -1l-201 -51q-34 -12 -34 -39q0 -18 15 -30l7 -4l5 -3q21 -13 22 -34l1 -196l-1 -10q-1 -24 -22 -35l-5 -2q-21 -14 -21 -34q0 -13 10.5 -25.5t29.5 -12.5h257q26 0 37 23z
M313 653q0 56 -89 56q-84 0 -84 -30q0 -18 -48 -49q-47 -32 -47 -57q0 -37 54 -37q44 0 126 38q88 43 88 79z" />
    <glyph glyph-name="icircumflex" unicode="&#xee;" horiz-adv-x="351" 
d="M341 23q3 7 3 14q0 20 -15 31l-6 4l-6 2q-22 12 -22 45v282q0 27 -1 30q-9 46 -42 46q-8 0 -11 -1l-201 -51q-34 -12 -34 -39q0 -18 15 -30l7 -4l5 -3q21 -13 22 -34l1 -196l-1 -10q-1 -24 -22 -35l-5 -2q-21 -14 -21 -34q0 -13 10.5 -25.5t29.5 -12.5h257q26 0 37 23z
M371 577q0 31 -80 90q-79 58 -113 58q-36 0 -113 -56q-79 -58 -79 -92q0 -42 38 -42q20 0 76 28q58 29 78 29q18 0 76 -29q56 -28 78 -28q39 0 39 42z" />
    <glyph glyph-name="idieresis" unicode="&#xef;" horiz-adv-x="351" 
d="M341 23q3 7 3 14q0 20 -15 31l-6 4l-6 2q-22 12 -22 45v282q0 27 -1 30q-9 46 -42 46q-8 0 -11 -1l-201 -51q-34 -12 -34 -39q0 -18 15 -30l7 -4l5 -3q21 -13 22 -34l1 -196l-1 -10q-1 -24 -22 -35l-5 -2q-21 -14 -21 -34q0 -13 10.5 -25.5t29.5 -12.5h257q26 0 37 23z
M369 631q0 64 -60 64q-108 0 -108 -83q0 -66 72 -66q96 0 96 85zM157 631q0 64 -82 64q-101 0 -101 -83q0 -66 66 -66q48 0 79 19q38 23 38 66z" />
    <glyph glyph-name="eth" unicode="&#xf0;" horiz-adv-x="625" 
d="M226 530q14 11 18 11q9 0 22 -16t13 -25q0 -15 -30 -22q-91 -22 -150 -89q-60 -71 -60 -163q0 -110 76 -174q72 -60 183 -60q113 0 207 65q103 73 103 184q0 132 -148 276q-56 54 -102 84q-12 7 -12 15q0 9 11 17l14 9q7 5 11.5 8.5t6.5 5.5q12 9 12 19q0 13 -10.5 26
t-23.5 13q-15 0 -40 -21l-19 -15l-8 -6q-21 -15 -26 -15q-4 0 -11 3q-58 31 -97 31q-36 0 -36 -27q0 -16 32 -42t32 -28q0 -6 -7 -10l-13 -9q-39 -27 -39 -47q0 -13 10 -23.5t23 -10.5t36 18zM385 265q0 -75 -7 -103q-18 -77 -55 -77q-26 0 -44 28q-14 31 -17 90l-1 20v21
q0 29 4 53.5t7 35.5q20 50 54 50q59 0 59 -118z" />
    <glyph glyph-name="ntilde" unicode="&#xf1;" horiz-adv-x="682" 
d="M636 0q40 0 40 38q0 18 -15 30l-7 4l-5 2q-23 15 -23 45v51l1 12v79q0 109 -42.5 161t-136.5 52q-123 0 -173 -71v29l-1 5q-7 40 -40 40q-8 0 -11 -1l-181 -51q-33 -9 -33 -38q0 -21 15 -31l6 -4l5 -3q21 -13 22 -34l1 -196l-1 -7q-5 -31 -24 -38l-5 -2q-21 -14 -21 -34
q0 -13 10.5 -25.5t29.5 -12.5h255q36 0 36 37q0 23 -21 35l-5 2q-11 4 -12 6.5t-2 18.5l-1 199q0 69 50 69q33 0 40 -40l2 -12v-28l2 -35v-67l-1 -38l-1 -28v-10l-1 -10l-1 -16q-1 -3 -14 -9l-4 -2q-21 -11 -21 -34q0 -13 10.5 -25.5t29.5 -12.5h248zM524 648q0 55 -73 55
q-20 0 -34 -12t-14 -33q0 -14 -12 -14l-47 20l-48 20q-51 19 -93 19q-45 0 -73.5 -29.5t-28.5 -72.5q0 -35 28 -47q19 -8 58 -8q48 0 48 43q0 14 12 14q3 0 61 -29q57 -28 107 -28q22 0 42 8t35 22t23.5 32.5t8.5 39.5z" />
    <glyph glyph-name="ograve" unicode="&#xf2;" horiz-adv-x="624" 
d="M601 232q0 101 -63 164q-80 80 -227 80q-14 0 -93 -9q-87 -10 -142 -79q-55 -67 -55 -156q0 -85 50 -153q52 -72 137 -81l63.5 -7.5t22.5 -2.5h17q69 7 104 9q82 9 136 82q50 68 50 153zM385 264q0 -39 -1.5 -67.5t-3.5 -45.5q-12 -83 -69 -83q-29 0 -46 23
q-28 40 -28 141q0 95 24 133q22 28 50 28q30 0 46 -22q28 -38 28 -107zM428 573q0 23 -48 58q-47 35 -47 48t-24.5 21.5t-59.5 8.5q-89 0 -89 -56q0 -37 87 -79q81 -38 127 -38q54 0 54 37z" />
    <glyph glyph-name="oacute" unicode="&#xf3;" horiz-adv-x="624" 
d="M601 232q0 101 -63 164q-80 80 -227 80q-14 0 -93 -9q-87 -10 -142 -79q-55 -67 -55 -156q0 -85 50 -153q52 -72 137 -81l63.5 -7.5t22.5 -2.5h17q69 7 104 9q82 9 136 82q50 68 50 153zM385 264q0 -39 -1.5 -67.5t-3.5 -45.5q-12 -83 -69 -83q-29 0 -46 23
q-28 40 -28 141q0 95 24 133q22 28 50 28q30 0 46 -22q28 -38 28 -107zM433 653q0 56 -89 56q-84 0 -84 -30q0 -18 -48 -49q-47 -32 -47 -57q0 -37 54 -37q44 0 126 38q88 43 88 79z" />
    <glyph glyph-name="ocircumflex" unicode="&#xf4;" horiz-adv-x="624" 
d="M601 232q0 101 -63 164q-80 80 -227 80q-14 0 -93 -9q-87 -10 -142 -79q-55 -67 -55 -156q0 -85 50 -153q52 -72 137 -81l63.5 -7.5t22.5 -2.5h17q69 7 104 9q82 9 136 82q50 68 50 153zM385 264q0 -39 -1.5 -67.5t-3.5 -45.5q-12 -83 -69 -83q-29 0 -46 23
q-28 40 -28 141q0 95 24 133q22 28 50 28q30 0 46 -22q28 -38 28 -107zM496 577q0 31 -80 90q-79 58 -113 58q-36 0 -113 -56q-80 -59 -80 -92q0 -42 39 -42q20 0 76 28q58 29 78 29q18 0 76 -29q56 -28 78 -28q39 0 39 42z" />
    <glyph glyph-name="otilde" unicode="&#xf5;" horiz-adv-x="624" 
d="M601 232q0 101 -63 164q-80 80 -227 80q-14 0 -93 -9q-87 -10 -142 -79q-55 -67 -55 -156q0 -85 50 -153q52 -72 137 -81l63.5 -7.5t22.5 -2.5h17q69 7 104 9q82 9 136 82q50 68 50 153zM385 264q0 -39 -1.5 -67.5t-3.5 -45.5q-12 -83 -69 -83q-29 0 -46 23
q-28 40 -28 141q0 95 24 133q22 28 50 28q30 0 46 -22q28 -38 28 -107zM514 648q0 55 -73 55q-20 0 -34 -12t-14 -33q0 -14 -12 -14l-47 20l-48 20q-51 19 -93 19q-45 0 -73.5 -29.5t-28.5 -72.5q0 -35 28 -47q19 -8 58 -8q48 0 48 43q0 14 12 14q3 0 61 -29q57 -28 107 -28
q22 0 42 8t35 22t23.5 32.5t8.5 39.5z" />
    <glyph glyph-name="odieresis" unicode="&#xf6;" horiz-adv-x="624" 
d="M601 232q0 101 -63 164q-80 80 -227 80q-14 0 -93 -9q-87 -10 -142 -79q-55 -67 -55 -156q0 -85 50 -153q52 -72 137 -81l63.5 -7.5t22.5 -2.5h17q69 7 104 9q82 9 136 82q50 68 50 153zM385 264q0 -39 -1.5 -67.5t-3.5 -45.5q-12 -83 -69 -83q-29 0 -46 23
q-28 40 -28 141q0 95 24 133q22 28 50 28q30 0 46 -22q28 -38 28 -107zM521 631q0 64 -67 64q-119 0 -119 -83q0 -66 80 -66q106 0 106 85zM286 631q0 64 -92 64q-114 0 -114 -83q0 -66 75 -66q50 0 85 18q46 22 46 67z" />
    <glyph glyph-name="divide" unicode="&#xf7;" horiz-adv-x="630" 
d="M557 231q0 40 -12 49q-11 9 -53 9h-370q-16 0 -21 -1q-28 -4 -28 -57q0 -37 10 -47.5t39 -10.5h370q42 0 53 9q12 9 12 49zM319 0q35 0 58 16q29 20 29 51q0 34 -28 53q-27 18 -59 19q-30 1 -60 -19q-34 -22 -32 -58q1 -27 25.5 -44.5t66.5 -17.5zM319 321q35 0 58 16
q29 20 29 51q0 34 -28 53q-27 18 -59 19q-30 1 -60 -19q-34 -22 -32 -58q1 -27 25.5 -44.5t66.5 -17.5z" />
    <glyph glyph-name="oslash" unicode="&#xf8;" horiz-adv-x="624" 
d="M601 232q0 127 -94 190l53 66q7 7 7 20q0 24 -20 24q-21 0 -32 -8q-4 -2 -23 -27l-38 -47q-69 26 -143 26q-14 0 -93 -9q-87 -10 -142 -79q-55 -67 -55 -156q0 -132 101 -197l-40 -47l-14 -18q-5 -5 -5 -10q0 -4 9 -11l14 -11h13q18 0 41 27l37 44q64 -21 117 -21h17
q69 7 104 9q82 9 136 82q50 68 50 153zM371 346l-132 -165l-2 51q-4 91 24 133q22 28 50 28q31 0 50 -28zM385 264q0 -39 -1.5 -67.5t-3.5 -45.5q-12 -83 -69 -83q-29 0 -50 29l-6 10l130 162v-5z" />
    <glyph glyph-name="ugrave" unicode="&#xf9;" horiz-adv-x="679" 
d="M632 0q40 0 40 38q0 20 -16 30l-6 4l-4 2q-24 12 -24 45v282q0 34 -9 57q-7 19 -32 19q-8 0 -11 -1l-203 -51q-32 -14 -32 -39q0 -20 15 -30l9 -6l3 -1q18 -10 22 -34v-130l-2 -38l-1 -6l-2 -8l-2 -7q-7 -25 -37 -28q-6 0 -8 -1q-31 0 -35 27l4 277q1 31 -9 57
q-7 19 -33 19q-8 0 -11 -1l-201 -51q-34 -12 -34 -39q0 -18 15 -30l7 -4l5 -3q18 -10 23 -35l-7 -186q-2 -60 45.5 -98t131.5 -38h14q7 0 12 1l55 7q40 4 82 46l9 9l1 -6q4 -21 16.5 -35t27.5 -14h182zM448 573q0 23 -48 58q-47 35 -47 48t-24.5 21.5t-59.5 8.5
q-89 0 -89 -56q0 -37 87 -79q81 -38 127 -38q54 0 54 37z" />
    <glyph glyph-name="uacute" unicode="&#xfa;" horiz-adv-x="679" 
d="M632 0q40 0 40 38q0 20 -16 30l-6 4l-4 2q-24 12 -24 45v282q0 34 -9 57q-7 19 -32 19q-8 0 -11 -1l-203 -51q-32 -14 -32 -39q0 -20 15 -30l9 -6l3 -1q18 -10 22 -34v-130l-2 -38l-1 -6l-2 -8l-2 -7q-7 -25 -37 -28q-6 0 -8 -1q-31 0 -35 27l4 277q1 31 -9 57
q-7 19 -33 19q-8 0 -11 -1l-201 -51q-34 -12 -34 -39q0 -18 15 -30l7 -4l5 -3q18 -10 23 -35l-7 -186q-2 -60 45.5 -98t131.5 -38h14q7 0 12 1l55 7q40 4 82 46l9 9l1 -6q4 -21 16.5 -35t27.5 -14h182zM463 653q0 56 -89 56q-84 0 -84 -30q0 -18 -48 -49q-47 -32 -47 -57
q0 -37 54 -37q44 0 126 38q88 43 88 79z" />
    <glyph glyph-name="ucircumflex" unicode="&#xfb;" horiz-adv-x="679" 
d="M632 0q40 0 40 38q0 20 -16 30l-6 4l-4 2q-24 12 -24 45v282q0 34 -9 57q-7 19 -32 19q-8 0 -11 -1l-203 -51q-32 -14 -32 -39q0 -20 15 -30l9 -6l3 -1q18 -10 22 -34v-130l-2 -38l-1 -6l-2 -8l-2 -7q-7 -25 -37 -28q-6 0 -8 -1q-31 0 -35 27l4 277q1 31 -9 57
q-7 19 -33 19q-8 0 -11 -1l-201 -51q-34 -12 -34 -39q0 -18 15 -30l7 -4l5 -3q18 -10 23 -35l-7 -186q-2 -60 45.5 -98t131.5 -38h14q7 0 12 1l55 7q40 4 82 46l9 9l1 -6q4 -21 16.5 -35t27.5 -14h182zM516 577q0 31 -80 90q-79 58 -113 58q-36 0 -113 -56q-80 -59 -80 -92
q0 -42 39 -42q20 0 76 28q58 29 78 29q18 0 76 -29q56 -28 78 -28q39 0 39 42z" />
    <glyph glyph-name="udieresis" unicode="&#xfc;" horiz-adv-x="679" 
d="M632 0q40 0 40 38q0 20 -16 30l-6 4l-4 2q-24 12 -24 45v282q0 34 -9 57q-7 19 -32 19q-8 0 -11 -1l-203 -51q-32 -14 -32 -39q0 -20 15 -30l9 -6l3 -1q18 -10 22 -34v-130l-2 -38l-1 -6l-2 -8l-2 -7q-7 -25 -37 -28q-6 0 -8 -1q-31 0 -35 27l4 277q1 31 -9 57
q-7 19 -33 19q-8 0 -11 -1l-201 -51q-34 -12 -34 -39q0 -18 15 -30l7 -4l5 -3q18 -10 23 -35l-7 -186q-2 -60 45.5 -98t131.5 -38h14q7 0 12 1l55 7q40 4 82 46l9 9l1 -6q4 -21 16.5 -35t27.5 -14h182zM556 631q0 64 -67 64q-119 0 -119 -83q0 -66 80 -66q106 0 106 85z
M321 631q0 64 -92 64q-114 0 -114 -83q0 -66 75 -66q50 0 85 18q46 22 46 67z" />
    <glyph glyph-name="yacute" unicode="&#xfd;" horiz-adv-x="586" 
d="M597 438q-11 24 -37 24h-139q-42 0 -42 -39q0 -20 23 -32l6 -3q25 -12 25 -55q0 -53 -21 -137l-11 -43l-12 -34l-3 -10l-3 -6l-6 -13q-3 -5 -10 -5q-4 0 -12 5q-17 15 -27 42q-9 23 -18 50.5t-17 60.5q-21 83 -17 110q5 27 23 35l5 3q22 10 22 33q0 38 -40 38h-262
q-36 0 -36 -38q0 -17 10 -24l2 -2l8 -7l15 -11q4 -4 9 -16l6 -17l15 -51l23 -103q19 -85 59 -140q35 -48 109 -53l16 -1l33 -1h25q-5 -21 -28 -47q-23 -27 -42 -27q-12 0 -37 18q-26 18 -49 18q-14 0 -27 -3l-13 -3q-43 -16 -43 -60q0 -39 37 -60q30 -18 71 -18q60 0 125 40
q103 61 165 203q19 44 42 119q16 55 24 111l7 54l1 14l1 7q1 15 22 24l4 3q22 10 22 33q0 6 -3 14zM493 653q0 56 -89 56q-84 0 -84 -30q0 -18 -48 -49q-47 -32 -47 -57q0 -37 54 -37q44 0 126 38q88 43 88 79z" />
    <glyph glyph-name="thorn" unicode="&#xfe;" horiz-adv-x="703" 
d="M676 227q0 124 -70 184q-74 63 -130 63q-48 0 -78 -14l-49.5 -25.5l-16.5 -8.5l-31 -12l-7 191q-3 73 -43 73q-8 0 -209 -52q-34 -9 -34 -39q0 -21 23 -35q24 -12 24 -43q0 35 0 -35t1 -247v-213v-68q0 -30 -25 -46q-24 -17 -24 -35q0 -16 12 -27t28 -11h260q39 0 39 38
q0 21 -25 36q-24 13 -24 45v344q0 33 17 56q18 26 51 26q40 0 60 -65q13 -42 13 -98q0 -62 -14 -87q-7 -13 -50 -30q-35 -14 -35 -43q0 -27 15.5 -44t42.5 -17q71 0 179 38q78 28 88 103q12 85 12 98z" />
    <glyph glyph-name="ydieresis" unicode="&#xff;" horiz-adv-x="586" 
d="M597 438q-11 24 -37 24h-139q-42 0 -42 -39q0 -21 23 -32l6 -3q25 -12 25 -55q0 -53 -21 -137l-11 -43l-12 -34l-3 -10l-3 -6l-6 -13q-3 -5 -10 -5q-4 0 -12 5q-17 15 -27 42q-9 23 -18 50.5t-17 60.5q-21 83 -17 110q5 27 23 35l5 3q22 10 22 33q0 38 -40 38h-262
q-36 0 -36 -38q0 -17 10 -24l2 -2l8 -7l15 -11q4 -4 9 -16l6 -17l15 -51l23 -103q19 -85 59 -140q35 -48 109 -53l16 -1l33 -1h25q-5 -21 -28 -47q-23 -27 -42 -27q-12 0 -37 18q-26 18 -49 18q-14 0 -27 -3l-13 -3q-43 -16 -43 -60q0 -39 37 -60q30 -18 71 -18q60 0 125 40
q103 61 165 203q19 44 42 119q16 55 24 111l7 54l1 14l1 7q1 15 22 24l4 3q22 10 22 33q0 6 -3 14zM516 631q0 64 -67 64q-119 0 -119 -83q0 -66 80 -66q106 0 106 85zM281 631q0 64 -92 64q-114 0 -114 -83q0 -66 75 -66q50 0 85 18q46 22 46 67z" />
    <glyph glyph-name="minus" unicode="&#xe000;" horiz-adv-x="833" 
d="M833 200v159h-833v-159h833z" />
    <glyph glyph-name="Ccircumflex" unicode="&#xe001;" horiz-adv-x="780" 
d="M749 179q-14 36 -46 36q-23 0 -64 -41q-17 -17 -30 -27q-56 -43 -132 -43q-27 0 -52.5 9t-46.5 25.5t-36.5 38.5t-22.5 49q-20 71 -20 92v44q0 70 14 124q15 56 56 94q44 40 100 40q17 0 54 -8q13 -3 27 -11t27 -20t23 -26t16 -29l11 -30q6 -15 25 -25.5t38 -10.5
q42 0 48 33q3 10 3 26q0 8 -2 27.5t-6 49.5l-2 15l-15 23q-17 20 -94 50l-23 9q-60 23 -142 23q-30 0 -35 -1l-101 -15q-110 -17 -198 -124t-88 -220q0 -95 47 -178q49 -84 130 -131q97 -55 229 -60q145 -4 246 74q65 51 65 100q0 10 -3 18zM634 767q0 31 -80 90
q-79 58 -113 58q-36 0 -113 -56q-80 -59 -80 -92q0 -42 39 -42q20 0 76 28q58 29 78 29q18 0 76 -29q56 -28 78 -28q39 0 39 42z" />
    <glyph glyph-name="ccircumflex" unicode="&#xe002;" horiz-adv-x="572" 
d="M548 110q0 46 -44 46q-9 0 -27 -8l-37 -26l-6 -4q-5 -3 -7.5 -5t-4.5 -3q-23 -16 -58 -16q-37 0 -65 23t-32 59l-5 47q0 17 1 32.5t3 29.5l2 14l4 17q6 27 15 40q21 26 41 26q19 0 46 -36l6 -8l8 -10q30 -37 72 -37l5.5 0.5l16.5 1.5l19 4q41 15 41 58t-47 72
q-79 49 -183 49q-167 0 -244 -101q-47 -62 -47 -154q0 -117 79 -178q74 -56 192 -56q84 0 157 29q45 18 72 44.5t27 49.5zM496 577q0 31 -80 90q-79 58 -113 58q-36 0 -113 -56q-80 -59 -80 -92q0 -42 39 -42q20 0 76 28q58 29 78 29q18 0 76 -29q56 -28 78 -28q39 0 39 42z
" />
    <glyph glyph-name="Gcircumflex" unicode="&#xe003;" horiz-adv-x="822" 
d="M787 131l-3 8l-1 4q-16 63 -16 117l2 19l6 31l5 20q3 12 3 20q0 38 -38 38h-183q-106 0 -130 -7q-33 -9 -33 -57q0 -46 58 -46q10 0 15 1h22q30 0 38 -33l1 -9l1 -7v-39q0 -85 -78 -85q-55 0 -99 56q-39 51 -46 109l-9 72v19q0 4 1 18.5t1 18.5q0 103 50 162
q47 56 127 56q42 0 71 -12q57 -24 76 -73l10 -26q13 -36 60 -36q35 0 44 56q1 8 1.5 28t0.5 53q0 26 -15 37q-21 18 -71 35l-29 10q-80 28 -199 28q-231 0 -337 -171q-50 -80 -55 -124q-2 -21 -3 -34.5t-2 -18.5v-18q0 -165 117 -267q69 -60 127 -78q32 -8 143 -19h24
q8 0 19 0.5t27 1.5q71 4 151 30q93 32 128 74l9 11q10 13 9 27zM642 767q0 31 -80 90q-79 58 -113 58q-36 0 -113 -56q-80 -59 -80 -92q0 -42 39 -42q20 0 76 28q58 29 78 29q18 0 76 -29q56 -28 78 -28q39 0 39 42z" />
    <glyph glyph-name="gcircumflex" unicode="&#xe004;" horiz-adv-x="666" 
d="M646 395q7 10 7 24q0 46 -75 48l-80 1q-58 2 -77 3q-89 3 -121 3q-14 0 -71 -6t-113 -46q-61 -43 -73 -95q-7 -28 -10 -49.5t-3 -36.5q0 -103 75 -161q67 -52 175 -52q60 0 91 7q23 0 37.5 -16.5t14.5 -37.5q0 -59 -86 -61q-43 -1 -61 13q-9 8 -6 20q10 13 10 23
q0 30 -99 30q-40 0 -67 -7q-76 -22 -76 -78q0 -34 28 -55q64 -49 189 -49q158 0 229 16q153 34 153 139q0 61 -33 78q-58 31 -80 33q96 46 96 164q0 14 -1 26.5t-3 23.5t-9 29t-20 41h12q33 4 47 28zM390 249q0 -64 -5 -89q-12 -55 -55 -55q-41 0 -55 53q-6 25 -6 88v24
q0 124 58 124q43 0 57 -54q6 -27 6 -91zM526 577q0 31 -80 90q-79 58 -113 58q-36 0 -113 -56q-80 -59 -80 -92q0 -42 39 -42q20 0 76 28q58 29 78 29q18 0 76 -29q56 -28 78 -28q39 0 39 42z" />
    <glyph glyph-name="Hcircumflex" unicode="&#xe005;" horiz-adv-x="831" 
d="M814 25q3 7 3 16q0 22 -23 37l-3 2l-3 1q-21 12 -24 38l-1 452l1 10q3 28 24 38l6 3q23 12 23 36q0 42 -43 42h-280q-44 0 -44 -41q0 -25 23 -37l3 -2l3 -1q22 -10 25 -38l1 -154h-178v154q5 29 25 38l5 3q23 14 23 36q0 8 -3 17q-12 25 -40 25h-281q-42 0 -42 -41
q0 -26 23 -37l3 -2l3 -1q19 -10 24 -38v-462q-4 -27 -24 -38l-6 -3q-23 -11 -23 -37q0 -5 1 -12t5.5 -13.5t12.5 -11t23 -4.5h281q27 0 35 17q8 18 8 24q0 23 -23 37l-5 3q-21 10 -25 38v210h178v-200l-1 -10q-3 -28 -25 -38l-6 -3q-23 -11 -23 -36q0 -16 11.5 -29t32.5 -13
h280q30 0 40 25zM610 767q0 31 -80 90q-79 58 -113 58q-36 0 -113 -56q-80 -59 -80 -92q0 -42 39 -42q20 0 76 28q58 29 78 29q18 0 76 -29q56 -28 78 -28q39 0 39 42z" />
    <glyph glyph-name="hcircumflex" unicode="&#xe006;" horiz-adv-x="680" 
d="M633 0q40 0 40 38q0 18 -15 30l-7 4l-4 2q-8 4 -12.5 8.5t-7 12t-3.5 19.5t-1 32v142q0 91 -52.5 140.5t-149.5 49.5q-66 0 -117 -36l-10 -7v211q0 32 -1 37q-1 10 -11 23q-12 16 -31 16q-7 0 -10 -1l-201 -51q-34 -12 -34 -39q0 -18 15 -30l7 -4l5 -3q21 -13 22 -34
l1 -441l-1 -10q-1 -24 -22 -35l-5 -2q-21 -14 -21 -34q0 -9 7 -22q9 -16 22 -16h258q40 0 40 37q0 26 -22 35l-5 2q-12 7 -12 45v196l1 12q5 50 39 50q50 0 50 -46v-232q0 -18 -13 -25l-5 -2q-21 -14 -21 -34q0 -13 10.5 -25.5t29.5 -12.5h247zM536 767q0 31 -80 90
q-79 58 -113 58q-36 0 -113 -56q-80 -59 -80 -92q0 -42 39 -42q20 0 76 28q58 29 78 29q18 0 76 -29q56 -28 78 -28q39 0 39 42z" />
    <glyph glyph-name="Jcircumflex" unicode="&#xe007;" horiz-adv-x="620" 
d="M603 675q-10 25 -41 25h-280q-43 0 -43 -41q0 -26 23 -37l5 -3q22 -10 26 -38l1 -322v-95q0 -20 -3 -30q-4 -9 -7 -16.5t-7 -12.5q-10 -19 -36 -19q-19 0 -32.5 15t-13.5 29q0 3 2 9t4.5 12t5.5 11t6 7l5 3l8 4l3 3l5 4q23 18 23 51q0 38 -29 64q-35 30 -83 30
q-64 0 -104 -54q-36 -50 -36 -115q7 -77 54 -117q18 -16 38 -25.5t41 -15t43 -8.5l43 -6h58q269 0 269 205l1 379v10q5 29 25 38l5 3q24 13 24 37q0 8 -3 16zM614 767q0 31 -80 90q-79 58 -113 58q-36 0 -113 -56q-80 -59 -80 -92q0 -42 39 -42q20 0 76 28q58 29 78 29
q18 0 76 -29q56 -28 78 -28q39 0 39 42z" />
    <glyph glyph-name="jcircumflex" unicode="&#xe008;" horiz-adv-x="346" 
d="M297 -54v455q0 77 -41 77q-3 0 -13 -2l-201 -51q-34 -12 -34 -39q0 -18 15 -30l7 -4l5 -3q23 -14 23 -52v-351l1 -6l2 -16l-1 -9q-2 -11 -7 -12q-16 -1 -16 22q-4 46 -72 46l-15 -2q-43 -10 -43 -57q0 -67 84 -89q51 -14 91 -14q66 0 126 23q89 35 89 114zM361 577
q0 31 -80 90q-79 58 -113 58q-36 0 -112 -57q-79 -58 -79 -91q0 -18 11 -30t26 -12q20 0 76 28q58 29 78 29q18 0 76 -29q56 -28 78 -28q39 0 39 42z" />
    <glyph glyph-name="Scircumflex" unicode="&#xe009;" horiz-adv-x="720" 
d="M681 196q10 37 10 71q0 72 -30 110.5t-99 55.5q-2 1 -5.5 2t-8.5 2l-148 43l-6 2l-15 3l-20 5q-67 16 -67 66q0 32 27 51.5t78 19.5q65 0 88 -27q33 -39 38 -55q15 -43 30.5 -55.5t40.5 -12.5q49 0 49 70v13q0 4 -1 13.5t-3 25.5t-4 26t-6 17t-11 11t-17 9q-20 8 -44 16
t-53 15q-36 9 -60 13.5t-36 5.5q-5 1 -18 1.5t-33 0.5q-136 0 -224 -66q-98 -72 -98 -180q0 -103 88 -163q39 -26 74 -39q10 -4 20 -7t20 -7q7 -2 13.5 -3t14.5 -2l105 -20q74 -14 68 -70q0 -32 -50 -58l-12 -6q-27 -9 -62 -9q-73 0 -109 36q-9 7 -14 16l-31 42.5t-19 23.5
q-24 24 -55 24t-49.5 -20.5t-18.5 -55.5q0 -72 100 -117q44 -19 74 -27q79 -18 149 -18q115 0 207 48q106 57 133 160zM542 767q0 31 -80 90q-79 58 -113 58q-36 0 -113 -56q-80 -59 -80 -92q0 -42 39 -42q20 0 76 28q58 29 78 29q18 0 76 -29q56 -28 78 -28q39 0 39 42z
" />
    <glyph glyph-name="scircumflex" unicode="&#xe00a;" horiz-adv-x="562" 
d="M510 378q-5 45 -20 59q-20 19 -81 29q-24 4 -46 6t-42 2q-78 0 -125 -11q-63 -13 -110 -56q-44 -38 -45 -102q-1 -52 42 -94q34 -34 71 -40l72 -21l24 -8q30 -14 30 -36q0 -17 -22 -27q-18 -8 -33 -8q-49 0 -77 37l-23 29l-2 2q-12 16 -43 16q-24 0 -40 -15t-16 -39
q0 -55 64 -83q22 -10 68 -18q60 -12 129 -12l37 4q44 4 88 21q118 46 118 144q0 31 -15.5 60t-36.5 43q-17 11 -28.5 17.5t-18.5 8.5l-76 23l-10 4l-14 5l-9 4l-8 3l-12 6q-21 10 -21 27q0 34 67 34q37 0 58 -24q7 -7 26 -43q12 -24 28 -24q13 0 16 1q38 0 38 54q0 1 -0.5 6
t-1.5 16zM461 577q0 31 -80 90q-79 58 -113 58q-36 0 -113 -56q-80 -59 -80 -92q0 -42 39 -42q20 0 76 28q58 29 78 29q18 0 76 -29q56 -28 78 -28q39 0 39 42z" />
    <glyph glyph-name="Umacron" unicode="&#xe00b;" horiz-adv-x="758" 
d="M734 675q-10 25 -40 25h-134q-43 0 -43 -41q0 -26 23 -37l2 -2l3 -1q22 -11 23 -30l3 -30l6 -106l3 -64q1 -20 1.5 -60.5t0.5 -103.5q0 -18 -1 -20q-3 -55 -22 -77q-34 -43 -115 -43q-36 0 -70 22q-30 21 -44 44q-23 40 -23 98q0 9 0.5 27t1.5 44l5 114q2 57 3.5 93
t2.5 53q6 29 28 39l6 3q23 12 23 37q0 41 -44 41h-269q-43 0 -43 -41q0 -27 24 -37l3 -2l3 -1q16 -9 21 -22t3 -47l-7 -120l-5 -112q-8 -164 57 -243q58 -69 141 -77l81 -7.5t24 -2.5h57q165 0 218 80q55 85 55 253q0 15 -0.5 30.5t-1.5 31.5l-10 152q-1 9 -1 16v15
q0 39 26 53l5 3q23 14 23 37q0 8 -3 16zM579 891q0 18 -20 18l-72 -57q-41 -26 -93 -26q-77 0 -175 83q-20 0 -20 -18q0 -64 67 -118q64 -50 128 -50q66 0 125 51q60 52 60 117z" />
    <glyph glyph-name="umacron" unicode="&#xe00c;" horiz-adv-x="679" 
d="M632 0q40 0 40 38q0 20 -16 30l-6 4l-4 2q-24 12 -24 45v282q0 34 -9 57q-7 19 -32 19q-8 0 -11 -1l-203 -51q-32 -14 -32 -39q0 -20 15 -30l9 -6l3 -1q18 -10 22 -34v-130l-2 -38l-1 -6l-2 -8l-2 -7q-7 -25 -37 -28q-6 0 -8 -1q-31 0 -35 27l4 277q1 31 -9 57
q-7 19 -33 19q-8 0 -11 -1l-201 -51q-34 -12 -34 -39q0 -18 15 -30l7 -4l5 -3q18 -10 23 -35l-7 -186q-2 -60 45.5 -98t131.5 -38h14q7 0 12 1l55 7q40 4 82 46l9 9l1 -6q4 -21 16.5 -35t27.5 -14h182zM519 721q0 18 -20 18l-72 -57q-41 -26 -93 -26q-77 0 -175 83
q-20 0 -20 -18q0 -64 67 -118q64 -50 128 -50q66 0 125 51q60 52 60 117z" />
    <glyph glyph-name="longs" unicode="&#xe00d;" horiz-adv-x="396" 
d="M302 109l-6 353v105l-4 22q0 7 -1 10q0 23 11 17q5 -2 6 -8l1 -4l1 -6l2 -4q8 -23 44 -23q15 0 33.5 5t30.5 29q10 16 10 36q0 28 -25 50q-26 23 -53 27q-25 4 -40.5 6t-22.5 2q-116 0 -170.5 -59.5t-54.5 -186.5v-361l-1 -10q-1 -24 -22 -35l-5 -2q-22 -13 -22 -34
q0 -38 40 -38h258q40 0 40 37q0 18 -16 31l-5 4l-5 2q-19 10 -24 35z" />
    <glyph glyph-name="filledbox" unicode="&#xe00e;" horiz-adv-x="685" 
d="M685 0v700h-685v-700h685z" />
    <glyph glyph-name="H22073" unicode="&#xe00f;" horiz-adv-x="800" 
d="M50 0h700v800h-700v-800zM700 50h-600v700h600v-700z" />
    <glyph glyph-name="DST" unicode="&#xe010;" horiz-adv-x="1426" 
d="M1415 -38v838h-1404v-838h1404zM1390 562q0 -29 -22 -50t-51 -21h-146q-35 0 -35 -45v-302q0 -30 19 -42v-56q-72 16 -72 86v322q0 96 115 96q16 0 48 -3q17 -1 29 -1.5t20 -0.5q40 0 40 21q0 19 -41 19q-8 0 -20 -0.5t-28 -1.5t-27.5 -1.5t-19.5 -0.5q-116 0 -116 88
v131h57v-131q0 -35 37 -35h148q27 0 46 -21t19 -51zM1003 136q0 -39 -23.5 -63.5t-62.5 -24.5h-282q-30 0 -50 20t-20 50q0 31 18 52t47 21h279v-53h-270q-20 0 -20 -18q0 -21 22 -21h250q61 0 61 45v76q0 45 -45 45h-250q-42 0 -67 25t-25 67v89q0 45 26.5 73.5t71.5 28.5
h246q76 0 89 -76h-50q-20 21 -43 21h-244q-41 0 -41 -43v-95q0 -37 41 -37h246q45 0 70.5 -23t25.5 -65v-94zM496 800l-1 -684q0 -30 -21.5 -52t-51.5 -22q-32 0 -52 22t-20 55q0 68 -0.5 110t-1.5 59q-2 9 -87 93l-95 93q-14 14 -27 14q-10 0 -17 -6q-8 -26 -8 -32v-310
q0 -43 35 -43h81q13 6 25 21h53q-14 -72 -77 -72h-82q-88 0 -88 96v330q0 31 26 51q23 17 56 17t52 -19l179 -177q31 -31 31 -75v-151q0 -21 19 -21q6 0 12 7.5t6 13.5l-2 682h56z" />
  </font>
</defs>
</svg>
