<?xml version="1.0" encoding="utf-8"?>
<svg id="master-artboard" viewBox="0 0 623.0125122070312 437.1711730957031" version="1.1" xmlns="http://www.w3.org/2000/svg" x="0px" y="0px" style="enable-background:new 0 0 1096 780;" width="623.0125122070312px" height="437.1711730957031px"><rect id="ee-background" x="0" y="0" width="623.0125122070312" height="437.1711730957031" style="fill: white; fill-opacity: 0; pointer-events: none;"/>

<g transform="matrix(1.5252049479847343, 0, 0, 1.5252049479847343, -628.8138477988961, -657.3060910887149)">
		<path class="st0" d="M534.4,479.1c0.1,0,0.3,0,0.4,0c0.2,0,0.3,0,0.5,0c0,0,0.1,0,0.1,0c0.1,0,0.4,0,0.7,0&#10;&#9;&#9;&#9;c12.4-6.3,21-22.7,20.4-30.5c-0.2-2.6-1.1-2.9-2.9-2.9c-1.2,0-2.7,0.3-4.5,0.8c-17,5.3-16.6,23.2-15,32.6&#10;&#9;&#9;&#9;C534.2,479.1,534.3,479.1,534.4,479.1z" style="fill: none;" transform="matrix(1.4670394415154993, 0, 0, 1.4670394415154993, -194.37393939922376, -203.1758683612056)"/>
		<path class="st0" d="M524,484.9c-4.1-6.2-19.5-14.1-31.2-14.1c-3.5,0-6,0.8-6.9,2.1c-1.1,1.6-0.8,5.1,0.9,9.5&#10;&#9;&#9;&#9;c4.3,11.2,10.3,12.5,14.5,12.5C509.4,494.9,518.9,488.9,524,484.9z" style="fill: none;" transform="matrix(1.4670394415154993, 0, 0, 1.4670394415154993, -194.37393939922376, -203.1758683612056)"/>
		
		
		
		
		
		
		
		
		
		
		
		
		
		
		
		
		
		
		
		
		
		
		
		
		<path class="st1" d="M502.8,535c-23-9.3-51.9-2.3-63.3,14.8c-16.6,24.9-3.6,59.2,21.3,61.5c24.9,2.4,42.2-5.6,22.5-32&#10;&#9;&#9;&#9;c-16.3-21.8-30.8,0-30.8,0C447.1,570.5,470.4,552.5,502.8,535C502.8,535,502.8,535,502.8,535C502.8,535,502.8,535,502.8,535z" style="fill: rgb(114, 62, 61);" transform="matrix(1.4670394415154993, 0, 0, 1.4670394415154993, -194.37393939922376, -203.1758683612056)"/>
		<path class="st2" d="M596.1,537.1l-72.4,29.7c0,0-10.6-21.9-36.8-22.7c5-3,10.3-6,15.9-9.1c0,0,0,0,0,0&#10;&#9;&#9;&#9;c-32.4,17.5-55.7,35.4-50.3,44.4c0,0,14.4-21.8,30.8,0c19.8,26.3,2.4,34.3-22.5,32c-24.9-2.4-37.9-36.7-21.3-61.5&#10;&#9;&#9;&#9;c11.4-17.1,40.3-24.1,63.3-14.8c0,0,0,0,0,0s20.1,7.1,25.4,23.1l65.8-27.6c-2.7-7.3-6.6-13.8-11.6-19.3&#10;&#9;&#9;&#9;c-9.6-10.6-21.7-16-31.3-18.8c-3.6-0.4-7-0.9-9.7-1.4c4.7,6.8,9.6,17.4,9,31.7c-0.1,2.9-2.5,5.1-5.3,5.1c-0.1,0-0.2,0-0.2,0&#10;&#9;&#9;&#9;c-2.9-0.1-5.2-2.6-5.1-5.6c0.6-14.5-5.8-24.1-9.7-28.6c-5.8,4.4-17.2,11.8-28.6,11.8c-2.5,0-5.3-0.4-8.2-1.4&#10;&#9;&#9;&#9;c-31.9,15.7-59.6,31-67.9,39.8c-22.5,23.7-2.4,88.8,45,79.3c27-5.4,84.6-30.5,129-51c-0.4-0.8-0.6-1.7-0.5-2.6&#10;&#9;&#9;&#9;C599.5,557.5,598.7,546.7,596.1,537.1z" style="fill: rgb(217, 105, 104);" transform="matrix(1.4670394415154993, 0, 0, 1.4670394415154993, -194.37393939922376, -203.1758683612056)"/>
		<path class="st2" d="M619.3,451.6c-3.6-0.9-29.9,9.1-62.1,23c-1.8,2.4-3.9,4.7-6.1,6.8c0.6,0.2,1.3,0.3,2,0.5&#10;&#9;&#9;&#9;c10.4,1.1,22.3,0.9,28.8-3.6c2.4-1.7,5.7-1,7.4,1.4c1.7,2.4,1,5.7-1.4,7.4c-3.4,2.3-7.6,3.9-12.1,4.8c5,3.2,10,7.2,14.5,12.2&#10;&#9;&#9;&#9;c5.8,6.4,10.4,13.9,13.6,22.3l54.2-22.7c1.1,1.6,2,3.2,2.7,4.8c-0.8-1.6-1.7-3.2-2.7-4.8l31.1-13&#10;&#9;&#9;&#9;C689.1,490.7,675.6,465.7,619.3,451.6z" style="fill: rgb(217, 105, 104);" transform="matrix(1.4670394415154993, 0, 0, 1.4670394415154993, -194.37393939922376, -203.1758683612056)"/>
		<path class="st2" d="M606,533c2.9,10.2,4,21.7,3.4,34.4c28.2-13.2,48.9-23.5,48.9-23.5s11.4-16,2.5-35.1c0.2,0.5,0.5,1,0.7,1.5&#10;&#9;&#9;&#9;L606,533z" style="fill: rgb(217, 105, 104);" transform="matrix(1.4670394415154993, 0, 0, 1.4670394415154993, -194.37393939922376, -203.1758683612056)"/>
		<path class="st3" d="M502.8,535C502.8,535,502.8,535,502.8,535C502.8,535,502.8,535,502.8,535C502.8,535,502.8,535,502.8,535&#10;&#9;&#9;&#9;C502.8,535.1,502.8,535.1,502.8,535c-5.6,3-10.9,6.1-15.9,9.1c26.1,0.8,36.8,22.7,36.8,22.7l72.4-29.7c-0.6-2.3-1.3-4.4-2.1-6.5&#10;&#9;&#9;&#9;l-65.8,27.6C522.9,542.2,502.8,535,502.8,535z" style="fill: rgb(188, 96, 95);" transform="matrix(1.4670394415154993, 0, 0, 1.4670394415154993, -194.37393939922376, -203.1758683612056)"/>
		<path class="st3" d="M603.8,526.4c0.8,2.1,1.6,4.3,2.2,6.6l55.5-22.7c-0.2-0.5-0.4-1-0.7-1.5c0-0.1-0.1-0.1-0.1-0.2&#10;&#9;&#9;&#9;c-0.8-1.6-1.7-3.2-2.7-4.8L603.8,526.4z" style="fill: rgb(188, 96, 95);" transform="matrix(1.4670394415154993, 0, 0, 1.4670394415154993, -194.37393939922376, -203.1758683612056)"/>
		
		
		
		
		
		
		
		
		
		
		
		
		
		
		
		
		
		
		<path class="st5" d="M606,533c-0.6-2.3-1.4-4.5-2.2-6.6c-3.2-8.4-7.7-15.9-13.6-22.3c-4.5-5-9.5-9-14.5-12.2&#10;&#9;&#9;&#9;c4.5-0.9,8.6-2.4,12.1-4.8c2.4-1.7,3-5,1.4-7.4c-1.7-2.4-5-3-7.4-1.4c-6.5,4.4-18.4,4.6-28.8,3.6c-0.7-0.2-1.3-0.4-2-0.5&#10;&#9;&#9;&#9;c2.3-2.1,4.3-4.4,6.1-6.8c6.8-8.9,10.6-19.4,9.9-27c-0.9-10.1-9.2-15.1-21.2-11.3c-17.4,5.4-22.8,20-23.2,33.3&#10;&#9;&#9;&#9;c-9.1-5.8-21.1-9.6-30-9.6c-9.1,0-13.6,3.7-15.7,6.8c-3.3,4.8-3.4,11.3-0.2,19.4c4.2,10.7,10.3,15.8,16.2,17.9&#10;&#9;&#9;&#9;c2.9,1,5.7,1.4,8.2,1.4c11.4,0,22.8-7.4,28.6-11.8c4,4.5,10.3,14.1,9.7,28.6c-0.1,2.9,2.2,5.4,5.1,5.6c0.1,0,0.2,0,0.2,0&#10;&#9;&#9;&#9;c2.8,0,5.2-2.2,5.3-5.1c0.6-14.3-4.3-25-9-31.7c2.7,0.5,6.1,1,9.7,1.4c9.6,2.8,21.7,8.2,31.3,18.8c5,5.5,8.9,12,11.6,19.3&#10;&#9;&#9;&#9;c0.8,2.1,1.5,4.3,2.1,6.5c2.6,9.5,3.4,20.4,2.6,32.5c-0.1,0.9,0.1,1.8,0.5,2.6c0.8,1.7,2.4,2.9,4.4,3.1c0.1,0,0.3,0,0.4,0&#10;&#9;&#9;&#9;c2.8,0,5.1-2.1,5.3-5c0.1-1,0.1-1.9,0.2-2.9C610.1,554.7,609,543.3,606,533z M549.1,446.5c1.7-0.5,3.3-0.8,4.5-0.8&#10;&#9;&#9;&#9;c1.8,0,2.7,0.3,2.9,2.9c0.7,7.8-8,24.2-20.4,30.5c-0.4,0-0.6,0-0.7,0c0,0-0.1,0-0.1,0c-0.2,0-0.3,0-0.5,0c-0.1,0-0.3,0-0.4,0&#10;&#9;&#9;&#9;c-0.1,0-0.2,0-0.3,0C532.6,469.7,532.1,451.8,549.1,446.5z M486.8,482.4c-1.7-4.4-2.1-7.9-0.9-9.5c0.9-1.4,3.4-2.1,6.9-2.1&#10;&#9;&#9;&#9;c11.7,0,27.2,8,31.2,14.1c-5.2,4-14.6,10-22.7,10C497.2,494.9,491.2,493.6,486.8,482.4z" style="fill: rgb(255, 152, 0);" transform="matrix(1.467039465904236, 0, 0, 1.467039465904236, -193.71828227203815, -203.1758728027345)"/>
		
		
		
		
		
		
	</g>

</svg>